<?xml version="1.0" standalone="no"?>
<!DOCTYPE svg PUBLIC "-//W3C//DTD SVG 20010904//EN"
 "http://www.w3.org/TR/2001/REC-SVG-20010904/DTD/svg10.dtd">
<svg version="1.0" xmlns="http://www.w3.org/2000/svg"
 width="969.000000pt" height="969.000000pt" viewBox="0 0 969.000000 969.000000"
 preserveAspectRatio="xMidYMid meet">

<g transform="translate(0.000000,969.000000) scale(0.100000,-0.100000)"
fill="#000000" stroke="none">
<path d="M2705 9586 c-16 -12 -64 -48 -105 -78 -91 -67 -170 -150 -200 -207
-23 -47 -355 -880 -795 -1996 -80 -203 -152 -386 -161 -405 l-16 -34 -19 24
c-10 14 -57 80 -105 148 -69 99 -90 122 -110 122 -22 0 -24 -4 -24 -43 0 -100
50 -226 132 -335 48 -64 49 -64 21 -59 -100 21 -242 39 -256 34 -14 -5 -17
-22 -17 -104 0 -165 33 -338 82 -436 l19 -39 -25 -66 c-14 -37 -26 -79 -26
-94 0 -38 56 -63 141 -62 73 0 94 10 150 67 25 25 59 43 123 65 79 27 93 29
120 18 29 -11 31 -16 34 -69 3 -53 -19 -333 -53 -682 -77 -786 -83 -853 -96
-1045 -13 -193 -6 -568 16 -805 43 -460 128 -875 259 -1253 65 -191 72 -204
97 -200 18 2 34 33 88 168 89 220 171 378 358 698 224 384 399 661 672 1067
124 185 494 727 508 744 11 15 9 -17 -8 -109 -11 -58 -36 -188 -55 -290 -19
-102 -61 -320 -94 -485 -94 -481 -127 -655 -174 -915 -90 -492 -296 -1298
-583 -2278 -9 -29 -13 -55 -10 -58 3 -4 33 10 65 30 82 50 273 140 351 166 84
28 274 44 421 35 90 -5 138 -14 220 -40 58 -18 140 -43 183 -54 43 -12 104
-34 135 -50 124 -62 258 -87 420 -78 86 5 139 15 267 52 88 25 198 62 245 81
243 101 262 107 353 112 125 6 186 -9 403 -103 l192 -82 -14 47 c-8 27 -25 81
-38 122 -70 217 -202 701 -276 1012 -106 443 -216 1028 -270 1431 -68 503
-100 840 -120 1240 -5 116 -12 240 -14 276 -3 37 -2 69 1 73 3 3 33 -13 67
-36 326 -220 588 -524 901 -1048 196 -328 471 -934 699 -1545 31 -82 62 -163
68 -178 8 -22 16 -27 37 -25 30 4 23 -22 86 328 25 140 50 280 55 310 6 30 28
165 50 300 22 135 49 295 60 355 38 222 60 701 60 1320 0 204 5 508 10 677 10
305 35 716 44 725 3 3 40 -6 83 -20 43 -14 110 -35 149 -46 l70 -20 49 -163
c231 -782 579 -1848 923 -2828 55 -157 130 -368 165 -470 170 -484 219 -615
262 -700 38 -77 49 -91 67 -88 30 4 38 40 45 198 6 153 -3 227 -46 380 -16 58
-68 240 -115 405 -46 165 -96 341 -111 390 -15 50 -42 142 -60 205 -192 660
-401 1323 -652 2070 -107 316 -200 598 -208 625 -27 90 -37 187 -44 395 l-6
205 -70 43 c-38 24 -76 46 -83 51 -7 4 -32 74 -56 156 -24 83 -71 245 -105
360 -118 404 -232 801 -256 893 l-25 93 36 91 c62 155 72 298 39 513 -22 135
-60 250 -113 338 -149 246 -334 349 -624 348 -130 -1 -187 -14 -223 -51 -39
-41 -31 -69 30 -102 63 -34 151 -110 171 -149 13 -27 13 -38 0 -113 -21 -107
-20 -165 3 -251 24 -91 58 -165 123 -270 29 -46 64 -103 78 -125 22 -37 93
-112 177 -186 35 -32 14 46 278 -1029 42 -170 96 -384 121 -474 24 -90 43
-165 42 -167 -2 -1 -136 -59 -298 -129 -277 -120 -530 -240 -715 -341 -165
-89 -289 -119 -618 -149 -286 -26 -266 -29 -670 96 l-208 64 35 31 c44 38 45
60 10 151 -53 138 -93 266 -87 276 7 12 484 3 653 -13 214 -20 470 -65 645
-114 50 -14 102 -26 118 -26 42 0 37 40 -10 80 -21 18 -74 65 -117 104 -164
148 -342 278 -464 340 -67 34 -230 89 -337 114 -131 31 -274 61 -324 68 -41 7
-45 10 -66 58 -34 77 -72 204 -80 266 -5 41 -1 79 15 148 42 178 76 243 280
534 138 196 190 292 220 404 35 134 22 248 -48 424 -26 65 -33 75 -54 75 -22
0 -34 -17 -96 -137 -39 -76 -84 -157 -101 -181 -40 -58 -121 -138 -190 -185
-389 -268 -498 -355 -561 -447 -48 -69 -142 -267 -265 -554 -64 -151 -132
-305 -150 -342 l-34 -67 -164 -105 c-320 -205 -594 -356 -742 -410 -130 -46
-267 -69 -391 -65 -62 1 -115 0 -119 -4 -18 -18 10 -48 74 -76 127 -57 178
-66 376 -66 169 0 194 2 405 41 196 37 316 56 488 79 23 3 42 2 42 -1 0 -15
-79 -174 -118 -237 -74 -122 -59 -139 76 -89 45 17 82 27 82 22 0 -18 -64
-103 -98 -129 -77 -60 -345 -202 -382 -202 -11 0 -86 13 -167 29 -82 16 -238
43 -348 61 -290 46 -355 62 -475 123 -58 29 -193 111 -300 182 -107 71 -240
152 -295 181 -86 44 -105 58 -138 105 l-38 54 81 7 c101 8 176 30 262 75 89
46 148 98 148 129 0 27 -22 31 -80 13 -53 -16 -305 -77 -308 -74 -4 4 240 536
568 1240 99 211 164 351 265 570 15 33 57 123 92 200 142 306 193 435 193 483
0 26 -9 114 -20 196 -11 81 -20 154 -20 162 0 22 -61 16 -95 -10z"/>
</g>
</svg>
