<svg version="1.1" xmlns="http://www.w3.org/2000/svg" xmlns:xlink="http://www.w3.org/1999/xlink" viewBox="0,0,785,785">
	<g>
		<path d="M0,0M460,60 C397.33333333,13.33333333,329.33333333,-10,256,-10 C224.66666667,-10,196,-5.66666667,170,3 C144,11.66666667,121.83333333,24.5,103.5,41.5 C85.16666667,58.5,71,79.16666667,61,103.5 C51,127.83333333,46,156,46,188 C46,213.33333333,49.16666667,235.5,55.5,254.5 C61.83333333,273.5,70.5,290.16666667,81.5,304.5 C92.5,318.83333333,105.33333333,331.16666667,120,341.5 C134.66666667,351.83333333,150.66666667,360.66666667,168,368 C180.66666667,373.33333333,195.16666667,378.83333333,211.5,384.5 C227.83333333,390.16666667,244.16666667,395.66666667,260.5,401 C276.83333333,406.33333333,292.5,411.5,307.5,416.5 C322.5,421.5,335,426,345,430 C375.66666667,442.66666667,398,459.5,412,480.5 C426,501.5,433,529.66666667,433,565 C433,614.33333333,419.5,654,392.5,684 C365.5,714,324.33333333,729,269,729 C254.33333333,729,238.16666667,727.83333333,220.5,725.5 C202.83333333,723.16666667,184.5,719.16666667,165.5,713.5 C146.5,707.83333333,127.5,700.66666667,108.5,692 C89.5,683.33333333,71.66666667,672.66666667,55,660 C55,660,41,704,41,704 C58.33333333,718,77.16666667,729.5,97.5,738.5 C117.83333333,747.5,138.16666667,754.66666667,158.5,760 C178.83333333,765.33333333,198.5,769.16666667,217.5,771.5 C236.5,773.83333333,253.66666667,775,269,775 C337.66666667,775,390.16666667,756,426.5,718 C462.83333333,680,481,629.33333333,481,566 C481,520,471.5,483.5,452.5,456.5 C433.5,429.5,406,408.33333333,370,393 C358.66666667,388.33333333,345.16666667,383.33333333,329.5,378 C313.83333333,372.66666667,297.66666667,367.16666667,281,361.5 C264.33333333,355.83333333,247.83333333,350.33333333,231.5,345 C215.16666667,339.66666667,201,334.33333333,189,329 C155.66666667,315,131.5,297.83333333,116.5,277.5 C101.5,257.16666667,94,229.33333333,94,194 C94,142,108.66666667,102.66666667,138,76 C167.33333333,49.33333333,206,36,254,36 C286.66666667,36,318.83333333,42,350.5,54 C382.16666667,66,414,82.66666667,446,104 C446,104,460,60,460,60Z "/>
	</g>
</svg>