<svg version="1.1" id="Layer_1" xmlns="http://www.w3.org/2000/svg" xmlns:xlink="http://www.w3.org/1999/xlink" x="0px" y="0px"
	 width="100%" viewBox="0 0 1024 1024" enable-background="new 0 0 1024 1024" xml:space="preserve">
<path fill="#000000" opacity="1.000000" stroke="none" 
	d="
M259.009430,438.896149 
	C283.392609,429.667511 308.297577,424.853638 333.894073,423.662445 
	C355.845825,422.640839 378.001862,422.690491 399.050995,415.447266 
	C445.982086,399.297729 475.209137,367.413788 483.686859,317.831238 
	C486.242249,302.885925 485.988495,287.644775 487.724579,272.604187 
	C493.351318,223.856476 512.393127,181.869583 550.952454,150.296707 
	C577.137390,128.856110 607.467468,116.715538 641.225769,113.654007 
	C693.679260,108.897011 740.340515,124.146698 781.711060,155.903076 
	C823.620361,188.072968 852.547119,230.079315 872.081482,278.807800 
	C883.337463,306.885956 891.076965,335.940643 895.005859,365.950073 
	C900.199646,405.620789 899.762939,445.157623 893.681580,484.810455 
	C886.360352,532.547852 873.033508,578.383972 852.685791,622.091858 
	C833.085205,664.194824 807.448486,702.360840 776.183960,736.811646 
	C740.659668,775.956238 700.407349,809.336609 655.373108,836.873535 
	C617.241699,860.189636 576.381165,877.482178 533.667114,890.588623 
	C504.584869,899.512268 474.886261,905.119019 444.722961,908.463501 
	C414.582336,911.805420 384.543701,910.562561 354.564056,906.212646 
	C314.931213,900.462158 277.324615,888.446960 242.479553,868.755798 
	C178.828308,832.785950 133.789047,781.317810 114.482132,709.736694 
	C100.744606,658.804321 104.433601,608.657227 125.902954,560.367188 
	C148.167862,510.287842 184.789825,473.799530 233.871429,449.657440 
	C241.947601,445.684967 250.102936,441.912964 259.009430,438.896149 
M630.634277,718.099976 
	C642.157104,709.748962 653.773193,701.515686 664.629578,692.185669 
	C657.578003,685.012817 657.632812,680.573975 664.387695,673.889771 
	C666.041565,672.253235 667.830505,670.740295 669.648865,669.284973 
	C682.403015,659.077393 694.869080,648.522095 706.308228,636.856018 
	C715.281860,627.704285 723.736206,618.045532 732.576416,608.759766 
	C736.653870,604.476929 742.727722,603.956482 747.117310,607.047302 
	C751.757080,610.314453 753.090576,616.096924 750.659119,621.620605 
	C750.025391,623.060303 748.684021,624.382690 749.309937,626.413086 
	C753.481750,628.572144 755.382629,625.134277 757.282227,622.742676 
	C774.481873,601.088135 788.219177,577.358154 798.971741,551.914246 
	C802.472046,543.631348 806.110168,535.344299 808.112488,525.295410 
	C803.704529,532.170471 800.381775,538.384094 795.212524,543.199646 
	C789.612854,548.416077 780.896484,548.779358 774.480286,544.252747 
	C768.612671,540.113159 767.154602,533.584656 770.454834,525.977600 
	C771.182617,524.299927 771.979492,522.635620 772.916077,521.067627 
	C789.914490,492.609955 800.543640,461.648773 808.114380,429.617310 
	C814.242065,403.691650 818.635925,377.478455 818.754150,350.658630 
	C818.851501,328.570801 816.931885,306.786774 811.492859,285.361237 
	C810.612549,281.893494 810.561584,278.513824 813.282776,276.065735 
	C816.228760,273.415283 815.959534,270.767975 814.722168,267.543701 
	C811.014648,257.882782 806.732971,248.481583 801.590271,239.519241 
	C786.151428,212.613464 767.716431,188.395615 740.200439,172.546875 
	C733.110474,168.463165 725.801819,164.813843 717.661987,163.319824 
	C701.282410,160.313416 690.303162,165.385849 682.362488,180.034363 
	C677.922058,188.225830 671.743896,194.027328 662.761047,196.667511 
	C647.522827,201.146255 632.668640,190.574036 633.694397,175.948608 
	C634.176880,169.070435 638.345154,164.359283 643.426514,160.317734 
	C648.030762,156.655685 652.727661,153.110199 657.576660,149.364288 
	C655.183533,147.338455 653.003723,147.539581 650.896973,147.722015 
	C635.031433,149.095871 619.715942,152.473709 605.132080,159.196777 
	C587.970947,167.107941 572.567383,177.368973 559.966553,191.514099 
	C533.038940,221.741653 522.569092,258.025970 521.327759,297.633331 
	C520.773132,315.329712 518.842102,332.797363 513.408447,349.763977 
	C503.318207,381.270966 485.229126,407.127350 458.024017,425.972900 
	C427.144867,447.363464 392.447113,456.936951 354.978302,457.496552 
	C340.866425,457.707306 326.757782,458.336975 312.731201,460.942444 
	C266.837891,469.467377 227.003311,489.183563 194.496796,523.081360 
	C159.481323,559.595520 142.248993,603.215149 142.429016,653.673157 
	C142.499191,673.342651 147.060822,692.290894 154.064758,710.573181 
	C157.150665,718.628357 160.700638,726.605591 166.110611,733.511719 
	C163.717529,727.499634 159.945358,722.167725 157.807510,716.043579 
	C156.148071,711.289856 157.742462,705.945312 161.553268,704.366455 
	C166.212341,702.436035 169.187729,705.103333 171.556686,708.641907 
	C173.408081,711.407288 175.026398,714.329102 176.736237,717.188660 
	C195.455200,748.494080 221.485123,771.522156 255.025269,785.877686 
	C278.911346,796.101074 303.876953,802.100830 329.707886,805.085266 
	C358.663574,808.430725 387.531830,808.437683 416.356415,804.411926 
	C459.472321,798.390076 500.870331,786.105042 540.950317,769.264343 
	C544.339111,767.840393 548.031982,766.774780 550.991150,764.162170 
	C542.984680,757.172607 543.689209,750.302063 552.710754,745.346985 
	C561.469360,740.536438 570.387329,736.016846 579.191833,731.288696 
	C584.617065,728.375305 589.808411,724.981140 595.381287,722.399780 
	C601.879456,719.389832 606.646729,721.689087 609.232605,728.401733 
	C609.530090,729.174133 609.583008,730.042175 611.055725,730.539368 
	C617.576721,727.309082 623.724487,722.768250 630.634277,718.099976 
M476.998016,826.613037 
	C446.196075,834.883545 414.991425,840.727051 383.011810,841.291321 
	C368.700378,841.543884 354.386566,841.435852 340.059570,840.508057 
	C318.550934,839.115356 297.403625,835.772705 276.599152,830.319641 
	C268.081482,828.086975 259.807648,824.936768 251.366470,822.391052 
	C249.218887,821.743347 246.397049,820.987000 245.084900,823.642822 
	C243.571655,826.705627 246.644791,827.612915 248.455246,828.776123 
	C260.032562,836.214478 272.881134,840.974365 285.667908,845.703857 
	C309.164001,854.394287 333.718201,857.681946 358.617340,858.653687 
	C369.430603,859.075684 380.227112,859.884216 391.077881,859.609802 
	C397.414520,859.449463 402.626465,863.523865 401.604248,868.392944 
	C400.069641,875.702576 404.402679,874.779846 408.516693,874.635010 
	C433.332825,873.760925 457.969543,871.296936 482.254303,865.925537 
	C487.165100,864.839355 492.303955,864.378845 496.800842,861.650269 
	C489.336334,849.517273 492.179047,841.249084 505.213989,836.344971 
	C509.576385,834.703796 513.985657,833.176270 518.418762,831.735901 
	C532.172119,827.267456 542.354797,835.797913 540.389771,848.858398 
	C540.359192,849.061646 540.751282,849.328430 541.309875,850.008301 
	C553.148193,845.939941 565.179871,841.922852 576.393311,836.420776 
	C576.118347,833.647217 574.389526,833.028015 573.190491,831.937500 
	C567.583374,826.837891 566.382568,819.484131 571.539551,814.140930 
	C580.184509,805.183716 591.425232,800.447571 603.442139,797.871765 
	C607.584778,796.983765 611.001526,799.467773 613.991821,802.479492 
	C617.571533,806.084961 617.366211,810.865540 618.479126,816.173950 
	C663.569824,789.977173 703.662537,758.622559 738.845764,720.668823 
	C737.874695,719.850586 737.556396,719.434570 737.136536,719.250183 
	C726.270569,714.481628 723.418518,705.266785 730.167908,695.616455 
	C734.667725,689.182617 740.099243,683.495056 746.255188,678.590576 
	C748.729980,676.618958 751.737305,674.294250 754.798218,674.983948 
	C761.686401,676.535889 764.828735,672.081787 768.195862,667.804016 
	C780.580750,652.069641 791.741272,635.503784 801.640015,618.092224 
	C813.717896,596.848022 823.403625,574.642334 828.738159,550.689331 
	C829.529663,547.135193 831.096252,542.845886 826.157654,541.439453 
	C821.029724,539.979065 820.464172,544.731750 819.272095,548.078735 
	C807.134521,582.158325 789.838318,613.430786 766.246460,640.806885 
	C742.208130,668.701111 716.730408,695.264221 688.116211,718.676331 
	C656.405701,744.621826 622.557617,767.322876 586.065552,785.863831 
	C551.538818,803.406433 515.514954,817.264954 476.998016,826.613037 
M853.676453,431.284668 
	C853.674316,425.953461 853.770264,420.619690 853.629150,415.292145 
	C853.556946,412.567627 852.365662,410.420959 849.247437,410.164856 
	C846.216797,409.915985 844.651917,411.697693 843.837097,414.330231 
	C843.545166,415.273712 843.423828,416.277863 843.297852,417.263672 
	C840.315796,440.594055 835.656189,463.529449 827.846558,485.788666 
	C826.039917,490.937866 823.823669,496.054504 823.276123,501.579529 
	C822.634094,508.059113 825.512390,512.718933 830.489868,513.577332 
	C835.054077,514.364441 838.748291,511.440765 840.567566,505.242859 
	C847.570923,481.383881 852.343323,457.116455 853.676453,431.284668 
M223.428665,790.170044 
	C213.868378,784.220032 205.220078,777.022095 196.465561,769.969543 
	C204.748779,780.215637 228.308243,796.514893 236.951065,798.149658 
	C232.313843,795.404602 228.190399,792.963684 223.428665,790.170044 
M181.683151,755.783447 
	C183.036972,757.129700 183.989624,758.932556 186.647141,759.916199 
	C183.620651,756.205261 181.302887,752.818420 177.141083,749.313416 
	C177.984329,750.934998 178.150833,751.407288 178.440918,751.784607 
	C179.349518,752.966675 180.304749,754.112854 181.683151,755.783447 
z"/>
<path fill="#000000" opacity="1.000000" stroke="none" 
	d="
M668.831360,365.745728 
	C650.384827,403.406708 627.013306,437.289764 600.103516,468.909668 
	C580.436340,492.019196 559.997742,514.290344 537.562866,534.778259 
	C502.234619,567.040588 463.903381,595.042786 422.275208,618.628113 
	C376.894318,644.339722 329.215607,663.904724 277.779388,673.598877 
	C262.556488,676.467957 247.194473,678.278931 231.657227,678.082703 
	C218.997894,677.922852 212.259018,671.353943 212.630478,659.565918 
	C212.857803,652.351562 216.871277,647.443909 224.049408,645.737915 
	C230.579773,644.185791 237.292999,644.536560 243.918549,644.001160 
	C276.367767,641.378662 307.435272,633.174561 337.670898,621.358459 
	C385.473175,602.677429 429.506622,577.369934 470.351715,546.395813 
	C473.777191,543.798218 477.634583,541.716248 480.222473,538.192078 
	C480.122620,536.378845 478.590576,536.134583 477.527924,535.457275 
	C471.953003,531.904541 470.623566,525.720581 475.214050,521.087646 
	C481.539246,514.703918 488.523712,508.933594 496.064819,504.032104 
	C501.900879,500.238861 507.630951,503.714783 510.120148,512.040161 
	C512.439453,512.248169 513.645813,510.399475 515.026794,509.126251 
	C552.531189,474.548767 586.462585,436.883331 614.205200,393.905457 
	C637.319153,358.097992 654.794006,319.785187 665.063477,278.331940 
	C668.427246,264.754120 670.014587,250.874710 671.752808,237.006653 
	C673.456787,223.411148 686.222656,217.045685 697.000549,223.936935 
	C702.271729,227.307236 704.190735,232.486328 704.299622,238.453812 
	C704.553040,252.347961 702.487976,265.949280 699.403015,279.475708 
	C692.597839,309.313965 682.696472,338.027710 668.831360,365.745728 
z"/>
<path fill="#000000" opacity="1.000000" stroke="none" 
	d="
M376.400085,576.494629 
	C341.881256,594.044678 306.144531,606.951233 268.327454,613.796082 
	C264.735504,614.446228 261.082031,615.028442 257.445526,615.106934 
	C248.353165,615.303406 241.901596,610.022949 240.779922,601.840088 
	C239.569153,593.007141 243.956116,586.174805 252.856110,583.834595 
	C263.312378,581.085144 273.929871,578.943298 284.368500,576.133240 
	C329.189423,564.067322 370.534393,544.518494 408.807922,518.287964 
	C437.894196,498.353912 464.663300,475.660095 489.993958,451.206268 
	C491.154480,450.085907 492.582153,449.115387 493.456451,446.154358 
	C490.447571,448.412140 488.330750,450.110565 486.101959,451.646545 
	C482.909973,453.846344 479.522583,455.831451 475.451599,454.996613 
	C471.519867,454.190308 468.156677,452.271454 467.033875,448.073914 
	C465.821533,443.541901 466.804382,439.511597 470.522491,436.339478 
	C479.912445,428.328400 488.919434,419.913300 497.062256,410.620148 
	C506.752380,399.561127 515.076965,387.506165 522.811218,375.025208 
	C525.158325,371.237671 528.347290,368.774689 533.093140,369.313080 
	C538.171509,369.889160 541.798523,372.646149 543.760681,377.286285 
	C545.217163,380.730560 543.998718,384.413422 543.678833,388.659454 
	C547.761658,386.460358 549.679749,383.101166 551.789246,380.077850 
	C577.067932,343.848572 596.381836,304.779053 607.888916,261.991791 
	C609.438171,256.231110 612.100708,251.035446 617.942993,248.384674 
	C623.739502,245.754700 629.499390,246.229263 634.494934,250.017380 
	C639.835938,254.067413 641.915039,260.051025 640.696716,266.479370 
	C636.802917,287.023743 629.688599,306.566162 621.248352,325.637695 
	C599.911072,373.850769 569.428711,415.871399 534.183716,454.743256 
	C502.317780,489.888367 465.643219,519.355530 426.896637,546.371033 
	C410.907959,557.518860 393.944489,567.164673 376.400085,576.494629 
z"/>
<path fill="#000000" opacity="1.000000" stroke="none" 
	d="
M237.707275,552.706055 
	C221.720459,567.974548 208.458405,584.816040 201.181564,605.545654 
	C193.489975,627.456787 191.779114,649.418091 203.403671,670.812195 
	C209.790710,682.566956 219.838715,690.296692 231.344116,696.436829 
	C235.032516,698.405151 238.786896,700.267395 241.159317,703.914551 
	C244.677017,709.322266 244.723053,716.700867 241.338333,721.339355 
	C236.655151,727.757263 229.760849,730.488342 222.543472,728.672791 
	C217.148422,727.315552 212.213043,724.780212 207.618988,721.785400 
	C173.721085,699.687683 158.578842,668.116882 162.554016,628.132812 
	C166.547348,587.965942 186.167435,555.517212 215.433624,528.507568 
	C247.833588,498.605927 286.377869,481.250427 329.366150,473.079498 
	C335.348602,471.942383 340.734650,473.372681 344.938904,477.779144 
	C348.703400,481.724670 350.515472,486.474121 348.584534,491.997284 
	C346.501343,497.956085 341.996338,501.040894 336.018646,502.126404 
	C323.532196,504.393799 311.400421,507.815948 299.523315,512.326599 
	C276.058228,521.238220 256.314514,535.759827 237.707275,552.706055 
z"/>
<path fill="#000000" opacity="1.000000" stroke="none" 
	d="
M754.428955,201.590759 
	C776.429260,227.977203 787.239929,258.816711 793.238831,291.696259 
	C796.022522,306.953339 797.654846,322.350311 797.200989,337.873077 
	C795.931946,381.283081 787.299072,423.064392 768.959839,462.614502 
	C766.652222,467.591095 764.097412,472.501556 760.223267,476.521484 
	C755.443970,481.480530 749.391052,482.433197 743.139099,480.876251 
	C737.332825,479.430267 733.989075,474.974243 732.546814,469.272522 
	C731.266663,464.211517 733.366455,459.693848 735.671997,455.462067 
	C742.404907,443.103943 747.162720,429.968445 751.355286,416.608002 
	C761.171204,385.327789 765.750977,353.287842 763.535767,320.556641 
	C761.032593,283.570129 750.165039,249.356247 727.416809,219.495712 
	C726.206116,217.906509 724.978699,216.309753 723.964050,214.595245 
	C720.487976,208.721649 721.136597,202.567444 725.650879,197.533752 
	C730.587280,192.029404 737.124512,190.314728 743.226868,192.853821 
	C747.654724,194.696198 751.146179,197.714935 754.428955,201.590759 
z"/>
<path fill="#000000" opacity="1.000000" stroke="none" 
	d="
M442.278320,729.073486 
	C442.180115,753.594238 425.472656,772.540466 400.460022,775.502197 
	C377.918884,778.171204 358.573883,764.362244 352.504211,743.413818 
	C343.923462,713.798767 365.978729,683.361755 396.515533,683.984375 
	C424.187500,684.548584 441.682556,704.963135 442.278320,729.073486 
M406.877411,739.361389 
	C407.551392,738.419250 408.332458,737.535400 408.881744,736.525513 
	C412.117645,730.576172 410.892456,724.613647 405.546783,720.000854 
	C400.513947,715.657898 394.157593,715.226685 389.024902,718.879883 
	C383.374329,722.901672 381.052307,729.755554 383.551117,735.471924 
	C388.056641,745.778748 400.505554,746.193726 406.877411,739.361389 
z"/>
<path fill="#000000" opacity="1.000000" stroke="none" 
	d="
M629.360779,513.624146 
	C635.075867,524.181580 642.499268,526.277344 652.685730,520.536377 
	C660.310913,516.238892 666.486206,517.077576 671.969604,523.155212 
	C676.665039,528.359497 676.905396,535.467834 671.890564,541.859070 
	C663.533813,552.509216 651.697815,555.720337 638.950745,555.036621 
	C623.602722,554.213318 611.125732,547.525146 603.151001,533.880676 
	C593.874817,518.009399 594.841797,501.790497 603.570007,486.365479 
	C612.244812,471.034821 626.309631,464.077820 643.935059,464.460632 
	C653.414551,464.666504 662.012451,467.369324 668.932373,474.059052 
	C675.178101,480.097015 676.220032,487.325348 672.129150,493.368561 
	C667.470337,500.250824 659.026245,502.865173 651.457336,498.666931 
	C641.429565,493.104858 632.970581,498.541290 629.991943,505.090820 
	C628.780151,507.755402 628.103760,510.418304 629.360779,513.624146 
z"/>
<path fill="#000000" opacity="1.000000" stroke="none" 
	d="
M566.734497,331.563690 
	C560.995789,337.953430 553.505676,340.116455 546.735474,337.179779 
	C538.506897,333.610504 537.094543,326.149292 537.222473,318.421844 
	C537.662964,291.813965 541.331604,265.763947 551.439514,240.898315 
	C557.575806,225.802795 565.724182,211.955261 576.798462,199.962830 
	C586.334534,189.636154 600.621887,191.845291 605.706421,204.136017 
	C608.180237,210.115936 605.789124,214.770401 602.335510,219.317215 
	C596.086548,227.544159 590.176819,235.966110 585.766663,245.386475 
	C575.075989,268.222473 570.024536,292.246063 570.315491,317.412170 
	C570.372681,322.358398 569.616760,327.015930 566.734497,331.563690 
z"/>
<path fill="#000000" opacity="1.000000" stroke="none" 
	d="
M350.506653,540.608215 
	C338.448212,545.523987 326.892853,550.727539 314.570099,553.804504 
	C304.462128,556.328308 296.375732,552.187439 294.009491,543.409790 
	C291.548279,534.279968 296.528748,525.278748 306.284454,522.622192 
	C321.583496,518.456116 336.578094,513.521667 350.705109,506.300018 
	C370.497620,496.182129 388.761597,483.729309 405.697571,469.327820 
	C407.343811,467.927917 409.027924,466.543640 410.833496,465.365112 
	C417.957397,460.715271 426.031006,462.100800 431.798187,468.870483 
	C437.196503,475.207184 437.125549,483.634857 431.068329,489.618408 
	C421.794067,498.779846 411.025085,506.106903 400.269684,513.373657 
	C384.649170,523.927612 368.096436,532.832886 350.506653,540.608215 
z"/>
<path fill="#000000" opacity="1.000000" stroke="none" 
	d="
M607.339111,668.317871 
	C614.552246,662.901611 621.386353,657.571655 628.430847,652.536194 
	C636.172913,647.002014 644.486816,648.296570 649.948181,655.580994 
	C655.758484,663.330933 654.754272,671.445618 647.681335,677.741699 
	C627.372009,695.820251 605.222290,711.023560 579.912170,721.237183 
	C571.010132,724.829529 562.281189,729.310669 552.313782,729.334839 
	C545.118713,729.352234 539.354858,724.841187 537.308044,717.748474 
	C535.251770,710.622986 537.953918,703.211487 544.130737,699.537292 
	C550.489380,695.754822 557.818176,694.416077 564.609253,691.690247 
	C579.691467,685.636597 593.796570,677.886963 607.339111,668.317871 
z"/>
<path fill="#000000" opacity="1.000000" stroke="none" 
	d="
M526.389771,655.479248 
	C527.043945,649.279419 530.203308,645.304077 535.185120,642.519714 
	C557.245300,630.190063 575.326477,613.571228 589.113464,592.342957 
	C591.467529,588.718323 593.619507,584.938721 596.233337,581.511780 
	C600.845154,575.465271 607.351196,573.614868 613.391296,576.248413 
	C620.663696,579.419312 624.725281,586.420654 623.417542,593.866089 
	C622.029358,601.769836 617.692017,608.430603 613.569153,615.013062 
	C598.660767,638.815613 578.761719,657.294312 553.528503,669.863586 
	C549.759644,671.740906 545.779419,673.038513 541.572144,673.079346 
	C532.360291,673.168701 526.328674,666.260437 526.389771,655.479248 
z"/>
<path fill="#000000" opacity="1.000000" stroke="none" 
	d="
M478.648743,653.762451 
	C468.261139,659.468079 458.029449,664.635193 447.004211,668.022644 
	C442.649261,669.360718 438.258148,669.932129 433.767944,668.525085 
	C427.659698,666.611084 423.692810,662.615295 422.745728,656.293701 
	C421.514252,648.073669 423.857819,643.121582 430.719604,639.676941 
	C437.544983,636.250671 444.643555,633.372009 451.590546,630.183838 
	C464.335480,624.334778 475.942352,616.577515 487.590240,608.854004 
	C496.934937,602.657715 506.152954,605.342590 511.265198,615.317200 
	C514.343872,621.324097 513.150513,627.621521 507.363586,633.402039 
	C500.133392,640.624207 491.322510,645.751892 482.798553,651.236267 
	C481.540314,652.045837 480.241943,652.793030 478.648743,653.762451 
z"/>
<path fill="#000000" opacity="1.000000" stroke="none" 
	d="
M686.658630,573.050537 
	C684.166565,567.227661 685.111145,561.973389 688.852417,557.743164 
	C699.121338,546.132324 707.130981,533.315674 712.599670,518.743591 
	C715.095154,512.094116 723.203186,508.578247 729.517090,510.049591 
	C736.836914,511.755371 742.034119,518.385864 742.417297,525.894165 
	C742.781738,533.035034 740.134094,539.277771 737.206665,545.454895 
	C731.366455,557.778137 723.740356,568.843750 713.115479,577.538086 
	C703.440125,585.455444 693.002441,583.682800 686.658630,573.050537 
z"/>
<path fill="#000000" opacity="1.000000" stroke="none" 
	d="
M319.893951,763.576538 
	C324.566956,776.357971 317.224365,785.708618 304.168213,784.671082 
	C282.384430,782.939941 261.570251,777.644958 241.708572,768.562195 
	C236.870956,766.349976 232.715332,763.498474 231.322052,757.888245 
	C230.075577,752.869019 231.378891,748.650146 235.170654,745.238525 
	C238.780334,741.990845 243.018051,741.502502 247.261765,743.547119 
	C265.839844,752.497925 285.828308,754.495178 305.985535,755.664307 
	C311.837341,756.003723 316.731995,757.784668 319.893951,763.576538 
z"/>
<path fill="#000000" opacity="1.000000" stroke="none" 
	d="
M680.151123,434.674408 
	C681.503662,431.003082 682.480957,427.620483 683.986145,424.491821 
	C687.812195,416.538849 689.260925,408.102997 689.745178,399.403168 
	C690.361328,388.333740 696.730103,381.681824 706.609680,381.675659 
	C714.829529,381.670532 721.798035,387.840942 722.255371,396.052795 
	C723.257019,414.036194 718.668457,430.678314 709.254517,445.942139 
	C705.559631,451.933105 700.027832,454.795898 692.761780,453.796753 
	C684.459229,452.655090 677.747498,444.045959 680.151123,434.674408 
z"/>
<path fill="#000000" opacity="1.000000" stroke="none" 
	d="
M263.875427,707.533569 
	C266.467194,706.110107 268.870880,705.668945 271.427826,705.678894 
	C281.750580,705.718933 292.074585,705.604126 302.396210,705.719238 
	C310.682465,705.811584 316.601654,710.917542 317.287628,718.255798 
	C318.040375,726.308228 313.360870,733.913574 305.501190,734.891968 
	C293.148224,736.429565 280.614044,736.821350 268.240173,734.813782 
	C262.051392,733.809753 258.322174,729.411499 257.145844,723.343750 
	C255.897552,716.904968 258.002899,711.540588 263.875427,707.533569 
z"/>
<path fill="#000000" opacity="1.000000" stroke="none" 
	d="
M741.145996,345.826019 
	C734.590942,356.390747 722.337830,358.389099 714.836975,350.432343 
	C712.094055,347.522736 710.640137,344.104858 710.668274,340.056396 
	C710.716858,333.063660 710.604614,326.068695 710.736633,319.078003 
	C710.920105,309.356628 717.996826,301.843628 726.662781,301.972931 
	C735.518555,302.105011 743.344543,309.920715 743.174927,319.298309 
	C743.017029,328.034698 744.905640,336.971527 741.145996,345.826019 
z"/>
<path fill="#000000" opacity="1.000000" stroke="none" 
	d="
M500.583160,742.441772 
	C494.835266,749.509949 487.972229,752.744873 479.256042,750.137207 
	C471.316559,747.761841 466.193451,741.199463 465.735321,733.415527 
	C465.228333,724.801208 469.472443,717.464783 476.987793,713.964172 
	C484.024719,710.686401 493.966949,712.589844 499.086151,718.194885 
	C505.189270,724.877319 505.831635,733.846008 500.583160,742.441772 
z"/>
<path fill="#000000" opacity="1.000000" stroke="none" 
	d="
M671.459595,594.382568 
	C678.681580,600.138000 681.397888,608.710388 678.647522,616.301514 
	C675.841675,624.045776 667.574097,629.566040 659.200989,629.286072 
	C651.530762,629.029602 644.344788,623.469849 642.175049,616.113220 
	C639.780090,607.993042 642.140564,599.862488 648.320618,594.944824 
	C654.910461,589.701050 662.558777,589.442505 671.459595,594.382568 
z"/>
<path fill="#000000" opacity="1.000000" stroke="none" 
	d="
M536.827271,559.326172 
	C540.495850,550.932312 546.790955,546.837891 555.395996,546.906860 
	C563.180359,546.969177 569.801575,552.403931 572.527100,560.083679 
	C575.013184,567.088684 572.747559,574.705627 566.501587,580.341492 
	C560.312378,585.926147 551.187378,586.853760 544.237305,582.604736 
	C537.011230,578.187012 534.041565,569.170105 536.827271,559.326172 
z"/>
</svg>