<svg version="1.1" id="Layer_1" xmlns="http://www.w3.org/2000/svg" xmlns:xlink="http://www.w3.org/1999/xlink" x="0px" y="0px"
	 width="100%" viewBox="0 0 992 976" enable-background="new 0 0 992 976" xml:space="preserve">
<path fill="#000000" opacity="1.000000" stroke="none" 
	d="
M675.000000,50.647358 
	C754.499084,51.526459 821.641174,80.226608 875.917786,137.597366 
	C916.262756,180.242157 940.182068,231.292816 947.957520,289.447235 
	C951.909729,319.006439 952.179321,348.826111 950.491577,378.680420 
	C944.274475,488.651062 903.434326,585.562073 839.074524,673.391785 
	C787.322266,744.016357 725.264099,804.306091 652.903320,853.703308 
	C594.729797,893.415649 531.716309,922.581604 462.919891,938.739929 
	C414.230835,950.175537 364.947815,953.119507 315.094543,950.632874 
	C278.350372,948.800110 243.176849,941.032593 210.007599,925.257324 
	C148.202377,895.862976 102.660522,850.181885 74.417007,787.627563 
	C55.967484,746.765320 48.214886,703.709839 50.990005,659.165710 
	C55.904045,580.289246 88.398880,514.699463 148.702423,463.265533 
	C184.045715,433.120605 225.033646,415.181335 270.086426,404.201385 
	C343.559692,386.294922 388.490051,338.992950 405.385956,265.362610 
	C419.286530,204.785675 450.010773,154.603973 497.391846,114.576729 
	C535.848145,82.089111 580.176941,62.201553 629.746277,53.974678 
	C644.534668,51.520302 659.460266,50.113609 675.000000,50.647358 
M825.985352,134.545471 
	C768.130676,90.113884 703.084595,74.190102 631.310120,86.120667 
	C586.317383,93.599472 546.881836,113.179291 512.762878,143.331436 
	C493.281006,160.548264 476.879608,180.396118 463.704590,202.883209 
	C461.362183,206.881241 460.955200,209.317917 465.233185,212.747116 
	C478.395264,223.297577 488.633209,236.436890 495.997345,251.640640 
	C512.256104,285.207794 513.834534,320.156189 504.707214,355.788391 
	C493.593292,399.175995 469.969330,434.833191 435.634338,463.240753 
	C396.165649,495.895844 351.414032,513.821594 299.306213,509.344879 
	C264.541412,506.358154 235.252914,492.172699 212.710693,465.254272 
	C209.238449,461.107849 206.878632,461.331909 202.845230,463.712097 
	C178.642075,477.994659 157.338287,495.737640 139.470245,517.388733 
	C90.100891,577.210693 72.620049,645.925110 86.915932,721.608582 
	C101.379730,798.181030 145.174774,854.388855 213.515305,891.434143 
	C251.312271,911.922852 292.329956,919.076355 334.851105,919.680786 
	C364.699493,920.105042 394.374725,918.578430 423.886261,913.787048 
	C469.550262,906.373352 513.164246,892.497375 554.975708,872.847473 
	C623.771301,840.516052 683.559998,795.592712 737.335571,742.259460 
	C786.864868,693.137695 829.438110,638.789917 861.918518,576.843018 
	C880.077454,542.210327 894.479004,506.096863 904.336975,468.218689 
	C912.271301,437.732147 917.253906,406.810822 918.908630,375.305664 
	C920.485352,345.285400 920.356812,315.267700 915.290100,285.676361 
	C904.800354,224.413849 874.785583,174.227768 825.985352,134.545471 
M478.500092,321.052277 
	C479.404419,289.606873 471.312408,261.652069 447.548187,239.555939 
	C445.387115,241.114883 445.158875,243.053528 444.559204,244.712067 
	C441.162415,254.106796 438.453094,263.697845 436.231293,273.447266 
	C419.693939,346.014160 377.561157,397.205200 308.613556,425.910187 
	C292.238007,432.727783 274.720490,435.573029 257.767487,440.383759 
	C251.613541,442.130096 245.380630,443.837250 239.119690,447.154175 
	C244.844345,453.855194 251.102493,459.017181 258.055328,463.270721 
	C284.889984,479.687317 313.876831,482.192749 343.774597,474.983612 
	C395.325043,462.553406 432.862274,431.491852 458.870575,385.924286 
	C470.164215,366.137482 476.532043,344.708160 478.500092,321.052277 
z"/>
<path fill="#000000" opacity="1.000000" stroke="none" 
	d="
M667.764771,718.785889 
	C629.682678,752.794495 588.868835,782.267212 543.493835,805.147095 
	C535.468384,809.193848 527.318604,813.026062 519.059937,816.569763 
	C509.945312,820.480713 500.903900,816.886475 497.445740,808.414612 
	C493.901306,799.731262 497.614166,791.445801 506.895386,787.289612 
	C557.057983,764.826050 602.059204,734.455688 642.999573,697.977112 
	C686.780701,658.967468 725.189148,615.308105 756.164490,565.361328 
	C780.194702,526.613403 798.586426,485.402863 809.786560,441.101410 
	C812.531128,430.245300 817.283936,425.618866 825.711548,425.473206 
	C836.678955,425.283691 844.179810,434.348846 841.628845,445.084412 
	C835.571167,470.578217 827.089111,495.273071 816.531250,519.246521 
	C790.806641,577.658569 754.802063,629.138855 711.358032,675.672241 
	C697.469116,690.548828 682.922363,704.712891 667.764771,718.785889 
z"/>
</svg>