<svg version="1.1" id="Layer_1" xmlns="http://www.w3.org/2000/svg" xmlns:xlink="http://www.w3.org/1999/xlink" x="0px" y="0px"
	 width="100%" viewBox="0 0 567 440" enable-background="new 0 0 567 440" xml:space="preserve">
<path fill="#000000" opacity="1.000000" stroke="none" 
	d="
M396.000000,441.000000 
	C264.000031,441.000000 132.500061,441.000000 1.000071,441.000000 
	C1.000047,294.333405 1.000047,147.666794 1.000023,1.000149 
	C189.999893,1.000100 378.999786,1.000100 567.999756,1.000050 
	C567.999878,147.666519 567.999878,294.333038 567.999939,440.999786 
	C510.833344,441.000000 453.666656,441.000000 396.000000,441.000000 
M337.664124,319.160492 
	C348.727966,315.378448 358.838806,308.287628 371.426727,309.687531 
	C372.826538,309.843170 374.435394,308.119110 376.663422,307.109985 
	C377.600647,306.011261 379.258392,304.971741 379.354370,303.803894 
	C379.855286,297.709351 384.001953,294.792236 388.626068,292.029053 
	C390.440094,290.945038 391.786835,289.054474 393.628448,288.046661 
	C396.552856,286.446320 399.617493,284.458923 402.793488,284.084961 
	C411.519409,283.057526 416.031189,278.886169 417.191620,270.287720 
	C417.522949,267.832672 418.733673,265.115448 420.391815,263.292053 
	C425.295441,257.899811 430.482635,252.740936 435.838348,247.793304 
	C439.194031,244.693344 442.687805,240.663132 446.764465,239.653122 
	C454.706451,237.685455 460.494690,235.059326 459.814758,225.634674 
	C459.780548,225.160553 459.936523,224.623764 460.150299,224.187943 
	C464.554565,215.209213 469.449036,206.687378 478.364624,201.195999 
	C484.369690,197.497299 485.843109,192.670258 483.976135,185.839157 
	C483.416107,183.790039 482.870209,181.572174 483.078888,179.508575 
	C483.720703,173.161224 485.065460,166.875259 485.523529,160.521194 
	C486.310547,149.604828 486.572937,138.701218 483.332489,127.977982 
	C481.181213,120.859077 480.796631,113.466957 483.640656,106.442329 
	C488.638885,94.097160 494.068024,81.927216 499.192078,69.631973 
	C502.364105,62.020645 501.221893,56.891006 495.645844,52.164951 
	C490.924530,48.163311 486.543915,49.567791 484.224579,55.277435 
	C478.328339,69.792496 471.270966,83.427933 457.622375,92.637741 
	C454.729462,94.589844 453.099213,94.683556 450.213348,93.651718 
	C438.103363,89.321823 425.582703,87.915527 412.749298,88.837929 
	C407.494751,89.215599 402.486786,91.395775 396.844971,89.308975 
	C393.088348,87.919502 388.920532,89.122154 386.089233,93.274193 
	C383.908539,96.472145 380.868652,99.170990 377.893616,101.721886 
	C372.268677,106.544884 366.454529,111.150932 360.646637,115.755844 
	C354.820923,120.374863 348.994110,124.930588 340.974274,125.142456 
	C335.563873,125.285393 332.435730,128.776672 332.006470,134.316940 
	C331.907288,135.596680 331.857208,137.240784 331.084778,138.046021 
	C327.549164,141.731842 324.096100,145.633179 320.002289,148.619400 
	C310.895630,155.262238 301.715485,161.906357 291.989716,167.559830 
	C286.262512,170.888977 280.486267,174.992249 272.847382,174.178833 
	C270.405609,173.918823 266.541229,176.188492 265.239655,178.417252 
	C262.888519,182.443207 259.644714,184.513565 255.663071,186.071396 
	C249.084885,188.645157 242.507874,191.221909 235.180466,193.872269 
	C234.416000,194.151962 233.647217,194.420471 232.887741,194.713120 
	C226.391251,197.216461 220.378006,201.206009 212.625870,198.706787 
	C210.126816,197.901123 206.558350,199.410065 203.817963,200.624634 
	C200.805084,201.960007 198.381836,204.683258 195.339035,205.878723 
	C191.689819,207.312393 187.692169,208.262802 183.782944,208.539230 
	C177.460892,208.986282 171.048279,209.161377 164.748642,208.605011 
	C159.464020,208.138306 154.568939,207.072250 150.247498,211.572800 
	C148.827942,213.051178 146.149841,213.717667 143.954254,213.981476 
	C136.801697,214.840836 129.218460,214.110138 122.502892,216.222672 
	C105.211555,221.662018 88.354309,228.212799 77.143242,244.032959 
	C69.969254,254.156281 67.390732,264.971985 69.943024,277.917999 
	C69.958778,279.740204 69.528885,281.705444 70.060532,283.362091 
	C74.460152,297.071503 83.290985,307.383484 95.181686,315.190948 
	C100.449448,318.649811 106.362785,320.777649 109.827141,327.040985 
	C112.632027,332.112000 118.082809,333.172424 124.236702,331.621643 
	C128.896896,330.447266 134.090958,330.281799 138.877075,330.928406 
	C152.316162,332.744049 165.619690,335.595673 179.073151,337.257904 
	C185.632294,338.068298 191.185516,339.194214 196.374954,344.048096 
	C198.727783,346.248810 205.069534,346.428070 208.379425,344.891449 
	C215.093307,341.774597 221.857651,342.026978 228.738571,341.814728 
	C232.393173,341.701996 236.077667,341.652863 239.709122,341.994873 
	C242.392426,342.247589 245.207901,342.761383 247.619095,343.894104 
	C252.718796,346.289825 257.387634,345.875824 262.325256,343.416138 
	C265.833282,341.668610 269.613617,340.368439 273.393158,339.292969 
	C277.201447,338.209259 281.267395,337.989838 285.028320,336.789673 
	C292.883667,334.282928 300.741486,333.137085 308.975555,334.480072 
	C314.055511,335.308655 318.548737,334.194702 322.524384,330.242401 
	C326.286285,326.502594 330.887878,323.607483 335.766937,320.119385 
	C336.026001,319.770508 336.285095,319.421631 336.647980,319.372009 
	C336.647980,319.372009 336.964691,319.374023 337.664124,319.160492 
z"/>
<path fill="#3B3E45" opacity="1.000000" stroke="none" 
	d="
M235.930374,193.797394 
	C242.507874,191.221909 249.084885,188.645157 255.663071,186.071396 
	C259.644714,184.513565 262.888519,182.443207 265.239655,178.417252 
	C266.541229,176.188492 270.405609,173.918823 272.847382,174.178833 
	C280.486267,174.992249 286.262512,170.888977 291.989716,167.559830 
	C301.715485,161.906357 310.895630,155.262238 320.002289,148.619400 
	C324.096100,145.633179 327.549164,141.731842 331.084778,138.046021 
	C331.857208,137.240784 331.907288,135.596680 332.006470,134.316940 
	C332.435730,128.776672 335.563873,125.285393 340.974274,125.142456 
	C348.994110,124.930588 354.820923,120.374863 360.646637,115.755844 
	C366.454529,111.150932 372.268677,106.544884 377.893616,101.721886 
	C380.868652,99.170990 383.908539,96.472145 386.089233,93.274193 
	C388.920532,89.122154 393.088348,87.919502 396.844971,89.308975 
	C402.486786,91.395775 407.494751,89.215599 412.749298,88.837929 
	C425.582703,87.915527 438.103363,89.321823 450.213348,93.651718 
	C453.099213,94.683556 454.729462,94.589844 457.622375,92.637741 
	C471.270966,83.427933 478.328339,69.792496 484.224579,55.277435 
	C486.543915,49.567791 490.924530,48.163311 495.645844,52.164951 
	C501.221893,56.891006 502.364105,62.020645 499.192078,69.631973 
	C494.068024,81.927216 488.638885,94.097160 483.640656,106.442329 
	C480.796631,113.466957 481.181213,120.859077 483.332489,127.977982 
	C486.572937,138.701218 486.310547,149.604828 485.523529,160.521194 
	C485.065460,166.875259 483.720703,173.161224 483.078888,179.508575 
	C482.870209,181.572174 483.416107,183.790039 483.976135,185.839157 
	C485.843109,192.670258 484.369690,197.497299 478.364624,201.195999 
	C469.449036,206.687378 464.554565,215.209213 460.150299,224.187943 
	C459.936523,224.623764 459.780548,225.160553 459.814758,225.634674 
	C460.494690,235.059326 454.706451,237.685455 446.764465,239.653122 
	C442.687805,240.663132 439.194031,244.693344 435.838348,247.793304 
	C430.482635,252.740936 425.295441,257.899811 420.391815,263.292053 
	C418.733673,265.115448 417.522949,267.832672 417.191620,270.287720 
	C416.031189,278.886169 411.519409,283.057526 402.793488,284.084961 
	C399.617493,284.458923 396.552856,286.446320 393.628448,288.046661 
	C391.786835,289.054474 390.440094,290.945038 388.626068,292.029053 
	C384.001953,294.792236 379.855286,297.709351 379.354370,303.803894 
	C379.258392,304.971741 377.600647,306.011261 376.358582,306.875275 
	C374.665283,304.750031 373.276855,302.859528 371.937531,300.581787 
	C373.108307,296.501312 373.528198,292.719971 377.450348,290.218506 
	C382.694244,286.874023 387.524536,282.836914 392.299530,278.820343 
	C394.610687,276.876221 396.450439,275.846252 399.804718,276.599579 
	C406.667023,278.140717 411.304688,272.734589 409.557983,266.260773 
	C409.164429,264.802155 409.652588,262.609558 410.577637,261.398651 
	C412.290710,259.156311 414.588379,257.347565 416.710419,255.433441 
	C420.467468,252.044617 424.137787,248.538696 428.096161,245.399200 
	C433.245941,241.314728 438.213409,236.619110 444.057159,233.903351 
	C449.389435,231.425293 452.783234,229.021179 452.178528,222.786621 
	C452.074005,221.708817 452.428009,220.303864 453.097595,219.477188 
	C460.055481,210.887009 464.198273,199.887680 474.707275,194.264099 
	C475.609924,193.781082 475.795654,191.450272 475.821625,189.969147 
	C475.852356,188.220566 474.942017,186.414215 475.144653,184.717117 
	C475.964386,177.852280 477.662201,171.041946 477.912506,164.170578 
	C478.356293,151.990387 479.422791,139.594650 473.710266,128.096344 
	C471.178925,123.001251 468.473297,117.992752 465.846802,112.944946 
	C465.359222,113.104065 464.871613,113.263184 464.384033,113.422310 
	C464.127625,122.629234 463.119019,131.632065 457.929993,139.516403 
	C458.376740,134.801102 459.377380,130.222198 460.502777,125.674187 
	C462.495880,117.619576 459.681946,103.781898 449.954529,100.157082 
	C443.507721,97.754745 436.867279,95.163338 430.124023,94.451401 
	C422.362915,93.631989 414.270050,92.370728 406.522980,95.992210 
	C404.942627,96.730995 402.060730,95.730873 400.238586,94.710922 
	C394.800537,91.666954 391.291992,92.522171 388.455322,98.107063 
	C387.786652,99.423515 387.439392,101.153679 386.385223,101.982376 
	C380.458893,106.641205 374.284637,110.984131 368.347076,115.629272 
	C363.556091,119.377419 358.405273,122.909294 354.506836,127.470993 
	C351.805939,130.631454 349.443054,131.470047 345.707855,130.966110 
	C339.336212,130.106552 338.384399,131.151093 335.959503,137.233856 
	C334.547546,140.775574 332.791901,144.844299 329.932709,147.029938 
	C317.653351,156.416519 305.101105,165.483337 292.241180,174.055954 
	C286.679749,177.763275 280.847473,181.577087 273.100525,180.348282 
	C271.114960,180.033325 268.405609,184.006134 266.100830,186.088791 
	C264.843292,187.225098 263.955658,189.153885 262.526306,189.654175 
	C253.777420,192.716263 244.921204,195.471649 236.082626,197.876190 
	C236.019775,196.214569 235.975082,195.005997 235.930374,193.797394 
M461.649506,98.799156 
	C464.115631,100.701714 466.680725,102.490440 469.027283,104.530540 
	C473.909485,108.775238 474.111298,108.810341 476.773193,102.831749 
	C479.987213,95.613182 483.125427,88.360527 486.252960,81.103889 
	C488.783417,75.232674 491.438507,69.403862 493.659607,63.415760 
	C494.676239,60.674793 494.507904,57.135887 490.974884,56.585197 
	C489.446533,56.346977 486.494324,58.813911 485.809204,60.654999 
	C481.826202,71.358589 475.777191,80.583115 467.879578,88.783302 
	C465.265747,91.497284 463.483948,95.012619 461.649506,98.799156 
z"/>
<path fill="#393C44" opacity="1.000000" stroke="none" 
	d="
M335.120178,320.340881 
	C330.887878,323.607483 326.286285,326.502594 322.524384,330.242401 
	C318.548737,334.194702 314.055511,335.308655 308.975555,334.480072 
	C300.741486,333.137085 292.883667,334.282928 285.028320,336.789673 
	C281.267395,337.989838 277.201447,338.209259 273.393158,339.292969 
	C269.613617,340.368439 265.833282,341.668610 262.325256,343.416138 
	C257.387634,345.875824 252.718796,346.289825 247.619095,343.894104 
	C245.207901,342.761383 242.392426,342.247589 239.709122,341.994873 
	C236.077667,341.652863 232.393173,341.701996 228.738571,341.814728 
	C221.857651,342.026978 215.093307,341.774597 208.379425,344.891449 
	C205.069534,346.428070 198.727783,346.248810 196.374954,344.048096 
	C191.185516,339.194214 185.632294,338.068298 179.073151,337.257904 
	C165.619690,335.595673 152.316162,332.744049 138.877075,330.928406 
	C134.090958,330.281799 128.896896,330.447266 124.236702,331.621643 
	C118.082809,333.172424 112.632027,332.112000 109.827141,327.040985 
	C106.362785,320.777649 100.449448,318.649811 95.181686,315.190948 
	C83.290985,307.383484 74.460152,297.071503 70.060532,283.362091 
	C69.528885,281.705444 69.958778,279.740204 70.187378,277.345581 
	C71.609154,276.182190 72.786583,275.591187 74.130630,275.297272 
	C81.220238,279.831116 88.143227,284.067810 95.223206,288.400604 
	C87.365303,289.732849 82.208626,282.315033 74.029785,281.448853 
	C75.530807,284.849335 76.303955,287.774750 77.935799,290.096710 
	C85.433456,300.764923 96.089188,307.516083 107.336571,313.624908 
	C110.097137,315.124237 112.536247,317.914886 114.140488,320.681641 
	C116.612122,324.944275 118.764008,325.850891 123.339844,323.368896 
	C125.130379,322.397675 127.259789,320.967194 129.017349,321.225616 
	C133.991043,321.956757 138.817749,323.626373 143.765182,324.610565 
	C153.055222,326.458710 162.339981,328.472046 171.722290,329.669861 
	C178.190750,330.495697 184.830078,329.896332 191.370300,330.301270 
	C193.267166,330.418701 195.622391,331.325409 196.843979,332.694366 
	C201.368820,337.765198 202.079346,338.042419 207.685715,335.100128 
	C209.023285,334.398193 210.623337,333.806152 212.097000,333.818939 
	C219.898544,333.886353 227.701233,334.387878 235.497589,334.285706 
	C240.449112,334.220795 245.298126,333.033417 249.362396,337.424774 
	C251.915237,340.183075 257.006744,339.103790 259.864349,335.995850 
	C261.265503,334.471985 262.834747,332.350464 264.600769,332.037109 
	C275.522461,330.099060 286.505890,328.476990 297.506287,327.036133 
	C300.343323,326.664490 303.570374,326.652924 306.168243,327.649261 
	C310.743011,329.403809 314.895599,329.131866 316.633545,324.846008 
	C318.591431,320.017731 322.274078,318.448425 326.547119,316.965240 
	C330.758484,315.503448 334.854431,313.709229 339.116486,312.271973 
	C338.476196,314.780029 337.720459,317.077026 336.964691,319.374023 
	C336.964691,319.374023 336.647980,319.372009 336.352295,319.426361 
	C335.744446,319.767426 335.432312,320.054138 335.120178,320.340881 
z"/>
<path fill="#3D3F45" opacity="1.000000" stroke="none" 
	d="
M73.964005,275.000153 
	C72.786583,275.591187 71.609154,276.182190 70.134949,276.917725 
	C67.390732,264.971985 69.969254,254.156281 77.143242,244.032959 
	C88.354309,228.212799 105.211555,221.662018 122.502892,216.222672 
	C129.218460,214.110138 136.801697,214.840836 143.954254,213.981476 
	C146.149841,213.717667 148.827942,213.051178 150.247498,211.572800 
	C154.568939,207.072250 159.464020,208.138306 164.748642,208.605011 
	C171.048279,209.161377 177.460892,208.986282 183.782944,208.539230 
	C187.692169,208.262802 191.689819,207.312393 195.339035,205.878723 
	C198.381836,204.683258 200.805084,201.960007 203.817963,200.624634 
	C206.558350,199.410065 210.126816,197.901123 212.625870,198.706787 
	C220.378006,201.206009 226.391251,197.216461 232.887741,194.713120 
	C233.647217,194.420471 234.416000,194.151962 235.555420,193.834839 
	C235.975082,195.005997 236.019775,196.214569 235.832367,198.124420 
	C230.467545,200.687729 225.400787,202.777039 220.168350,204.295364 
	C218.190460,204.869293 215.461914,204.799225 213.716461,203.847412 
	C209.405182,201.496368 207.633743,201.793915 205.066544,205.968765 
	C204.123703,207.502029 202.565186,209.361023 200.996582,209.691788 
	C190.160263,211.976944 179.263184,213.994003 168.339264,215.819931 
	C166.883743,216.063232 164.741180,215.165695 163.652039,214.067398 
	C160.548355,210.937485 157.023926,211.378983 154.971390,214.138412 
	C152.663651,217.240921 150.035248,217.514755 146.883789,217.654510 
	C127.221428,218.526337 108.303078,221.830154 92.070496,234.160202 
	C80.033424,243.303421 69.199432,258.499298 73.964005,275.000153 
z"/>
<path fill="#3A3D45" opacity="1.000000" stroke="none" 
	d="
M337.314392,319.267273 
	C337.720459,317.077026 338.476196,314.780029 339.454773,312.167023 
	C344.867737,309.045288 349.960846,306.031982 355.297058,303.539062 
	C357.343750,302.582977 360.451172,301.819733 362.192017,302.705170 
	C366.221497,304.754425 369.066010,303.828339 371.888397,300.968994 
	C373.276855,302.859528 374.665283,304.750031 376.000519,306.953674 
	C374.435394,308.119110 372.826538,309.843170 371.426727,309.687531 
	C358.838806,308.287628 348.727966,315.378448 337.314392,319.267273 
z"/>
<path fill="#3A3D45" opacity="1.000000" stroke="none" 
	d="
M335.443542,320.230133 
	C335.432312,320.054138 335.744446,319.767426 336.300415,319.276733 
	C336.285095,319.421631 336.026001,319.770508 335.443542,320.230133 
z"/>
<path fill="#000000" opacity="1.000000" stroke="none" 
	d="
M371.937531,300.581787 
	C369.066010,303.828339 366.221497,304.754425 362.192017,302.705170 
	C360.451172,301.819733 357.343750,302.582977 355.297058,303.539062 
	C349.960846,306.031982 344.867737,309.045288 339.339355,311.955933 
	C334.854431,313.709229 330.758484,315.503448 326.547119,316.965240 
	C322.274078,318.448425 318.591431,320.017731 316.633545,324.846008 
	C314.895599,329.131866 310.743011,329.403809 306.168243,327.649261 
	C303.570374,326.652924 300.343323,326.664490 297.506287,327.036133 
	C286.505890,328.476990 275.522461,330.099060 264.600769,332.037109 
	C262.834747,332.350464 261.265503,334.471985 259.864349,335.995850 
	C257.006744,339.103790 251.915237,340.183075 249.362396,337.424774 
	C245.298126,333.033417 240.449112,334.220795 235.497589,334.285706 
	C227.701233,334.387878 219.898544,333.886353 212.097000,333.818939 
	C210.623337,333.806152 209.023285,334.398193 207.685715,335.100128 
	C202.079346,338.042419 201.368820,337.765198 196.843979,332.694366 
	C195.622391,331.325409 193.267166,330.418701 191.370300,330.301270 
	C184.830078,329.896332 178.190750,330.495697 171.722290,329.669861 
	C162.339981,328.472046 153.055222,326.458710 143.765182,324.610565 
	C138.817749,323.626373 133.991043,321.956757 129.017349,321.225616 
	C127.259789,320.967194 125.130379,322.397675 123.339844,323.368896 
	C118.764008,325.850891 116.612122,324.944275 114.140488,320.681641 
	C112.536247,317.914886 110.097137,315.124237 107.336571,313.624908 
	C96.089188,307.516083 85.433456,300.764923 77.935799,290.096710 
	C76.303955,287.774750 75.530807,284.849335 74.029785,281.448853 
	C82.208626,282.315033 87.365303,289.732849 95.223206,288.400604 
	C88.143227,284.067810 81.220238,279.831116 74.130630,275.297272 
	C69.199432,258.499298 80.033424,243.303421 92.070496,234.160202 
	C108.303078,221.830154 127.221428,218.526337 146.883789,217.654510 
	C150.035248,217.514755 152.663651,217.240921 154.971390,214.138412 
	C157.023926,211.378983 160.548355,210.937485 163.652039,214.067398 
	C164.741180,215.165695 166.883743,216.063232 168.339264,215.819931 
	C179.263184,213.994003 190.160263,211.976944 200.996582,209.691788 
	C202.565186,209.361023 204.123703,207.502029 205.066544,205.968765 
	C207.633743,201.793915 209.405182,201.496368 213.716461,203.847412 
	C215.461914,204.799225 218.190460,204.869293 220.168350,204.295364 
	C225.400787,202.777039 230.467545,200.687729 235.850510,198.577454 
	C244.921204,195.471649 253.777420,192.716263 262.526306,189.654175 
	C263.955658,189.153885 264.843292,187.225098 266.100830,186.088791 
	C268.405609,184.006134 271.114960,180.033325 273.100525,180.348282 
	C280.847473,181.577087 286.679749,177.763275 292.241180,174.055954 
	C305.101105,165.483337 317.653351,156.416519 329.932709,147.029938 
	C332.791901,144.844299 334.547546,140.775574 335.959503,137.233856 
	C338.384399,131.151093 339.336212,130.106552 345.707855,130.966110 
	C349.443054,131.470047 351.805939,130.631454 354.506836,127.470993 
	C358.405273,122.909294 363.556091,119.377419 368.347076,115.629272 
	C374.284637,110.984131 380.458893,106.641205 386.385223,101.982376 
	C387.439392,101.153679 387.786652,99.423515 388.455322,98.107063 
	C391.291992,92.522171 394.800537,91.666954 400.238586,94.710922 
	C402.060730,95.730873 404.942627,96.730995 406.522980,95.992210 
	C414.270050,92.370728 422.362915,93.631989 430.124023,94.451401 
	C436.867279,95.163338 443.507721,97.754745 449.954529,100.157082 
	C459.681946,103.781898 462.495880,117.619576 460.502777,125.674187 
	C459.377380,130.222198 458.376740,134.801102 457.929993,139.516403 
	C463.119019,131.632065 464.127625,122.629234 464.384033,113.422310 
	C464.871613,113.263184 465.359222,113.104065 465.846802,112.944946 
	C468.473297,117.992752 471.178925,123.001251 473.710266,128.096344 
	C479.422791,139.594650 478.356293,151.990387 477.912506,164.170578 
	C477.662201,171.041946 475.964386,177.852280 475.144653,184.717117 
	C474.942017,186.414215 475.852356,188.220566 475.821625,189.969147 
	C475.795654,191.450272 475.609924,193.781082 474.707275,194.264099 
	C464.198273,199.887680 460.055481,210.887009 453.097595,219.477188 
	C452.428009,220.303864 452.074005,221.708817 452.178528,222.786621 
	C452.783234,229.021179 449.389435,231.425293 444.057159,233.903351 
	C438.213409,236.619110 433.245941,241.314728 428.096161,245.399200 
	C424.137787,248.538696 420.467468,252.044617 416.710419,255.433441 
	C414.588379,257.347565 412.290710,259.156311 410.577637,261.398651 
	C409.652588,262.609558 409.164429,264.802155 409.557983,266.260773 
	C411.304688,272.734589 406.667023,278.140717 399.804718,276.599579 
	C396.450439,275.846252 394.610687,276.876221 392.299530,278.820343 
	C387.524536,282.836914 382.694244,286.874023 377.450348,290.218506 
	C373.528198,292.719971 373.108307,296.501312 371.937531,300.581787 
M180.990692,297.320343 
	C177.698547,297.328247 174.406387,297.336121 170.759552,297.206299 
	C170.457031,297.269592 170.154510,297.332916 169.851990,297.396210 
	C170.192490,297.651398 170.532974,297.906616 171.420593,298.803497 
	C174.978333,298.576202 178.536072,298.348907 182.409668,297.977020 
	C182.504333,297.775391 182.598999,297.573761 182.693665,297.372162 
	C182.424957,297.364136 182.156250,297.356140 180.990692,297.320343 
M393.798096,226.732819 
	C390.313019,227.208527 388.485413,229.022003 388.675568,234.297089 
	C391.432251,231.264191 393.295349,229.214401 395.857941,227.040298 
	C397.358154,225.894867 398.858398,224.749420 400.358612,223.603989 
	C399.946320,223.143494 399.534027,222.683014 399.121704,222.222519 
	C397.563263,223.633179 396.004791,225.043823 393.798096,226.732819 
M403.820312,220.053665 
	C408.036438,216.161835 412.252533,212.270004 416.468628,208.378174 
	C416.161652,207.903030 415.854675,207.427887 415.547699,206.952744 
	C414.403534,207.180435 412.820587,207.008377 412.188263,207.702423 
	C408.743378,211.483582 405.532562,215.478027 401.968109,219.716949 
	C402.005920,220.055847 402.043762,220.394730 402.081573,220.733627 
	C402.430023,220.538376 402.778442,220.343124 403.820312,220.053665 
M298.632599,217.117050 
	C302.157501,215.399750 305.682404,213.682465 309.207275,211.965164 
	C308.849762,211.191940 308.492249,210.418701 308.134705,209.645477 
	C295.645233,214.731171 283.155792,219.816849 270.666321,224.902542 
	C270.969543,225.705536 271.272766,226.508545 271.575989,227.311539 
	C280.378174,224.049454 289.180359,220.787369 298.632599,217.117050 
M442.957092,196.677856 
	C444.219360,203.369827 444.163361,203.222900 436.770721,206.040924 
	C435.142914,206.661453 434.067474,208.730988 432.020203,210.889816 
	C440.449585,211.557449 447.331696,208.314957 448.715942,203.947159 
	C450.056091,199.718445 448.183716,195.850052 443.489014,193.525085 
	C443.330872,194.367981 443.185852,195.141022 442.957092,196.677856 
M367.581055,248.050964 
	C358.183167,253.156479 348.785309,258.261993 339.387421,263.367523 
	C339.591400,263.915039 339.795349,264.462555 339.999298,265.010071 
	C341.520935,264.872101 343.270569,265.174042 344.526428,264.523224 
	C351.516754,260.900696 358.475555,257.194550 365.228058,253.154251 
	C366.660950,252.296890 367.191803,249.931961 367.581055,248.050964 
M437.319397,174.827072 
	C431.521454,182.965698 425.723511,191.104340 419.925568,199.242966 
	C421.437256,199.959930 422.102875,200.032303 422.316223,199.755753 
	C428.928101,191.184479 435.530731,182.605148 441.991028,173.920105 
	C442.418976,173.344818 441.711761,171.925125 441.412842,170.212402 
	C439.735901,172.160690 438.796844,173.251694 437.319397,174.827072 
M340.797028,295.915283 
	C343.669250,290.886414 343.281219,289.495331 338.444611,287.682281 
	C338.136993,288.030853 337.686829,288.344482 337.509430,288.771423 
	C334.852539,295.165497 333.801514,295.675232 327.120941,294.654785 
	C325.856262,294.461578 324.423615,295.367523 322.404602,295.961670 
	C330.129150,300.966919 334.515778,300.926086 340.797028,295.915283 
M414.061249,173.419479 
	C413.296112,171.867477 412.531006,170.315475 411.765900,168.763474 
	C411.291473,168.749298 410.817047,168.735123 410.342651,168.720932 
	C409.870636,170.212677 408.565399,172.113113 409.063660,173.128937 
	C412.001099,179.117599 407.625977,180.690918 403.761230,182.696167 
	C402.453888,183.374481 401.161438,184.081436 399.862213,184.775314 
	C409.592773,186.966034 415.047668,182.456451 414.061249,173.419479 
M292.853394,245.225586 
	C290.165710,248.850037 287.150787,248.305038 283.786407,246.159927 
	C282.925354,245.610916 281.525940,245.906357 280.373840,245.813843 
	C280.381622,246.566498 280.098328,247.507233 280.443726,248.041733 
	C282.959900,251.935608 295.034760,251.279587 297.086700,246.999252 
	C298.063202,244.962265 298.186035,242.486420 298.448792,240.181229 
	C298.476013,239.942322 296.156921,239.068741 296.043610,239.237930 
	C294.931244,240.898544 294.055878,242.717896 292.853394,245.225586 
M405.686462,240.603775 
	C404.675201,239.227524 403.663971,237.851288 402.259735,235.940231 
	C398.609314,245.488983 398.609314,245.488983 389.866577,246.015381 
	C390.632721,247.476624 391.722168,249.105850 393.020691,249.294266 
	C399.812531,250.279755 403.000977,248.143829 405.686462,240.603775 
M382.007904,127.735817 
	C382.525574,128.864014 383.043243,129.992218 383.560883,131.120438 
	C384.312439,130.465439 385.474396,129.949112 385.750000,129.133331 
	C387.797638,123.072075 389.088135,122.552765 394.875092,125.159508 
	C395.823639,125.586784 397.369507,124.688026 398.639343,124.402122 
	C398.054504,123.276520 397.759857,121.599159 396.838013,121.114296 
	C390.547028,117.805603 384.597626,120.218300 382.007904,127.735817 
M263.841400,316.408447 
	C267.793671,316.548309 272.180145,318.174408 275.099762,314.160461 
	C276.018127,312.897888 275.727112,310.755615 275.989624,309.015961 
	C274.310364,309.493683 271.752411,309.451721 271.107971,310.541412 
	C268.664337,314.673492 266.182953,313.930878 263.035767,311.631378 
	C262.062103,310.919952 260.560730,310.930695 259.300964,310.610809 
	C259.083191,311.084320 258.865387,311.557800 258.647583,312.031311 
	C260.168732,313.392090 261.689880,314.752869 263.841400,316.408447 
M316.287354,274.786499 
	C310.975983,276.364685 305.664581,277.942871 300.353210,279.521057 
	C300.480835,279.958771 300.608459,280.396454 300.736084,280.834137 
	C309.795044,281.027985 318.048035,278.389404 325.695953,273.624390 
	C325.550201,273.055939 325.404449,272.487488 325.258698,271.919037 
	C322.501160,272.751648 319.743591,273.584290 316.287354,274.786499 
M355.481018,226.981628 
	C359.677185,227.146210 363.217560,226.025650 363.864075,221.308640 
	C364.148590,219.232788 363.324341,217.004959 363.003479,214.846130 
	C362.377289,214.773865 361.751068,214.701599 361.124878,214.629333 
	C361.883545,223.326218 356.679779,224.382111 349.654205,223.103394 
	C349.699951,223.812759 349.745667,224.522125 349.791412,225.231491 
	C351.408661,225.818893 353.025909,226.406296 355.481018,226.981628 
M450.602844,118.097954 
	C449.481110,118.539818 448.060699,118.693230 447.298584,119.482384 
	C445.607178,121.233719 444.230988,123.292671 442.756866,125.249237 
	C442.138062,126.070511 441.596649,126.950104 440.912964,127.961609 
	C449.209351,130.016739 452.171295,127.085663 450.602844,118.097954 
M269.506836,285.888580 
	C266.066284,286.816711 262.625702,287.744843 259.185150,288.672974 
	C259.364105,289.309967 259.543060,289.946991 259.721985,290.584015 
	C267.793121,288.991425 275.864258,287.398804 283.935394,285.806213 
	C283.797791,285.048248 283.660156,284.290253 283.522552,283.532288 
	C279.132782,284.330780 274.743042,285.129272 269.506836,285.888580 
M215.415176,275.998810 
	C210.180405,279.812378 209.949722,272.336090 206.419556,271.888092 
	C204.667313,276.137329 208.249710,278.466400 210.436768,279.102905 
	C213.154266,279.893860 216.852386,278.911377 219.535080,277.538391 
	C220.834717,276.873230 220.784348,273.570374 221.345200,271.461731 
	C220.846451,271.287170 220.347717,271.112610 219.848969,270.938049 
	C218.605042,272.539001 217.361115,274.139954 215.415176,275.998810 
M136.974335,267.446838 
	C139.791183,263.518341 139.781693,263.379120 136.510620,261.200134 
	C134.364624,266.948761 130.286865,268.482178 124.530846,266.082977 
	C125.975861,271.646149 130.842514,272.224731 136.974335,267.446838 
M154.813446,308.991333 
	C154.066895,308.075775 153.320328,307.160248 152.573776,306.244690 
	C152.057800,306.520905 151.541809,306.797119 151.025818,307.073334 
	C151.689453,308.512939 151.989853,310.710602 153.090530,311.237976 
	C155.562149,312.422150 158.449173,313.326935 161.130661,313.238739 
	C162.481308,313.194305 163.811829,310.783630 164.999802,309.319855 
	C165.192322,309.082642 164.718369,307.834686 164.331497,307.702942 
	C163.690262,307.484619 162.855255,307.729553 162.127060,307.892059 
	C159.869995,308.395935 157.624786,308.952911 154.813446,308.991333 
M87.694298,254.022614 
	C87.062790,254.992096 86.431290,255.961578 85.736595,257.028076 
	C93.200592,253.823395 100.223785,250.807968 108.287231,247.345901 
	C105.417358,247.345901 103.229027,246.789200 101.514008,247.453812 
	C96.981369,249.210358 92.653831,251.496109 87.694298,254.022614 
M197.505081,297.179077 
	C197.708664,297.774445 197.950333,298.900360 198.110367,298.888855 
	C204.998459,298.394440 211.879303,297.798981 218.761017,297.215851 
	C218.689072,296.433014 218.617111,295.650146 218.545151,294.867310 
	C211.747055,295.594299 204.948959,296.321259 197.505081,297.179077 
M340.833374,192.932938 
	C346.358917,192.329315 356.701599,184.843765 357.345551,179.990341 
	C351.239563,184.436691 345.721497,188.454880 340.833374,192.932938 
M260.868256,213.279800 
	C260.381256,214.747131 259.894257,216.214462 259.407257,217.681793 
	C259.622192,218.068787 259.837128,218.455795 260.052032,218.842804 
	C263.439301,214.313461 267.497406,212.034866 273.481628,215.229721 
	C270.265289,208.999390 265.556976,208.460526 260.868256,213.279800 
M138.397552,295.892365 
	C139.764923,295.774292 141.132278,295.656250 142.499649,295.538208 
	C142.492233,295.227264 142.484802,294.916351 142.477386,294.605438 
	C134.767792,293.369476 127.058182,292.133514 119.348579,290.897522 
	C119.237740,291.601837 119.126900,292.306152 119.016060,293.010468 
	C125.194893,293.966156 131.373734,294.921844 138.397552,295.892365 
M228.474472,236.158112 
	C232.954529,235.454666 237.434586,234.751221 241.914627,234.047775 
	C241.813965,233.472137 241.713287,232.896515 241.612625,232.320877 
	C234.312103,233.210327 227.011581,234.099762 219.711060,234.989197 
	C219.759460,235.599167 219.807877,236.209137 219.856277,236.819107 
	C222.481110,236.647797 225.105942,236.476486 228.474472,236.158112 
M192.880127,228.795959 
	C191.522247,227.935745 190.253357,226.859695 188.789597,226.256256 
	C184.593765,224.526474 180.471985,227.458130 181.044662,232.454697 
	C184.347946,229.227524 187.786285,228.676849 191.381592,231.334091 
	C191.406616,231.352600 192.378036,230.090622 192.880127,228.795959 
M185.335403,240.741501 
	C190.665604,240.741501 195.995789,240.741501 201.325989,240.741501 
	C201.295898,239.817337 201.265823,238.893173 201.235733,237.968994 
	C194.255142,238.431137 187.274551,238.893265 180.293961,239.355408 
	C180.292740,239.648865 180.291504,239.942337 180.290268,240.235794 
	C181.736404,240.416946 183.182541,240.598114 185.335403,240.741501 
M141.092850,242.280487 
	C139.378876,242.280487 137.664902,242.280487 135.950928,242.280487 
	C135.976334,242.562195 136.001740,242.843903 136.027145,243.125595 
	C137.781586,242.943390 139.536026,242.761169 141.092850,242.280487 
M146.535065,242.565521 
	C147.294449,242.333313 148.053833,242.101105 148.813217,241.868896 
	C148.609253,241.446396 148.405304,241.023911 148.201355,240.601425 
	C147.360031,241.178696 146.518707,241.755951 146.535065,242.565521 
M248.436691,231.769394 
	C248.469711,231.599167 248.502747,231.428940 248.535797,231.258728 
	C248.417007,231.410568 248.298233,231.562424 248.436691,231.769394 
z"/>
<path fill="#000000" opacity="1.000000" stroke="none" 
	d="
M461.485626,98.480362 
	C463.483948,95.012619 465.265747,91.497284 467.879578,88.783302 
	C475.777191,80.583115 481.826202,71.358589 485.809204,60.654999 
	C486.494324,58.813911 489.446533,56.346977 490.974884,56.585197 
	C494.507904,57.135887 494.676239,60.674793 493.659607,63.415760 
	C491.438507,69.403862 488.783417,75.232674 486.252960,81.103889 
	C483.125427,88.360527 479.987213,95.613182 476.773193,102.831749 
	C474.111298,108.810341 473.909485,108.775238 469.027283,104.530540 
	C466.680725,102.490440 464.115631,100.701714 461.485626,98.480362 
z"/>
<path fill="#444448" opacity="1.000000" stroke="none" 
	d="
M298.307556,217.321167 
	C289.180359,220.787369 280.378174,224.049454 271.575989,227.311539 
	C271.272766,226.508545 270.969543,225.705536 270.666321,224.902542 
	C283.155792,219.816849 295.645233,214.731171 308.134705,209.645477 
	C308.492249,210.418701 308.849762,211.191940 309.207275,211.965164 
	C305.682404,213.682465 302.157501,215.399750 298.307556,217.321167 
z"/>
<path fill="#3D3F45" opacity="1.000000" stroke="none" 
	d="
M442.998962,196.295959 
	C443.185852,195.141022 443.330872,194.367981 443.489014,193.525085 
	C448.183716,195.850052 450.056091,199.718445 448.715942,203.947159 
	C447.331696,208.314957 440.449585,211.557449 432.020203,210.889816 
	C434.067474,208.730988 435.142914,206.661453 436.770721,206.040924 
	C444.163361,203.222900 444.219360,203.369827 442.998962,196.295959 
z"/>
<path fill="#45454A" opacity="1.000000" stroke="none" 
	d="
M367.859650,248.156281 
	C367.191803,249.931961 366.660950,252.296890 365.228058,253.154251 
	C358.475555,257.194550 351.516754,260.900696 344.526428,264.523224 
	C343.270569,265.174042 341.520935,264.872101 339.999298,265.010071 
	C339.795349,264.462555 339.591400,263.915039 339.387421,263.367523 
	C348.785309,258.261993 358.183167,253.156479 367.859650,248.156281 
z"/>
<path fill="#45454A" opacity="1.000000" stroke="none" 
	d="
M437.588593,174.584885 
	C438.796844,173.251694 439.735901,172.160690 441.412842,170.212402 
	C441.711761,171.925125 442.418976,173.344818 441.991028,173.920105 
	C435.530731,182.605148 428.928101,191.184479 422.316223,199.755753 
	C422.102875,200.032303 421.437256,199.959930 419.925568,199.242966 
	C425.723511,191.104340 431.521454,182.965698 437.588593,174.584885 
z"/>
<path fill="#414449" opacity="1.000000" stroke="none" 
	d="
M340.557129,296.151611 
	C334.515778,300.926086 330.129150,300.966919 322.404602,295.961670 
	C324.423615,295.367523 325.856262,294.461578 327.120941,294.654785 
	C333.801514,295.675232 334.852539,295.165497 337.509430,288.771423 
	C337.686829,288.344482 338.136993,288.030853 338.444611,287.682281 
	C343.281219,289.495331 343.669250,290.886414 340.557129,296.151611 
z"/>
<path fill="#45454A" opacity="1.000000" stroke="none" 
	d="
M414.215332,173.775894 
	C415.047668,182.456451 409.592773,186.966034 399.862213,184.775314 
	C401.161438,184.081436 402.453888,183.374481 403.761230,182.696167 
	C407.625977,180.690918 412.001099,179.117599 409.063660,173.128937 
	C408.565399,172.113113 409.870636,170.212677 410.342651,168.720932 
	C410.817047,168.735123 411.291473,168.749298 411.765900,168.763474 
	C412.531006,170.315475 413.296112,171.867477 414.215332,173.775894 
z"/>
<path fill="#424247" opacity="1.000000" stroke="none" 
	d="
M292.983276,244.858871 
	C294.055878,242.717896 294.931244,240.898544 296.043610,239.237930 
	C296.156921,239.068741 298.476013,239.942322 298.448792,240.181229 
	C298.186035,242.486420 298.063202,244.962265 297.086700,246.999252 
	C295.034760,251.279587 282.959900,251.935608 280.443726,248.041733 
	C280.098328,247.507233 280.381622,246.566498 280.373840,245.813843 
	C281.525940,245.906357 282.925354,245.610916 283.786407,246.159927 
	C287.150787,248.305038 290.165710,248.850037 292.983276,244.858871 
z"/>
<path fill="#424247" opacity="1.000000" stroke="none" 
	d="
M405.698914,240.978638 
	C403.000977,248.143829 399.812531,250.279755 393.020691,249.294266 
	C391.722168,249.105850 390.632721,247.476624 389.866577,246.015381 
	C398.609314,245.488983 398.609314,245.488983 402.259735,235.940231 
	C403.663971,237.851288 404.675201,239.227524 405.698914,240.978638 
z"/>
<path fill="#45454A" opacity="1.000000" stroke="none" 
	d="
M382.013245,127.314911 
	C384.597626,120.218300 390.547028,117.805603 396.838013,121.114296 
	C397.759857,121.599159 398.054504,123.276520 398.639343,124.402130 
	C397.369507,124.688026 395.823639,125.586784 394.875092,125.159508 
	C389.088135,122.552765 387.797638,123.072075 385.750000,129.133331 
	C385.474396,129.949112 384.312439,130.465439 383.560883,131.120422 
	C383.043243,129.992218 382.525574,128.864014 382.013245,127.314911 
z"/>
<path fill="#3B3B40" opacity="1.000000" stroke="none" 
	d="
M263.526215,316.261047 
	C261.689880,314.752869 260.168732,313.392090 258.647583,312.031311 
	C258.865387,311.557800 259.083191,311.084320 259.300964,310.610809 
	C260.560730,310.930695 262.062103,310.919952 263.035767,311.631378 
	C266.182953,313.930878 268.664337,314.673492 271.107971,310.541412 
	C271.752411,309.451721 274.310364,309.493683 275.989624,309.015991 
	C275.727112,310.755615 276.018127,312.897888 275.099762,314.160461 
	C272.180145,318.174408 267.793671,316.548309 263.526215,316.261047 
z"/>
<path fill="#4B4B4D" opacity="1.000000" stroke="none" 
	d="
M316.636719,274.601715 
	C319.743591,273.584290 322.501160,272.751648 325.258698,271.919037 
	C325.404449,272.487488 325.550201,273.055939 325.695953,273.624390 
	C318.048035,278.389404 309.795044,281.027985 300.736084,280.834137 
	C300.608459,280.396454 300.480835,279.958771 300.353210,279.521057 
	C305.664581,277.942871 310.975983,276.364685 316.636719,274.601715 
z"/>
<path fill="#424247" opacity="1.000000" stroke="none" 
	d="
M355.062073,226.987656 
	C353.025909,226.406296 351.408661,225.818893 349.791412,225.231491 
	C349.745667,224.522125 349.699951,223.812759 349.654205,223.103394 
	C356.679779,224.382111 361.883545,223.326218 361.124878,214.629333 
	C361.751068,214.701599 362.377289,214.773865 363.003479,214.846130 
	C363.324341,217.004959 364.148590,219.232788 363.864075,221.308640 
	C363.217560,226.025650 359.677185,227.146210 355.062073,226.987656 
z"/>
<path fill="#414449" opacity="1.000000" stroke="none" 
	d="
M450.798157,118.379333 
	C452.171295,127.085663 449.209351,130.016739 440.912964,127.961609 
	C441.596649,126.950104 442.138062,126.070511 442.756866,125.249237 
	C444.230988,123.292671 445.607178,121.233719 447.298584,119.482384 
	C448.060699,118.693230 449.481110,118.539818 450.798157,118.379333 
z"/>
<path fill="#45454A" opacity="1.000000" stroke="none" 
	d="
M269.930054,285.908173 
	C274.743042,285.129272 279.132782,284.330780 283.522552,283.532288 
	C283.660156,284.290253 283.797791,285.048248 283.935394,285.806213 
	C275.864258,287.398804 267.793121,288.991425 259.721985,290.584015 
	C259.543060,289.946991 259.364105,289.309967 259.185150,288.672974 
	C262.625702,287.744843 266.066284,286.816711 269.930054,285.908173 
z"/>
<path fill="#45454A" opacity="1.000000" stroke="none" 
	d="
M215.766174,275.869873 
	C217.361115,274.139954 218.605042,272.539001 219.848969,270.938049 
	C220.347717,271.112610 220.846451,271.287170 221.345200,271.461731 
	C220.784348,273.570374 220.834717,276.873230 219.535080,277.538391 
	C216.852386,278.911377 213.154266,279.893860 210.436768,279.102905 
	C208.249710,278.466400 204.667313,276.137329 206.419556,271.888092 
	C209.949722,272.336090 210.180405,279.812378 215.766174,275.869873 
z"/>
<path fill="#404145" opacity="1.000000" stroke="none" 
	d="
M136.721252,267.723175 
	C130.842514,272.224731 125.975861,271.646149 124.530846,266.082977 
	C130.286865,268.482178 134.364624,266.948761 136.510620,261.200134 
	C139.781693,263.379120 139.791183,263.518341 136.721252,267.723175 
z"/>
<path fill="#3B3B40" opacity="1.000000" stroke="none" 
	d="
M155.094208,309.240295 
	C157.624786,308.952911 159.869995,308.395935 162.127060,307.892059 
	C162.855255,307.729553 163.690262,307.484619 164.331497,307.702942 
	C164.718369,307.834686 165.192322,309.082642 164.999802,309.319855 
	C163.811829,310.783630 162.481308,313.194305 161.130661,313.238739 
	C158.449173,313.326935 155.562149,312.422150 153.090530,311.237976 
	C151.989853,310.710602 151.689453,308.512939 151.025818,307.073334 
	C151.541809,306.797119 152.057800,306.520905 152.573776,306.244690 
	C153.320328,307.160248 154.066895,308.075775 155.094208,309.240295 
z"/>
<path fill="#4B4B4D" opacity="1.000000" stroke="none" 
	d="
M87.969482,253.796906 
	C92.653831,251.496109 96.981369,249.210358 101.514008,247.453812 
	C103.229027,246.789200 105.417358,247.345901 108.287231,247.345901 
	C100.223785,250.807968 93.200592,253.823395 85.736595,257.028076 
	C86.431290,255.961578 87.062790,254.992096 87.969482,253.796906 
z"/>
<path fill="#404145" opacity="1.000000" stroke="none" 
	d="
M197.827972,297.113647 
	C204.948959,296.321259 211.747055,295.594299 218.545151,294.867310 
	C218.617111,295.650146 218.689072,296.433014 218.761017,297.215851 
	C211.879303,297.798981 204.998459,298.394440 198.110367,298.888855 
	C197.950333,298.900360 197.708664,297.774445 197.827972,297.113647 
z"/>
<path fill="#545456" opacity="1.000000" stroke="none" 
	d="
M340.518402,192.703003 
	C345.721497,188.454880 351.239563,184.436691 357.345551,179.990341 
	C356.701599,184.843765 346.358917,192.329315 340.518402,192.703003 
z"/>
<path fill="#444448" opacity="1.000000" stroke="none" 
	d="
M260.974121,212.909607 
	C265.556976,208.460526 270.265289,208.999390 273.481628,215.229721 
	C267.497406,212.034866 263.439301,214.313461 260.052032,218.842804 
	C259.837128,218.455795 259.622192,218.068787 259.407257,217.681793 
	C259.894257,216.214462 260.381256,214.747131 260.974121,212.909607 
z"/>
<path fill="#424247" opacity="1.000000" stroke="none" 
	d="
M137.975067,295.884949 
	C131.373734,294.921844 125.194893,293.966156 119.016060,293.010468 
	C119.126900,292.306152 119.237740,291.601837 119.348579,290.897522 
	C127.058182,292.133514 134.767792,293.369476 142.477386,294.605438 
	C142.484802,294.916351 142.492233,295.227264 142.499649,295.538208 
	C141.132278,295.656250 139.764923,295.774292 137.975067,295.884949 
z"/>
<path fill="#404145" opacity="1.000000" stroke="none" 
	d="
M228.102631,236.231644 
	C225.105942,236.476486 222.481110,236.647797 219.856277,236.819107 
	C219.807877,236.209137 219.759460,235.599167 219.711060,234.989197 
	C227.011581,234.099762 234.312103,233.210327 241.612625,232.320877 
	C241.713287,232.896515 241.813965,233.472137 241.914627,234.047775 
	C237.434586,234.751221 232.954529,235.454666 228.102631,236.231644 
z"/>
<path fill="#444448" opacity="1.000000" stroke="none" 
	d="
M192.893829,229.111252 
	C192.378036,230.090622 191.406616,231.352600 191.381592,231.334091 
	C187.786285,228.676849 184.347946,229.227524 181.044662,232.454697 
	C180.471985,227.458130 184.593765,224.526474 188.789597,226.256256 
	C190.253357,226.859695 191.522247,227.935745 192.893829,229.111252 
z"/>
<path fill="#414449" opacity="1.000000" stroke="none" 
	d="
M184.982040,240.760376 
	C183.182541,240.598114 181.736404,240.416946 180.290268,240.235794 
	C180.291504,239.942337 180.292740,239.648865 180.293961,239.355408 
	C187.274551,238.893265 194.255142,238.431137 201.235733,237.968994 
	C201.265823,238.893173 201.295898,239.817337 201.325989,240.741501 
	C195.995789,240.741501 190.665604,240.741501 184.982040,240.760376 
z"/>
<path fill="#45454A" opacity="1.000000" stroke="none" 
	d="
M402.241211,219.399109 
	C405.532562,215.478027 408.743378,211.483582 412.188263,207.702423 
	C412.820587,207.008377 414.403534,207.180435 415.547699,206.952744 
	C415.854675,207.427887 416.161652,207.903030 416.468628,208.378174 
	C412.252533,212.270004 408.036438,216.161835 403.252441,219.913269 
	C402.536774,219.648300 402.389008,219.523712 402.241211,219.399109 
z"/>
<path fill="#4B4B4D" opacity="1.000000" stroke="none" 
	d="
M395.158478,227.164612 
	C393.295349,229.214401 391.432251,231.264191 388.675568,234.297089 
	C388.485413,229.022003 390.313019,227.208527 394.300201,226.771240 
	C394.921051,226.927979 395.039764,227.046295 395.158478,227.164612 
z"/>
<path fill="#545456" opacity="1.000000" stroke="none" 
	d="
M182.093811,298.121643 
	C178.536072,298.348907 174.978333,298.576202 171.222275,298.282593 
	C171.023956,297.761719 171.114243,297.343994 171.114243,297.343994 
	C174.406387,297.336121 177.698547,297.328247 181.474197,297.531982 
	C181.957703,297.743652 182.093811,298.121643 182.093811,298.121643 
z"/>
<path fill="#4B4B4D" opacity="1.000000" stroke="none" 
	d="
M394.624329,226.632065 
	C396.004791,225.043823 397.563263,223.633179 399.121704,222.222519 
	C399.534027,222.683014 399.946320,223.143494 400.358612,223.603989 
	C398.858398,224.749420 397.358154,225.894867 395.508209,227.102448 
	C395.039764,227.046295 394.921051,226.927979 394.624329,226.632065 
z"/>
<path fill="#404145" opacity="1.000000" stroke="none" 
	d="
M141.191650,242.429718 
	C139.536026,242.761169 137.781586,242.943390 136.027145,243.125595 
	C136.001740,242.843903 135.976334,242.562195 135.950928,242.280487 
	C137.664902,242.280487 139.378876,242.280487 141.191650,242.429718 
z"/>
<path fill="#545456" opacity="1.000000" stroke="none" 
	d="
M146.106232,242.449371 
	C146.518707,241.755951 147.360031,241.178696 148.201355,240.601425 
	C148.405304,241.023911 148.609253,241.446396 148.813217,241.868896 
	C148.053833,242.101105 147.294449,242.333313 146.106232,242.449371 
z"/>
<path fill="#3B3B40" opacity="1.000000" stroke="none" 
	d="
M170.936890,297.275146 
	C171.114243,297.343994 171.023956,297.761719 170.948715,297.961761 
	C170.532974,297.906616 170.192490,297.651398 169.851990,297.396210 
	C170.154510,297.332916 170.457031,297.269592 170.936890,297.275146 
z"/>
<path fill="#3B3B40" opacity="1.000000" stroke="none" 
	d="
M248.308075,231.741837 
	C248.298233,231.562424 248.417007,231.410568 248.535782,231.258728 
	C248.502747,231.428940 248.469711,231.599167 248.308075,231.741837 
z"/>
<path fill="#3B3B40" opacity="1.000000" stroke="none" 
	d="
M182.251740,298.049316 
	C182.093811,298.121643 181.957703,297.743652 181.922623,297.545898 
	C182.156250,297.356140 182.424957,297.364136 182.693665,297.372131 
	C182.598999,297.573761 182.504333,297.775391 182.251740,298.049316 
z"/>
<path fill="#45454A" opacity="1.000000" stroke="none" 
	d="
M402.905731,219.960373 
	C402.778442,220.343124 402.430023,220.538376 402.081573,220.733627 
	C402.043762,220.394730 402.005920,220.055847 402.104675,219.558029 
	C402.389008,219.523712 402.536774,219.648300 402.905731,219.960373 
z"/>
</svg>