<svg version="1.1" id="Layer_1" xmlns="http://www.w3.org/2000/svg" xmlns:xlink="http://www.w3.org/1999/xlink" x="0px" y="0px"
	 width="100%" viewBox="0 0 1024 1024" enable-background="new 0 0 1024 1024" xml:space="preserve">
<path fill="#000000" opacity="1.000000" stroke="none" 
	d="
M218.652618,150.610748 
	C241.814438,133.266220 267.356964,124.277390 296.126221,124.687340 
	C338.823669,125.295784 379.905426,153.447357 394.711975,193.487915 
	C402.106903,213.485474 402.750244,233.865662 393.010406,253.660858 
	C382.745300,274.523590 365.289154,284.459320 342.750183,286.145294 
	C334.796906,286.740204 326.759003,286.220490 318.759827,286.182831 
	C286.204956,286.029602 268.607605,298.482239 258.481812,329.494629 
	C252.770142,346.987885 249.773483,365.070679 249.346130,383.472870 
	C249.017380,397.629578 248.555389,411.848694 249.472458,425.954254 
	C251.039932,450.063721 255.949142,473.514038 268.951965,494.396088 
	C279.077698,510.657532 292.960388,521.443542 313.078613,522.117310 
	C325.498352,522.533203 336.545532,517.717102 347.560669,513.043701 
	C374.007355,501.823120 401.092987,492.631256 429.373016,487.401703 
	C485.100433,477.096588 536.937927,487.190186 584.965332,517.386841 
	C605.444641,530.263000 623.018188,546.493286 640.269653,563.212402 
	C660.241272,582.567810 678.838867,603.421753 700.631836,620.801331 
	C736.605164,649.489441 775.997803,672.024292 821.666504,680.816345 
	C850.105591,686.291443 878.405823,685.155884 904.498108,669.774231 
	C910.653381,666.145752 917.229736,663.212402 923.694641,660.131775 
	C941.823730,651.492920 957.989258,661.400574 957.178894,681.461731 
	C956.193298,705.858643 945.845337,726.714172 929.946228,744.905945 
	C907.776184,770.272949 878.286194,781.010376 846.188171,786.269714 
	C813.089539,791.692993 779.843018,790.789856 746.540283,788.481445 
	C715.268188,786.313782 684.410645,781.191895 653.543884,776.103333 
	C649.788513,775.484192 648.653992,776.435425 647.994812,780.053284 
	C646.171509,790.060669 644.690308,800.018616 644.875000,810.273315 
	C645.244080,830.766357 645.271179,851.269470 645.132385,871.766418 
	C645.048035,884.221985 641.197449,895.363953 631.753357,904.030151 
	C623.370972,911.722107 612.889709,913.876282 602.113220,914.082275 
	C582.122803,914.464600 562.119263,914.320068 542.123291,914.149780 
	C536.657471,914.103333 531.157288,913.507263 525.793091,912.214600 
	C516.104187,909.879761 508.869843,904.156921 504.774658,895.231995 
	C502.777313,890.879028 500.203796,889.917419 495.926941,890.013062 
	C485.932953,890.236328 475.917725,890.377258 465.933807,889.980408 
	C450.685883,889.374268 448.176300,890.355042 436.552856,880.206726 
	C436.240173,881.037109 435.844116,881.757996 435.697571,882.526428 
	C432.192078,900.913147 419.653809,913.290710 396.913879,913.929688 
	C372.299622,914.621338 347.594788,916.120117 323.043793,913.110291 
	C311.790375,911.730713 302.462677,906.274048 297.551117,895.367676 
	C295.806763,891.494324 293.490082,890.036682 289.185211,890.078247 
	C278.033722,890.186157 266.876343,889.789124 255.722534,889.540222 
	C234.032913,889.056091 221.624283,873.123291 227.346161,852.140320 
	C232.072647,834.807617 237.624985,817.701355 240.161148,799.845093 
	C242.732590,781.740295 246.822556,763.886353 249.014664,745.713257 
	C249.389236,742.607910 248.624344,740.967163 246.138397,739.165100 
	C217.677338,718.532959 191.692062,695.247437 169.911407,667.491821 
	C149.651138,641.673584 134.766479,613.051208 124.020844,582.058838 
	C111.370865,545.573914 106.685608,508.048645 106.449013,469.608154 
	C106.292015,444.100647 106.234665,418.633179 108.998657,393.273499 
	C112.049202,365.284760 117.687805,337.778320 125.061508,310.579895 
	C134.629669,275.287018 148.590958,241.945465 167.611343,210.727112 
	C181.391617,188.109436 197.179703,167.176361 218.652618,150.610748 
M734.545532,682.039551 
	C726.282532,677.032654 717.896545,672.216492 709.778992,666.983948 
	C682.994080,649.718567 659.991699,628.037659 637.735474,605.416748 
	C615.888916,583.212280 594.164612,560.803223 567.473511,544.103516 
	C538.755920,526.135864 507.670807,516.112244 473.655487,515.310303 
	C445.230591,514.640198 418.163605,520.821838 391.615570,530.338135 
	C372.972260,537.020935 354.846863,545.147461 335.643036,550.277893 
	C301.867737,559.301208 269.752258,548.460999 248.716553,520.434082 
	C228.454178,493.437531 220.824829,462.012482 218.990891,429.148071 
	C217.898712,409.575989 217.694611,389.848755 219.663116,370.230743 
	C221.661163,350.318115 224.663651,330.568787 231.769012,311.762878 
	C240.367844,289.004242 254.284225,271.024231 278.275208,262.725800 
	C279.321533,262.363892 280.608795,262.214386 281.030396,260.561066 
	C280.063690,259.393982 279.040131,258.108521 277.964325,256.868378 
	C273.884949,252.165817 270.595764,246.961609 268.492401,241.105560 
	C266.207397,234.743835 268.468231,228.487091 273.666046,226.074951 
	C279.208435,223.502899 283.790161,225.342422 287.666870,231.842575 
	C289.372986,234.703247 290.970795,237.573593 293.380005,239.978760 
	C307.403198,253.978226 324.593079,258.009399 343.507050,255.155746 
	C356.763489,253.155685 365.185333,244.509964 367.654938,232.359711 
	C370.112305,220.269714 368.285736,208.679779 362.593109,197.950699 
	C342.855103,160.749908 296.540649,145.874527 257.337372,164.095078 
	C236.534393,173.763687 221.136795,189.958893 207.630188,207.992157 
	C184.600601,238.739990 168.659714,273.052856 157.624146,309.705566 
	C148.344482,340.526245 141.566422,371.928772 138.570587,403.980133 
	C136.090485,430.513916 135.573730,457.140594 137.089050,483.822510 
	C138.538788,509.349274 142.286804,534.390076 149.316910,558.983276 
	C159.200684,593.559448 174.996597,625.019836 198.063705,652.697083 
	C224.907425,684.905762 257.024536,710.896362 292.803406,732.497864 
	C297.964539,735.613953 303.042725,739.015503 309.445190,741.369751 
	C309.067261,738.273193 308.782318,736.007019 308.516052,733.738647 
	C308.225647,731.264832 307.699860,728.787048 307.719208,726.314392 
	C307.777466,718.887512 312.684967,712.987854 319.627655,711.688843 
	C326.397095,710.422241 332.147949,713.645996 335.207703,720.509644 
	C337.193176,724.963562 338.221436,729.607971 338.338196,734.533569 
	C339.101105,766.720886 336.605469,798.771240 334.559143,830.846619 
	C334.129883,837.575012 334.496704,844.354187 334.496704,851.182983 
	C336.904541,851.532288 339.423645,851.645508 341.801666,852.283936 
	C356.406494,856.205200 364.727448,866.323669 368.957367,880.309937 
	C369.590149,882.402283 369.608948,884.719849 372.678650,884.658752 
	C380.492737,884.503174 388.351654,885.468323 396.110168,883.962708 
	C404.266144,882.379822 407.813110,878.079712 407.858307,869.751709 
	C407.927948,856.919983 408.175690,844.079041 407.792603,831.258667 
	C407.541290,822.849365 409.552032,815.146057 412.651764,807.509888 
	C414.526855,802.890686 416.282104,798.188660 417.620728,793.392517 
	C421.154602,780.730774 424.400146,767.988770 427.829132,755.297363 
	C428.975037,751.056091 430.784821,747.118286 434.376740,744.333496 
	C438.683014,740.994751 444.727783,740.671875 449.416595,743.415161 
	C454.417084,746.340820 458.133087,754.358521 456.901825,760.284851 
	C455.413055,767.450562 453.589600,774.546082 451.981323,781.687866 
	C450.714142,787.314941 451.186798,787.928162 456.969360,788.625793 
	C470.750854,790.288513 484.539429,790.033569 498.347137,788.915039 
	C501.230377,788.681519 502.353149,787.418152 502.799896,784.660767 
	C503.943481,777.602722 505.146515,770.541870 506.698547,763.565125 
	C509.445129,751.218445 512.068054,738.761902 518.249268,727.555725 
	C523.688416,717.694885 536.138550,717.467041 542.507996,726.747009 
	C546.198364,732.123657 545.849182,737.723572 543.837219,743.454285 
	C540.249023,753.674500 537.082458,764.002380 534.838135,774.616760 
	C531.444824,790.665955 528.602722,806.642822 534.295593,822.836792 
	C536.443848,828.947815 538.377319,835.226624 539.473206,841.590027 
	C540.632507,848.321533 543.113098,851.277588 550.607849,852.777100 
	C564.934753,855.643677 572.993896,866.522705 576.837280,880.160828 
	C577.916992,883.992004 579.538696,884.855286 582.982544,884.734802 
	C587.975769,884.559998 592.980469,884.747559 597.979370,884.694702 
	C609.934509,884.568298 614.922668,879.520691 614.908508,867.515015 
	C614.882751,845.683899 614.789246,823.852722 614.785889,802.021606 
	C614.785461,799.372375 615.064270,796.710510 615.387756,794.075928 
	C617.359131,778.022705 621.253296,762.343933 624.925476,746.636597 
	C627.082520,737.409668 629.580933,728.230469 632.542969,719.232971 
	C635.499512,710.251953 641.746887,706.349304 649.389832,707.695129 
	C656.370972,708.924438 662.005676,716.654114 661.799988,724.931946 
	C661.673645,730.014404 659.233521,734.552490 657.960876,739.363831 
	C656.827332,743.649292 658.221924,745.012695 662.217224,745.630493 
	C693.471497,750.463135 724.712341,755.501160 756.270325,757.844421 
	C787.729980,760.180359 819.195557,760.416138 850.260864,753.655457 
	C879.891296,747.207092 904.295471,733.113098 919.018311,705.347473 
	C920.396729,702.747925 922.002686,700.228088 922.202637,697.164185 
	C920.742981,696.619995 919.806702,697.428833 918.847412,697.990845 
	C886.640198,716.858704 851.860291,718.688171 816.203796,712.758911 
	C787.303406,707.953186 760.688049,696.543030 734.545532,682.039551 
M304.818481,815.644836 
	C305.575775,803.363403 306.229950,791.073975 307.170837,778.806641 
	C307.377686,776.110107 306.456635,774.881348 304.201538,773.869690 
	C296.147675,770.256409 288.302673,766.232361 280.819580,761.527161 
	C280.126770,761.091553 279.327606,760.774719 278.470856,761.212097 
	C277.387268,761.987915 277.419037,763.203186 277.214111,764.340576 
	C273.530670,784.785034 270.022247,805.264099 266.006287,825.643127 
	C265.097473,830.254883 266.146729,831.657898 270.524353,832.632446 
	C284.828796,835.816895 294.422302,846.810852 296.333893,861.503357 
	C296.454315,862.428772 296.238647,863.613525 298.216797,863.778198 
	C300.209778,860.907715 301.086975,857.385071 301.718872,853.847778 
	C303.918152,841.536194 304.544220,829.083862 304.818481,815.644836 
M507.325653,839.085571 
	C505.909973,833.959167 504.381439,828.860046 503.130737,823.693665 
	C502.581757,821.426086 501.697083,820.183655 499.187042,820.191101 
	C490.199310,820.217773 481.211273,820.118469 472.223267,820.096558 
	C470.714539,820.092834 469.257416,820.179077 468.548492,821.979370 
	C466.478455,827.236023 469.542908,833.503174 474.806061,835.007019 
	C477.021729,835.640076 479.206512,836.575989 481.212830,837.713684 
	C490.401733,842.924438 495.965302,850.921143 498.677155,861.013000 
	C499.269409,863.217102 499.962891,864.963074 502.868469,864.989868 
	C505.864960,865.017456 506.651031,863.312866 507.674774,860.980957 
	C510.802612,853.856384 510.705505,846.882874 507.325653,839.085571 
M554.951721,884.103760 
	C555.124634,878.454834 548.960876,872.087952 542.722290,871.471191 
	C537.165466,870.921753 532.033997,876.422241 531.044434,884.462524 
	C538.826050,884.462524 546.558899,884.462524 554.951721,884.103760 
M327.144745,874.628296 
	C325.390228,876.477417 324.294556,878.714294 323.564056,881.107117 
	C323.011810,882.916016 323.265869,884.588135 325.651367,884.610413 
	C332.286957,884.672546 338.924072,884.656189 345.559631,884.583557 
	C347.243225,884.565125 347.789856,883.489929 347.476166,881.852844 
	C345.970154,873.993530 334.457672,869.483093 327.144745,874.628296 
M258.985535,864.652588 
	C264.183411,864.652588 269.381287,864.652588 274.821930,864.652588 
	C274.150848,859.032837 271.598328,856.066223 268.217102,853.759705 
	C265.561615,851.948242 262.618561,851.438965 259.805115,853.436218 
	C256.724213,855.623413 255.566574,858.925049 255.336426,862.520020 
	C255.225189,864.257446 256.687012,864.585510 258.985535,864.652588 
M468.604584,853.990906 
	C462.673584,853.336243 459.305634,856.758362 458.761780,864.654297 
	C464.912354,865.082397 471.007935,865.286377 477.465637,864.473572 
	C476.133514,859.287903 473.439484,856.166321 468.604584,853.990906 
M438.610992,823.811096 
	C437.804199,827.412659 436.650482,830.990540 437.744690,835.611633 
	C439.110260,831.139771 438.905487,827.392395 438.610992,823.811096 
z"/>
<path fill="#000000" opacity="1.000000" stroke="none" 
	d="
M293.994690,207.310791 
	C285.361084,206.150085 279.197021,202.348343 276.625366,194.029999 
	C274.357544,186.694443 276.868134,180.572021 281.951080,175.420883 
	C286.802277,170.504669 293.868591,169.332214 299.890961,171.969925 
	C306.758087,174.977631 311.514099,182.440201 311.279877,189.840134 
	C311.058685,196.827744 305.840057,203.789886 298.771179,206.366959 
	C297.390045,206.870453 295.874176,207.004486 293.994690,207.310791 
z"/>
</svg>