<?xml version="1.0" standalone="no"?>
<!DOCTYPE svg PUBLIC "-//W3C//DTD SVG 20010904//EN"
 "http://www.w3.org/TR/2001/REC-SVG-20010904/DTD/svg10.dtd">
<svg version="1.0" xmlns="http://www.w3.org/2000/svg"
 width="1024.000000pt" height="1024.000000pt" viewBox="0 0 1024.000000 1024.000000"
 preserveAspectRatio="xMidYMid meet">

<g transform="translate(0.000000,1024.000000) scale(0.100000,-0.100000)"
fill="#000000" stroke="none">
<path d="M6860 7253 c-70 -6 -203 -30 -345 -65 -223 -53 -1009 -280 -1035
-298 -14 -9 -158 -54 -320 -99 -410 -115 -889 -253 -1255 -362 -170 -50 -371
-109 -445 -130 -74 -20 -148 -43 -165 -50 -16 -6 -91 -15 -165 -19 -132 -7
-143 -9 -455 -100 -176 -51 -337 -97 -357 -102 -23 -6 -52 -26 -73 -49 -31
-34 -46 -42 -118 -59 -45 -11 -107 -20 -137 -20 -76 0 -128 -17 -163 -52 -32
-31 -66 -44 -277 -101 -69 -19 -216 -60 -328 -92 -184 -52 -206 -61 -235 -92
-18 -19 -46 -40 -63 -48 -18 -7 -50 -29 -72 -49 -74 -67 -72 -55 -72 -515 l0
-412 34 -87 c19 -48 70 -167 115 -265 45 -98 81 -187 81 -198 0 -16 7 -19 53
-19 41 0 55 -4 65 -20 10 -16 23 -20 65 -20 51 0 54 -1 71 -36 l17 -36 -53 6
c-29 3 -140 11 -247 17 -185 12 -194 11 -207 -6 -16 -22 -17 -25 -5 -44 7 -10
61 -19 198 -32 103 -10 276 -27 383 -39 107 -11 265 -27 350 -35 85 -9 236
-24 335 -35 99 -11 203 -22 230 -25 28 -2 199 -20 380 -39 182 -20 445 -47
585 -61 550 -55 755 -76 1010 -105 146 -17 328 -37 405 -45 77 -8 214 -24 305
-35 91 -11 271 -31 400 -46 129 -14 413 -45 630 -70 217 -24 499 -56 625 -69
232 -25 667 -79 935 -116 80 -11 258 -33 395 -49 138 -16 394 -47 570 -69 892
-112 824 -105 846 -85 24 21 25 56 2 77 -18 16 -71 23 -818 112 -165 19 -347
42 -405 51 -58 8 -163 21 -235 30 -71 8 -137 16 -145 17 -8 2 179 6 415 11
436 7 619 1 1032 -37 77 -7 140 -9 151 -4 45 20 45 89 0 106 -30 10 -870 79
-1308 107 -58 4 -111 10 -118 13 -9 5 -2 21 27 58 l40 50 188 6 c103 3 258 16
343 27 178 24 390 68 406 84 7 6 23 52 37 101 37 129 53 164 80 169 12 3 72
13 132 22 61 9 120 23 133 30 l22 15 -2 302 -3 302 -119 3 -118 3 5 27 c22
102 28 136 38 212 7 50 9 143 6 225 -7 189 -46 336 -154 581 -102 233 -158
333 -324 584 -237 356 -462 615 -669 772 -124 94 -361 215 -492 252 -223 64
-427 86 -638 69z m605 -214 c35 -31 65 -77 65 -99 0 -5 -21 -10 -49 -10 -43 0
-51 4 -73 33 -43 55 -51 76 -37 93 19 23 56 16 94 -17z m-1137 -129 c95 -26
196 -78 269 -136 32 -26 63 -50 68 -55 6 -4 46 1 90 12 44 10 150 31 235 46
141 25 177 27 410 27 319 0 500 -25 680 -93 132 -50 104 -61 -57 -22 -247 59
-303 65 -608 65 -242 1 -298 -2 -415 -22 -232 -38 -364 -62 -393 -72 -23 -8
-36 -3 -91 31 -103 64 -215 101 -329 107 -54 2 -96 8 -95 12 5 14 139 120 152
120 6 0 44 -9 84 -20z m-440 -253 l-33 -66 -75 -16 c-161 -35 -1097 -263
-1355 -330 -65 -17 -1017 -248 -1150 -280 -88 -20 -324 -77 -525 -126 -838
-205 -1033 -253 -1485 -361 -291 -69 -369 -87 -373 -83 -7 6 33 54 53 64 11 6
153 45 315 87 162 41 408 105 545 140 352 92 730 188 1570 399 402 101 816
206 922 234 106 28 468 120 805 204 763 191 812 203 816 201 2 -1 -12 -31 -30
-67z m412 28 c53 -17 139 -57 227 -106 l41 -23 94 22 c51 12 96 22 100 22 10
0 154 -195 328 -445 194 -277 229 -318 337 -399 287 -216 713 -321 1008 -248
97 25 180 59 223 92 39 31 99 115 107 150 4 16 10 30 14 30 11 0 124 -239 161
-339 l31 -84 -33 -34 c-18 -19 -63 -59 -99 -89 -89 -73 -121 -121 -127 -189
-4 -44 0 -62 21 -100 l26 -45 -22 -15 c-44 -28 -154 -73 -212 -86 -36 -8 -118
-13 -205 -12 -158 1 -225 14 -375 72 -112 43 -111 43 -95 81 17 42 16 110 -4
147 -18 36 -69 82 -129 118 -56 32 -246 117 -394 175 -106 41 -113 46 -130 84
-27 60 -233 356 -357 512 -253 318 -424 455 -638 511 -60 15 -69 16 -82 3 -10
-11 -16 -75 -25 -235 -14 -277 -14 -305 2 -309 153 -45 283 -101 478 -207 80
-43 155 -79 167 -79 23 0 62 44 62 69 0 35 -113 187 -287 386 -47 53 -69 85
-65 97 2 10 10 18 17 18 20 0 209 -202 324 -345 107 -132 301 -416 301 -439 0
-7 -9 -21 -20 -31 -25 -23 -27 -83 -4 -128 31 -59 242 -321 339 -422 28 -28
45 -55 45 -69 0 -13 9 -77 20 -142 11 -64 19 -119 17 -120 -2 -2 -266 -8 -588
-13 -321 -6 -639 -13 -706 -16 l-122 -5 -36 77 c-53 113 -101 264 -119 373
-34 202 -36 273 -21 600 49 1045 46 1014 86 1093 37 72 32 70 154 64 60 -3
135 -13 165 -22z m1127 -50 c162 -6 471 -29 528 -41 98 -19 101 -21 162 -107
137 -192 336 -508 325 -519 -19 -19 -47 2 -87 65 -103 162 -291 440 -319 472
l-31 35 -165 16 c-91 8 -269 21 -397 28 -232 12 -263 18 -263 52 0 10 11 12
43 9 23 -2 115 -7 204 -10z m-1591 -456 c-44 -962 -45 -1044 -6 -1269 25 -144
46 -212 100 -327 l39 -83 -45 -2 c-104 -4 -93 -10 -158 87 l-61 90 -95 0 -95
0 -23 65 c-63 175 -69 277 -43 740 11 206 25 479 31 605 6 127 13 253 16 281
l5 51 172 40 c95 21 173 39 175 38 1 -1 -4 -143 -12 -316z m-432 169 c-16
-176 -49 -983 -49 -1198 0 -229 3 -274 19 -335 24 -90 78 -223 112 -276 21
-33 23 -43 12 -50 -7 -5 -150 -9 -318 -9 -168 0 -328 -3 -355 -6 l-51 -6 -46
98 c-81 175 -83 184 -82 404 0 107 5 269 12 360 6 91 21 327 33 525 11 198 24
363 28 367 3 4 71 23 151 43 320 79 506 123 521 124 13 1 16 -7 13 -41z m-778
-190 c-3 -24 -13 -146 -21 -273 -8 -126 -24 -378 -36 -560 -23 -357 -21 -532
6 -630 9 -33 36 -102 60 -154 25 -51 45 -95 45 -97 0 -2 -51 -4 -113 -4 l-114
0 -50 118 c-28 64 -57 137 -64 162 -19 66 -14 293 15 690 14 190 30 426 37
525 6 99 15 189 19 200 5 15 28 25 91 41 46 12 94 22 107 23 22 1 23 -2 18
-41z m-308 -185 c-10 -195 -34 -548 -55 -803 -22 -274 -23 -429 -1 -501 14
-44 50 -128 96 -221 2 -5 -44 -8 -102 -8 l-106 0 -31 68 c-95 205 -109 283
-85 483 9 74 25 269 35 434 33 497 44 633 51 645 7 11 189 60 200 54 3 -1 2
-69 -2 -151z m-304 -108 c-7 -104 -25 -345 -40 -535 -46 -599 -45 -619 31
-785 19 -43 34 -79 33 -80 -2 -1 -327 -7 -723 -14 -396 -6 -873 -16 -1060 -21
-187 -5 -448 -12 -581 -15 l-240 -6 -33 69 c-55 121 -57 145 -37 484 22 381
27 454 35 467 7 10 323 89 791 196 129 30 406 95 615 145 315 76 718 170 1145
270 41 9 76 17 76 16 1 -1 -4 -86 -12 -191z m-2685 -555 c-22 -275 -37 -658
-28 -717 5 -35 22 -93 39 -129 16 -37 30 -68 30 -70 0 -2 -17 -4 -37 -4 l-38
0 -37 89 -38 89 0 189 c0 185 14 498 26 600 6 49 8 52 43 61 20 5 39 6 42 3 3
-3 2 -53 -2 -111z m-133 -67 c-4 -82 -11 -251 -18 -377 -13 -284 -9 -328 38
-412 l36 -65 -38 3 c-38 3 -40 5 -81 87 -43 83 -43 84 -43 195 0 109 26 610
36 673 3 23 11 33 27 36 52 10 50 17 43 -140z m-131 -25 c-4 -79 -13 -244 -20
-368 -14 -242 -9 -315 25 -394 11 -26 20 -52 20 -57 0 -5 -36 -9 -81 -9 l-80
0 -32 68 -32 67 -3 393 c-2 352 -1 393 13 399 20 7 165 41 183 42 11 1 13 -25
7 -141z m6339 -64 c37 -42 66 -84 64 -93 -7 -36 -36 -19 -102 59 -57 67 -66
83 -56 95 7 8 16 15 20 15 4 0 38 -34 74 -76z m291 -38 c98 -41 78 -196 -26
-196 -96 0 -138 123 -64 188 30 26 44 27 90 8z m1268 -12 c46 -46 48 -124 5
-164 -56 -52 -158 5 -158 88 0 90 93 136 153 76z m-1158 -292 c97 -59 251
-104 419 -122 208 -24 467 31 590 123 17 13 24 12 61 -4 23 -10 67 -21 98 -25
68 -8 67 -7 34 -154 l-22 -95 -91 -3 -92 -3 -10 31 c-6 16 -22 41 -36 55 l-25
25 -413 0 c-460 0 -438 3 -479 -70 l-23 -40 -113 0 c-109 0 -113 1 -117 23
-12 55 -36 204 -36 218 0 13 14 17 73 21 39 3 86 12 102 21 38 21 44 21 80 -1z
m-2088 -267 c12 -22 23 -43 23 -47 0 -5 -30 -8 -68 -8 l-67 0 -23 43 c-12 23
-22 46 -22 50 0 4 30 7 67 5 67 -3 68 -3 90 -43z m2085 -132 c1 -4 1 -107 -2
-227 l-5 -219 -130 -54 c-194 -80 -433 -163 -450 -157 -55 21 -348 634 -313
655 16 10 896 12 900 2z m1356 0 l82 -6 0 -208 c0 -114 -4 -210 -8 -213 -5 -3
-72 -8 -150 -12 l-142 -7 0 220 c0 121 3 223 7 226 8 9 103 9 211 0z m-2294
-198 c88 -204 159 -348 224 -459 23 -39 40 -72 37 -74 -2 -2 -96 -1 -208 3
-189 7 -205 9 -216 27 -7 12 -55 95 -106 187 -51 91 -139 240 -194 331 l-100
165 57 6 c31 3 140 5 240 5 l184 -1 82 -190z m1814 8 l-3 -188 -227 -3 -228
-2 0 190 0 190 230 0 230 0 -2 -187z m-2638 127 l21 -30 -582 0 c-542 0 -583
1 -595 18 -7 9 -14 20 -14 24 0 10 142 13 682 16 l467 2 21 -30z m-2001 -7
c12 -14 20 -27 18 -29 -1 -2 -578 -6 -1280 -10 -1152 -6 -1277 -6 -1277 8 0
23 104 26 1255 38 1002 11 1188 14 1237 18 18 1 33 -6 47 -25z m-2928 -69 c17
-37 19 -56 13 -97 -4 -29 -6 -67 -5 -84 2 -31 1 -33 -31 -33 -32 0 -34 2 -56
73 -13 39 -25 78 -28 85 -4 8 7 12 39 12 42 0 44 1 40 25 -5 22 -11 24 -61 27
-45 2 -58 7 -60 21 -3 15 5 17 63 17 l66 0 20 -46z m179 -64 c10 -19 21 -20
189 -20 l179 0 10 -30 c9 -26 8 -31 -9 -41 -17 -8 -20 -19 -17 -62 3 -48 5
-52 31 -55 19 -2 27 -9 27 -22 0 -18 -8 -19 -167 -13 -93 3 -170 7 -172 9 -2
2 -1 10 3 19 5 14 23 16 126 13 l121 -3 -3 70 -3 70 -175 2 c-166 2 -174 3
-182 22 -4 12 -16 21 -28 21 -19 0 -27 19 -13 33 3 4 21 7 39 7 23 0 37 -6 44
-20z m500 -172 c0 -70 -2 -78 -19 -78 -17 0 -19 6 -14 59 5 57 4 61 -26 91
-21 22 -31 41 -31 63 l0 31 45 -44 45 -44 0 -78z m477 67 c12 -49 25 -102 28
-117 l7 -28 -110 0 c-76 0 -112 4 -119 13 -5 6 -17 48 -26 92 -10 44 -20 90
-23 102 -6 21 -2 22 57 26 35 2 87 3 114 3 l50 -1 22 -90z m1517 75 l61 0 34
-155 c19 -85 32 -157 29 -160 -5 -6 -390 13 -396 20 -6 6 -62 266 -62 289 0
18 5 19 137 13 75 -4 164 -7 197 -7z m793 0 c50 0 53 -2 67 -34 l14 -33 118
-6 c66 -4 256 -9 424 -12 168 -3 333 -8 366 -11 l62 -5 16 -58 c21 -75 20 -81
-9 -81 -25 0 -25 -1 -25 -85 l0 -85 40 0 40 0 0 -41 0 -42 -122 6 c-352 15
-615 29 -635 33 -18 3 -23 11 -23 34 0 29 1 30 43 25 23 -2 157 -9 297 -15
140 -6 265 -13 278 -16 22 -4 22 -4 22 129 l0 134 -167 6 c-93 4 -298 10 -458
13 -159 4 -301 10 -315 14 -19 5 -26 14 -28 38 -3 31 -4 32 -53 32 l-49 0 0
36 c0 33 2 36 23 30 12 -3 46 -6 74 -6z m-1703 -18 c2 -4 7 -24 11 -45 l7 -37
-40 0 c-43 0 -54 8 -70 58 l-11 32 49 0 c27 0 51 -3 54 -8z m206 -71 c27 -90
26 -93 -12 -89 -31 3 -34 6 -50 68 -10 36 -16 70 -14 75 2 6 15 11 29 13 24 2
28 -4 47 -67z m-609 -6 c7 -30 9 -58 5 -62 -13 -13 -35 23 -41 70 -6 39 -5 47
8 47 11 0 19 -17 28 -55z m-1251 25 c0 -5 -7 -10 -15 -10 -11 0 -15 -12 -15
-50 0 -27 -4 -50 -10 -50 -13 0 -13 35 1 83 5 21 16 37 24 37 8 0 15 -4 15
-10z m640 -86 c0 -49 -4 -74 -11 -72 -6 2 -10 7 -10 11 1 4 1 36 1 72 0 37 4
65 10 65 6 0 10 -32 10 -76z m4310 -216 l0 -128 -33 0 -34 0 -6 117 -6 117
-46 46 c-36 37 -45 53 -45 81 0 20 3 39 7 43 4 3 42 -28 85 -71 l78 -78 0
-127z m-4200 187 c0 -69 -3 -85 -15 -85 -12 0 -15 16 -15 85 0 69 3 85 15 85
12 0 15 -16 15 -85z m-662 48 c6 -20 -94 -17 -102 3 -5 13 3 15 46 12 30 -2
53 -8 56 -15z m3252 -53 c0 -4 3 -15 6 -24 5 -13 -1 -16 -25 -16 -27 0 -31 3
-31 28 0 16 3 32 6 35 8 8 44 -11 44 -23z m1868 -202 l2 -178 -35 0 -35 0 0
181 0 180 33 -3 32 -3 3 -177z m-1978 82 c0 -79 0 -80 -25 -80 -25 0 -25 1
-25 80 0 79 0 80 25 80 25 0 25 -1 25 -80z m1402 53 c16 -14 18 -33 18 -140
l0 -123 -35 0 -35 0 0 140 c0 124 2 140 17 140 9 0 25 -7 35 -17z m-1211 -33
l100 0 -3 -27 c-3 -27 -5 -28 -73 -31 -38 -1 -88 1 -110 6 -34 7 -40 12 -43
36 -3 23 0 28 13 22 9 -3 62 -6 116 -6z m-2913 -8 c46 -6 56 -11 74 -41 l21
-33 -59 6 c-32 3 -105 8 -161 12 -57 3 -103 8 -103 10 0 2 5 15 12 29 11 24
15 25 87 24 42 -1 100 -4 129 -7z m742 -42 c184 -11 499 -31 700 -44 201 -14
451 -30 555 -36 558 -31 544 -30 580 -54 27 -19 52 -24 142 -30 230 -14 225
-13 255 -62 l28 -45 -63 6 c-158 13 -348 28 -812 65 -554 44 -1788 151 -1793
155 -2 2 4 17 13 34 10 21 23 31 38 31 13 0 173 -9 357 -20z m6420 -48 c0 -4
-9 -35 -20 -69 l-21 -60 -726 -7 c-651 -7 -727 -6 -741 8 -9 8 -13 18 -10 22
4 3 64 27 135 52 l128 47 235 5 c387 10 1020 11 1020 2z m-3260 -218 c349 -28
316 -21 345 -66 15 -22 25 -41 23 -43 -2 -1 -156 10 -343 26 -187 16 -353 29
-370 29 l-29 0 37 38 c43 44 10 43 337 16z m951 -71 c-15 -50 -39 -97 -65
-125 -20 -22 -34 -28 -67 -28 l-41 0 50 48 c28 26 58 66 67 90 13 32 22 42 40
42 21 0 23 -3 16 -27z m409 -23 c347 -19 334 -17 360 -52 12 -16 20 -31 18
-33 -1 -1 -46 1 -98 5 -52 5 -208 16 -345 25 -137 9 -251 18 -254 20 -2 3 4
16 14 31 15 24 21 26 63 20 26 -3 135 -10 242 -16z"/>
<path d="M5635 6243 c-38 -8 -73 -19 -76 -25 -4 -6 -10 -66 -13 -132 -3 -67
-13 -258 -21 -425 -19 -360 -22 -346 79 -336 94 9 103 13 114 42 6 16 16 138
22 273 6 135 15 321 20 414 12 221 14 219 -125 189z"/>
<path d="M5282 5878 c-6 -8 -17 -145 -26 -348 -24 -514 -21 -608 24 -762 22
-72 35 -88 55 -67 11 12 9 30 -11 107 -35 138 -38 217 -23 563 21 484 19 552
-19 507z"/>
<path d="M4472 5849 c-36 -14 -49 -63 -56 -221 -4 -80 -13 -227 -21 -325 -14
-169 -13 -179 4 -203 24 -33 62 -37 86 -10 16 18 21 54 36 258 25 353 31 476
22 488 -12 17 -46 24 -71 13z"/>
<path d="M4183 5787 c-12 -5 -27 -24 -32 -41 -9 -27 -46 -452 -53 -596 -3 -89
17 -118 69 -99 46 17 50 38 71 379 12 195 17 331 11 341 -11 22 -39 28 -66 16z"/>
<path d="M3560 5685 c-30 -6 -138 -29 -240 -50 -102 -20 -193 -41 -202 -46
-27 -14 -35 -67 -47 -284 -15 -269 -14 -330 3 -344 14 -12 124 -4 485 35 41 4
61 13 82 33 31 32 30 25 54 373 21 316 20 319 -135 283z"/>
<path d="M2889 5551 c-36 -10 -132 -31 -213 -47 -119 -23 -151 -33 -162 -49
-9 -14 -19 -103 -29 -268 -15 -230 -15 -250 0 -273 14 -22 22 -25 53 -20 20 3
116 13 212 21 96 9 187 20 202 26 14 6 31 23 37 37 11 28 25 192 37 424 9 182
5 187 -137 149z"/>
<path d="M2230 5413 c-91 -19 -173 -42 -182 -50 -23 -21 -26 -38 -39 -277 -11
-198 -10 -209 7 -227 17 -16 27 -17 84 -9 36 5 108 12 160 15 124 8 147 18
160 64 5 20 16 133 24 251 14 229 11 263 -29 267 -11 1 -94 -14 -185 -34z"/>
<path d="M1801 5325 c-63 -14 -110 -30 -117 -39 -12 -17 -19 -92 -30 -316 -8
-171 -13 -166 144 -150 67 7 129 18 138 24 22 16 33 116 36 322 l3 179 -35 2
c-19 1 -82 -9 -139 -22z"/>
<path d="M1501 5264 c-36 -7 -69 -18 -74 -23 -22 -22 -46 -396 -27 -431 12
-22 16 -23 98 -17 51 4 91 12 99 20 10 9 16 66 23 193 6 98 12 193 14 209 8
66 -16 75 -133 49z"/>
<path d="M1244 4998 c-5 -112 -8 -209 -5 -216 2 -7 11 -12 20 -10 17 3 24 76
32 328 3 90 2 95 -18 98 -20 3 -21 -2 -29 -200z"/>
<path d="M1142 5187 c-10 -12 -31 -363 -24 -405 3 -15 10 -22 21 -20 20 4 28
81 30 285 1 136 -5 167 -27 140z"/>
<path d="M6510 4224 c0 -2 10 -20 22 -38 16 -25 32 -36 58 -40 41 -7 220 -8
220 -2 0 3 -9 21 -21 40 -20 35 -23 36 -82 37 -34 1 -92 3 -129 5 -38 1 -68 0
-68 -2z"/>
<path d="M2080 4140 c0 -36 34 -140 46 -140 18 0 18 2 -4 79 -10 36 -24 67
-30 69 -7 2 -12 -1 -12 -8z"/>
<path d="M2145 4119 c16 -73 31 -113 44 -117 14 -5 11 19 -13 102 -15 51 -41
64 -31 15z"/>
<path d="M2200 4142 c0 -28 33 -142 41 -142 12 0 12 0 -8 73 -16 60 -33 95
-33 69z"/>
<path d="M3520 4118 c0 -7 7 -52 16 -100 14 -74 19 -88 35 -88 15 0 18 5 14
23 -8 34 -35 168 -35 173 0 2 -7 4 -15 4 -8 0 -15 -6 -15 -12z"/>
<path d="M3615 4028 c17 -81 25 -104 40 -107 14 -2 17 1 12 20 -4 13 -14 61
-23 107 -13 65 -20 82 -34 82 -16 0 -16 -7 5 -102z"/>
<path d="M3691 4043 c27 -121 28 -123 50 -123 11 0 18 3 16 8 -3 4 -15 51 -27
105 -18 79 -25 97 -40 97 -17 0 -17 -4 1 -87z"/>
<path d="M3760 4118 c0 -7 4 -29 9 -48 5 -19 15 -61 21 -92 9 -47 15 -58 31
-58 23 0 23 -7 -4 110 -17 70 -28 96 -40 98 -9 2 -17 -2 -17 -10z"/>
<path d="M845 3739 c-11 -35 14 -47 120 -59 110 -12 366 -42 1330 -155 352
-42 766 -89 920 -106 154 -16 476 -52 715 -80 239 -27 550 -63 690 -79 586
-68 1829 -216 2259 -269 219 -28 329 -38 341 -31 24 13 31 45 14 68 -17 24
-60 32 -364 67 -124 14 -360 42 -525 61 -165 19 -372 43 -460 54 -88 11 -320
38 -515 60 -195 22 -607 69 -915 105 -308 35 -690 78 -850 95 -159 16 -353 37
-430 45 -198 21 -1519 168 -1890 210 -170 19 -338 35 -372 35 -54 0 -62 -3
-68 -21z"/>
</g>
</svg>
