<svg version="1.1" id="Layer_1" xmlns="http://www.w3.org/2000/svg" xmlns:xlink="http://www.w3.org/1999/xlink" x="0px" y="0px"
	 width="100%" viewBox="0 0 912 992" enable-background="new 0 0 912 992" xml:space="preserve">
<path fill="#000000" opacity="1.000000" stroke="none" 
	d="
M619.109009,833.140137 
	C587.941833,858.610779 554.335938,858.271179 519.322998,843.676270 
	C517.562805,845.626831 518.303589,847.668579 518.619995,849.513245 
	C523.062439,875.411926 528.256836,901.154419 535.396790,926.459961 
	C536.517883,930.433105 535.762573,932.033142 531.547485,932.890015 
	C506.046051,938.074158 480.405640,941.998352 454.297546,941.080872 
	C437.805908,940.501282 421.472961,938.429260 405.709229,933.151733 
	C401.273865,931.666748 397.055969,929.714905 393.004181,927.355164 
	C386.248474,923.420715 386.258057,923.486023 388.469543,915.747070 
	C392.142914,902.892212 393.521057,889.657471 394.644409,876.409302 
	C395.810944,862.651978 396.697357,848.870361 397.617706,835.093384 
	C397.747894,833.144409 398.072388,831.105835 397.172241,829.078430 
	C394.598541,828.597107 392.815063,830.408630 390.878723,831.466003 
	C360.961243,847.801208 331.592133,846.668823 302.812927,828.688232 
	C297.596436,825.429138 292.538849,821.835938 287.793671,817.928528 
	C284.206055,814.974426 280.880707,814.371521 276.405548,815.686096 
	C266.001129,818.742310 255.360748,820.487366 244.415329,820.361755 
	C223.339752,820.119812 206.151230,812.126099 193.906586,794.850647 
	C190.670105,790.284363 187.701736,789.378845 182.416046,790.452209 
	C144.438354,798.164795 112.001648,787.576721 85.074013,759.930359 
	C75.074791,749.664185 69.310921,736.969910 65.035210,723.473816 
	C63.804813,719.590149 66.175766,718.886597 68.884315,718.089111 
	C92.122398,711.246887 114.458725,702.182434 135.901199,690.907471 
	C153.328735,681.743713 170.030472,671.404480 186.072800,659.997070 
	C187.255112,659.156372 188.686264,658.470398 189.325073,656.170349 
	C172.537033,643.820740 158.490616,628.518860 146.425812,609.946411 
	C189.199234,598.498169 227.072510,578.767517 262.010651,550.980408 
	C231.424850,541.115295 207.984314,522.835449 187.165268,498.301514 
	C231.692795,486.962341 270.090881,465.566132 305.016083,434.551056 
	C277.509979,428.355988 256.979584,412.295441 236.236115,393.591919 
	C259.320831,387.060577 281.075470,379.576477 300.774292,367.314362 
	C320.489410,355.042053 338.314392,340.484558 355.161133,322.913727 
	C331.838623,316.683990 312.194244,305.011475 291.873962,294.404449 
	C293.389648,291.920807 295.345428,291.895660 297.012665,291.329315 
	C311.809601,286.302826 327.130310,282.768219 341.007294,275.160461 
	C368.938293,259.847870 390.627930,237.790863 409.193054,212.369675 
	C433.559998,179.003998 451.743011,142.451965 464.896454,103.341766 
	C465.425629,101.768326 466.082855,100.233009 466.772736,98.722092 
	C466.941833,98.351768 467.475281,98.147835 468.542297,97.330109 
	C470.828583,104.055618 473.091827,110.380852 475.134766,116.776443 
	C489.022888,160.254364 509.520630,200.189285 539.264099,235.009735 
	C557.627808,256.507935 579.198975,273.846039 606.824646,282.027557 
	C617.647217,285.232788 628.843933,287.176544 639.874878,289.674286 
	C641.470642,290.035645 643.169739,290.092285 644.893005,292.079956 
	C622.261780,304.988159 600.495422,319.152435 572.597656,322.551453 
	C590.680359,342.603058 610.536438,358.317261 633.037476,370.831451 
	C655.620422,383.391144 680.776184,387.706879 705.802856,394.053223 
	C678.555786,409.031708 653.102417,426.965210 622.616089,436.719849 
	C640.976807,452.726837 660.415955,465.924347 681.674622,476.481934 
	C702.831604,486.989044 725.622864,492.304108 749.520752,497.197571 
	C725.994202,522.582214 700.374329,543.017944 668.100647,555.876587 
	C686.622498,570.092651 705.963562,581.183777 726.477844,590.388123 
	C747.053284,599.620056 768.935913,604.449890 792.158691,609.506165 
	C782.351257,619.344116 774.104614,628.792175 764.822876,637.323364 
	C755.621460,645.780823 745.834351,653.353271 734.077881,659.574585 
	C755.388672,674.797729 777.413818,687.039490 800.609192,697.255066 
	C823.835388,707.484192 848.173889,714.114990 873.107117,719.063782 
	C872.960693,720.380554 873.094299,721.141724 872.790100,721.630371 
	C863.548096,736.472107 856.497192,752.620422 846.072754,766.748108 
	C834.951599,781.820007 820.723999,792.230408 801.744568,794.808960 
	C788.690002,796.582581 775.777283,795.174561 763.289124,791.086304 
	C758.822266,789.623901 756.279175,790.262390 753.238525,794.101562 
	C739.201050,811.825134 722.387634,825.790344 699.895264,831.688477 
	C678.380676,837.330139 657.876221,833.174744 638.007751,824.982910 
	C632.210999,822.592896 628.547668,822.968384 624.904419,827.870605 
	C623.444214,829.835388 621.249695,831.254517 619.109009,833.140137 
M301.843597,554.486145 
	C295.731964,555.725769 289.558533,555.222473 283.402313,555.115784 
	C276.352509,554.993774 271.143372,560.766357 272.234528,567.737061 
	C272.748352,571.019287 273.165222,574.426880 274.401062,577.462158 
	C276.749634,583.230408 275.790985,588.085022 271.908325,592.766724 
	C267.836060,597.677124 265.766266,603.364380 265.948120,609.842957 
	C266.126740,616.206543 263.587799,621.720398 259.262024,626.065247 
	C252.547531,632.809448 250.095963,640.937622 250.010208,650.086182 
	C249.903168,661.507629 257.419769,668.492615 268.725372,667.456543 
	C272.535675,667.107361 276.409485,666.921875 280.113525,666.058105 
	C286.709625,664.520081 292.425415,664.656128 296.898285,670.851135 
	C298.804657,673.491516 301.624329,675.548584 304.255890,677.576172 
	C316.753754,687.205261 330.679047,691.958679 346.647644,690.060425 
	C356.162109,688.929382 365.156372,685.983459 374.086243,682.806702 
	C376.880981,681.812439 379.104828,681.869446 381.591858,683.451904 
	C388.052063,687.562195 394.532806,691.653198 401.156891,695.490356 
	C414.996399,703.507202 429.668091,706.884399 445.739624,704.012085 
	C458.312988,701.764893 469.295197,695.905212 480.331543,690.112732 
	C483.720886,688.333862 486.382416,688.421326 489.652283,690.093323 
	C496.020782,693.349792 502.530853,696.340027 509.054749,699.279663 
	C524.515808,706.246338 540.134155,708.652161 556.359497,701.457397 
	C567.390259,696.566101 576.328064,688.896057 585.059204,680.929871 
	C587.507996,678.695618 589.322021,678.801941 592.073547,680.063904 
	C602.583618,684.884338 613.469604,687.932312 625.235657,688.188232 
	C645.562012,688.630249 659.981384,679.569885 669.445618,662.080261 
	C671.214783,658.810913 673.280884,657.538208 676.896118,657.653809 
	C688.930481,658.038696 700.743469,656.582947 712.475220,653.704956 
	C726.606628,650.238464 732.278931,636.849304 724.301270,624.673767 
	C723.074036,622.800903 721.756714,620.666199 722.346558,618.651794 
	C723.773438,613.778870 721.125183,610.601807 718.322754,607.559998 
	C714.130432,603.009705 709.966675,598.642273 704.342224,595.394104 
	C687.667419,585.764526 670.322021,577.052002 656.065125,563.696167 
	C654.331177,562.071838 652.363403,560.958801 649.730042,561.637207 
	C637.648804,564.749817 625.322571,564.669128 612.990540,564.196960 
	C610.332825,564.095154 608.256958,564.774048 606.141357,566.439087 
	C582.814575,584.797791 556.831604,589.355530 529.742920,577.478088 
	C516.914490,571.853271 506.352997,572.000732 494.049255,577.606018 
	C482.555725,582.842224 470.066467,585.517761 457.103455,584.624329 
	C442.200470,583.597168 429.135742,577.568115 416.640442,570.036560 
	C413.922943,568.398560 411.735535,568.205505 408.743286,569.206482 
	C398.784485,572.538269 388.653259,575.308105 378.003143,575.082886 
	C358.945129,574.679932 341.128021,569.521423 324.829071,559.835144 
	C317.803375,555.659851 311.267822,551.569397 301.843597,554.486145 
M532.077393,797.508301 
	C532.813477,797.118164 533.541687,796.712280 534.286865,796.340271 
	C546.606689,790.190491 560.294556,794.936340 566.720032,807.205994 
	C570.310608,814.062317 575.549377,819.362976 583.609253,820.860962 
	C598.277283,823.587036 611.787842,821.819580 622.856018,810.621277 
	C624.455139,809.003418 625.880188,807.098145 628.566101,806.950989 
	C638.793091,806.390259 642.866760,804.208496 644.837769,795.040955 
	C646.810059,785.867371 651.831604,778.877991 657.656616,772.324646 
	C664.339233,764.806396 670.785034,756.598083 681.976624,755.284790 
	C686.603088,754.741943 691.171753,753.677307 695.803040,753.211060 
	C701.768738,752.610535 708.113831,751.604065 713.650452,753.704407 
	C722.631226,757.111328 732.320557,757.009094 741.246887,760.406067 
	C743.997681,761.452820 747.988708,762.510803 749.493286,758.524658 
	C750.817688,755.015869 750.570435,751.266602 746.508789,748.985046 
	C744.644226,747.937744 742.042114,746.686157 742.366516,744.391479 
	C743.202759,738.476074 740.836487,732.433044 743.149414,726.665588 
	C744.452148,723.417236 743.970581,720.505920 742.273804,717.606506 
	C740.760559,715.020630 739.379883,712.356323 737.840027,709.787048 
	C734.536865,704.275574 734.912170,699.348511 739.045898,694.177368 
	C743.579956,688.505554 742.401367,682.475647 736.601013,678.126648 
	C731.805054,674.530701 726.895630,671.084656 722.136047,667.442139 
	C720.272827,666.016174 718.536499,665.486389 716.171631,666.123718 
	C705.688538,668.949036 694.976440,670.344055 684.135681,670.689880 
	C680.877686,670.793823 678.598206,672.028137 676.725708,674.811218 
	C671.463623,682.632324 665.010132,689.315308 656.615356,693.842773 
	C638.948364,703.370850 620.324524,703.730225 601.948669,697.351868 
	C593.240051,694.329041 587.645630,695.500488 580.719238,701.291138 
	C568.694397,711.344299 554.829529,717.873840 538.524048,718.514282 
	C523.238708,719.114746 509.573303,714.103088 496.583954,707.258972 
	C488.809692,703.162659 482.084229,701.348267 474.724152,707.290222 
	C473.349670,708.399841 471.442993,708.883118 469.739868,709.547607 
	C454.898773,715.337891 439.910919,720.119751 423.594696,717.199097 
	C409.352234,714.649719 396.841858,708.132324 385.035126,700.225708 
	C379.937408,696.811890 375.455811,695.582275 369.327087,697.819458 
	C338.892517,708.928894 311.756836,703.167908 288.254456,680.789978 
	C286.175476,678.810425 283.985413,678.847595 281.358246,679.245850 
	C271.141571,680.794312 260.890839,681.839600 250.536865,680.453369 
	C246.087082,679.857544 241.606857,679.366760 237.125092,679.157959 
	C228.335495,678.748352 224.407730,683.882812 227.356613,691.831543 
	C228.660736,695.346802 227.348511,698.021179 225.044754,700.429871 
	C221.372803,704.269165 220.060135,708.839661 219.919022,714.081848 
	C219.582291,726.589722 226.144012,736.180542 233.057114,745.538940 
	C235.810394,749.266174 240.064728,751.435913 244.013397,753.988464 
	C259.426147,763.951904 277.961121,766.476135 293.721741,775.586304 
	C304.175446,781.628845 316.360229,783.308777 327.502808,787.515564 
	C341.159576,792.671631 355.476624,793.133728 369.435547,795.901367 
	C384.859772,798.959534 399.503113,802.541870 410.247009,815.456299 
	C424.554596,832.654358 443.308289,837.367554 464.693787,833.034241 
	C476.170135,830.708801 487.032227,826.524719 497.462341,821.207642 
	C499.691986,820.071045 501.804352,819.278259 504.534943,820.524170 
	C514.550842,825.094421 525.525635,818.354858 526.019897,807.290833 
	C526.211243,803.007019 527.796509,799.961182 532.077393,797.508301 
M318.622101,539.922485 
	C326.635864,546.527100 335.330627,551.918518 345.130371,555.554138 
	C364.208740,562.632019 383.734436,566.550964 402.894806,557.584473 
	C412.103790,553.274902 418.272034,555.948669 425.467224,560.598938 
	C441.747711,571.120972 459.342010,575.002930 478.418335,569.800720 
	C486.787018,567.518555 494.988251,564.593872 502.801483,560.937683 
	C510.093506,557.525391 516.687256,555.951538 523.613708,561.432373 
	C525.514099,562.936096 528.085999,563.609741 530.379272,564.595520 
	C547.966858,572.155518 565.710815,573.943604 583.548828,565.578125 
	C590.826355,562.165161 597.222290,557.321594 603.280640,552.068909 
	C604.838440,550.718262 606.192017,549.598328 608.557434,550.130920 
	C625.946960,554.046997 642.603088,550.650879 658.981201,544.818481 
	C662.904419,543.421387 665.666260,540.947632 667.606140,537.052917 
	C669.798584,532.651245 671.467346,528.016479 674.687439,524.003967 
	C677.924988,519.969604 676.227905,515.645813 671.564880,512.986145 
	C669.828247,511.995636 668.064819,511.036316 666.413025,509.916229 
	C662.011475,506.931396 661.129700,503.470367 663.605164,498.843170 
	C664.246887,497.643829 665.303162,496.323944 664.547546,495.150421 
	C661.006226,489.650085 659.218384,482.859711 653.242310,479.119629 
	C646.722290,475.039185 639.929321,470.941040 634.302429,466.053101 
	C625.603882,458.496887 617.315735,450.317627 608.908142,442.344940 
	C606.751709,440.300079 604.478333,439.220337 601.375305,439.158203 
	C590.101196,438.932556 579.191162,436.612457 568.921265,431.955353 
	C565.202576,430.269012 562.708130,430.671326 559.545837,433.252411 
	C544.423462,445.595581 527.223450,452.399414 507.433197,451.116394 
	C489.758820,449.970581 474.213654,443.077240 460.332916,432.374237 
	C457.059387,429.850128 454.869568,429.571075 451.293610,432.098022 
	C428.727051,448.044525 391.503998,448.342865 368.442444,432.936829 
	C365.303925,430.840179 362.502411,429.845917 358.770599,431.367249 
	C351.959198,434.144043 344.810974,435.784485 337.475403,436.494507 
	C333.501190,436.879181 329.499817,437.029663 325.543457,437.539825 
	C321.116547,438.110748 318.480347,441.260651 316.799683,444.963867 
	C315.243164,448.393524 317.954376,450.686279 320.214203,452.560272 
	C329.430389,460.203217 328.373108,470.116730 324.439117,479.083527 
	C320.213013,488.716125 317.649902,498.492615 316.194855,508.728516 
	C315.640259,512.630127 313.834961,515.910767 310.406799,517.607178 
	C303.200287,521.173279 300.592682,526.829651 300.754608,534.626526 
	C300.872894,540.321960 301.517944,541.075317 307.386047,540.384094 
	C310.895782,539.970764 314.312744,537.575684 318.622101,539.922485 
M459.604248,330.320129 
	C448.269989,329.815796 437.514893,327.012054 427.763397,321.238831 
	C423.563293,318.752197 419.807953,317.834473 415.133209,319.575043 
	C402.653809,324.221649 389.555634,325.740356 376.367798,325.871552 
	C370.200378,325.932922 367.190582,329.583130 364.977753,334.028870 
	C363.088867,337.823853 365.981903,340.937225 368.383392,343.757690 
	C376.169189,352.901825 376.093140,360.686523 368.036346,369.452026 
	C365.161560,372.579712 362.740601,375.968353 362.190979,380.259705 
	C360.838593,390.819427 357.572449,400.301361 348.504364,406.915619 
	C345.300354,409.252655 344.333679,412.852539 344.156982,416.626892 
	C344.022919,419.490509 345.160309,420.967285 348.398712,420.423828 
	C353.392365,419.585754 358.057434,417.821991 362.529663,415.604034 
	C365.163055,414.298096 366.911713,414.435791 369.066284,416.654144 
	C378.887451,426.765991 391.518036,430.657898 405.077820,431.608917 
	C423.014893,432.867004 438.917206,427.348663 452.501495,415.541016 
	C455.083679,413.296539 457.077026,413.299408 459.342163,415.643280 
	C462.604767,419.019257 466.444672,421.694366 470.304077,424.297974 
	C485.661346,434.657990 502.184235,441.033539 521.088379,437.720001 
	C535.495056,435.194824 547.567017,427.959076 557.741333,417.658356 
	C560.750977,414.611359 562.894348,414.459534 566.694153,416.463745 
	C576.117615,421.434174 585.867249,425.920349 596.925720,425.677094 
	C600.375916,425.601257 604.146484,426.770813 607.200500,424.748077 
	C610.197083,422.763336 607.822510,419.131073 608.838013,416.312683 
	C611.781006,408.144867 608.747070,401.098511 603.387695,395.193268 
	C599.900757,391.351288 598.171814,387.314697 597.894775,382.268738 
	C597.462280,374.391144 594.240662,367.917511 587.798401,363.071777 
	C583.106995,359.542877 578.657898,355.393036 576.267029,350.108704 
	C572.011780,340.703674 564.065369,334.424835 557.984375,326.591248 
	C556.243103,324.348083 554.015564,323.329529 551.091187,323.263123 
	C540.123657,323.014069 529.672852,320.357880 519.745178,315.772125 
	C517.655518,314.806885 516.149536,314.871582 514.236938,316.062866 
	C497.818298,326.289520 479.992462,331.322418 459.604248,330.320129 
M518.447937,300.288574 
	C529.785645,307.408569 542.083557,310.835083 555.509338,309.926636 
	C565.388672,309.258118 569.890442,301.024780 564.900330,292.693665 
	C563.704041,290.696472 562.357605,288.789520 561.089233,286.835205 
	C556.693237,280.061615 550.374207,276.180206 542.403931,276.108582 
	C535.022949,276.042267 527.782837,275.146271 520.576233,273.951416 
	C505.153046,271.394257 489.668304,269.314148 477.458282,257.606903 
	C471.460754,251.856339 463.171570,249.881256 454.890533,249.119400 
	C445.031403,248.212372 435.745026,249.520920 431.277374,259.817352 
	C426.063232,271.834106 415.527069,278.352051 406.034027,286.034119 
	C400.285828,290.685760 394.856232,295.631989 392.669128,302.989532 
	C391.236633,307.808563 393.984802,310.779572 398.951874,310.307739 
	C406.352600,309.604736 413.144684,306.759369 419.982269,304.174194 
	C422.801849,303.108185 424.771729,303.170166 427.131958,305.356018 
	C435.701172,313.292023 446.413086,316.620911 457.665436,317.537354 
	C478.007874,319.194000 496.580627,313.888885 512.935791,301.447205 
	C514.431580,300.309357 515.782166,299.062225 518.447937,300.288574 
M471.606079,848.913940 
	C475.234161,855.212219 480.372742,858.705933 487.940796,857.874756 
	C495.887299,857.002136 498.545654,850.659851 501.451141,844.719177 
	C502.646362,842.275330 501.661835,839.943359 499.777405,837.914612 
	C497.846375,835.835693 495.970856,836.689453 493.895996,837.476501 
	C487.690491,839.830322 481.439178,842.063477 475.233887,844.417908 
	C473.446411,845.096069 471.175751,845.449707 471.606079,848.913940 
z"/>
</svg>