<svg version="1.1" id="Layer_1" xmlns="http://www.w3.org/2000/svg" xmlns:xlink="http://www.w3.org/1999/xlink" x="0px" y="0px"
	 width="100%" viewBox="0 0 493 506" enable-background="new 0 0 493 506" xml:space="preserve">
<path fill="#000000" opacity="1.000000" stroke="none" 
	d="
M1.000000,194.000000 
	C1.000000,129.349365 1.000000,65.198738 1.000000,1.024055 
	C165.276215,1.024055 329.552460,1.024055 493.914337,1.024055 
	C493.914337,169.567368 493.914337,338.134796 493.914337,506.851105 
	C329.666779,506.851105 165.333405,506.851105 1.000000,506.851105 
	C1.000000,402.780731 1.000000,298.640381 1.000000,194.000000 
M157.051712,252.425308 
	C149.467438,257.956085 141.098907,262.709564 134.575317,269.291595 
	C130.245377,273.660339 126.826805,275.013123 120.950661,274.302765 
	C114.381981,273.508636 106.750244,272.568115 101.531586,277.451324 
	C94.861153,283.692932 87.785629,288.580811 79.737991,293.067261 
	C64.461060,301.583923 52.399635,314.268860 42.814556,329.089874 
	C40.329544,332.932373 37.380440,335.880402 33.127327,338.441528 
	C27.105965,342.067474 21.206739,347.318848 17.629745,353.296387 
	C9.205750,367.373871 13.558973,380.952271 22.056297,393.688568 
	C24.429321,397.245392 26.992258,400.775208 28.699249,404.655640 
	C32.075607,412.331055 34.982536,420.217285 37.928459,428.074524 
	C38.629368,429.943939 39.225101,432.100800 39.003418,434.025726 
	C37.970692,442.993042 39.373096,450.567444 48.781803,454.562500 
	C52.871563,456.299042 57.293030,457.794952 60.698837,460.492371 
	C68.485489,466.659210 77.789093,468.526154 86.942886,470.617126 
	C95.305214,472.527283 104.034172,472.849548 112.377663,474.819733 
	C119.427673,476.484467 126.031578,479.984589 133.054291,481.829956 
	C147.527908,485.633209 161.533997,485.434113 174.232376,475.739777 
	C177.251251,473.435059 181.178757,471.420959 184.869019,471.044525 
	C205.446625,468.945587 224.994949,463.575409 243.544464,454.418091 
	C245.153915,453.623535 247.871201,453.045837 249.112396,453.850494 
	C259.868805,460.823700 271.233887,459.213470 282.228760,455.680969 
	C287.421753,454.012512 292.898865,450.485504 296.170929,446.211151 
	C301.331360,439.470001 304.656158,431.339661 308.947723,423.906891 
	C310.123901,421.869781 311.686981,419.820892 313.568665,418.466949 
	C321.756104,412.576019 330.268250,407.131866 338.387146,401.151611 
	C345.214935,396.122284 350.876709,389.888000 360.203156,388.467743 
	C384.203766,384.812805 388.822998,375.521332 395.836975,354.966217 
	C396.723969,352.366791 397.563232,349.018646 396.673248,346.685425 
	C394.203308,340.210236 396.697388,335.075775 399.621307,329.767365 
	C402.508148,324.526337 405.159332,319.151672 408.172577,313.986542 
	C409.010040,312.550995 410.619537,311.383850 412.128540,310.556091 
	C416.754120,308.018677 421.627411,305.919159 426.177887,303.261475 
	C435.749817,297.671082 442.756958,283.335510 438.285828,270.773804 
	C437.261993,267.897400 437.270660,264.059326 438.262970,261.163818 
	C442.246857,249.539108 446.614838,238.035034 451.190125,226.626450 
	C459.505524,205.891739 464.340973,184.385773 464.752563,162.099258 
	C464.892334,154.531906 467.083099,149.254044 472.353027,143.772018 
	C482.517822,133.198181 486.786133,117.721252 477.472015,104.234871 
	C472.802032,97.472984 466.565521,91.802658 461.154022,85.538010 
	C459.297028,83.388229 457.205200,81.155060 456.231232,78.578079 
	C451.893219,67.100060 446.218109,56.379940 437.355530,47.869202 
	C422.447510,33.552956 405.329987,24.238928 383.713043,24.815556 
	C373.478210,25.088570 364.349640,28.346758 355.993225,33.279751 
	C343.642487,40.570683 333.203949,50.281818 325.558746,62.664909 
	C323.657227,65.744904 321.083801,67.172256 317.280701,67.042793 
	C307.423584,66.707222 302.146820,71.510025 300.966614,81.111702 
	C299.980469,89.134415 300.034943,96.863037 304.370117,104.156258 
	C305.328369,105.768326 305.533905,108.534752 304.855988,110.296249 
	C300.815613,120.794907 297.290314,131.634827 291.915161,141.440964 
	C285.018921,154.022064 276.008606,165.435867 268.952545,177.941315 
	C265.152527,184.676041 259.942322,185.322357 253.471283,186.153351 
	C248.074020,186.846481 242.264725,188.505798 237.814529,191.491180 
	C229.663605,196.959106 225.695709,205.364090 226.010178,215.392654 
	C226.123306,219.000305 225.056763,221.268707 221.327698,222.482254 
	C217.398987,223.760742 213.672531,225.691757 209.914597,227.458633 
	C192.505219,235.644089 175.115631,243.871552 157.051712,252.425308 
z"/>
<path fill="#1D5108" opacity="1.000000" stroke="none" 
	d="
M157.385330,252.254639 
	C175.115631,243.871552 192.505219,235.644089 209.914597,227.458633 
	C213.672531,225.691757 217.398987,223.760742 221.327698,222.482254 
	C225.056763,221.268707 226.123306,219.000305 226.010178,215.392654 
	C225.695709,205.364090 229.663605,196.959106 237.814529,191.491180 
	C242.264725,188.505798 248.074020,186.846481 253.471283,186.153351 
	C259.942322,185.322357 265.152527,184.676041 268.952545,177.941315 
	C276.008606,165.435867 285.018921,154.022064 291.915161,141.440964 
	C297.290314,131.634827 300.815613,120.794907 304.855988,110.296249 
	C305.533905,108.534752 305.328369,105.768326 304.370117,104.156258 
	C300.034943,96.863037 299.980469,89.134415 300.966614,81.111702 
	C302.146820,71.510025 307.423584,66.707222 317.280701,67.042793 
	C321.083801,67.172256 323.657227,65.744904 325.558746,62.664909 
	C333.203949,50.281818 343.642487,40.570683 355.993225,33.279751 
	C364.349640,28.346758 373.478210,25.088570 383.713043,24.815556 
	C405.329987,24.238928 422.447510,33.552956 437.355530,47.869202 
	C446.218109,56.379940 451.893219,67.100060 456.231232,78.578079 
	C457.205200,81.155060 459.297028,83.388229 461.154022,85.538010 
	C466.565521,91.802658 472.802032,97.472984 477.472015,104.234871 
	C486.786133,117.721252 482.517822,133.198181 472.353027,143.772018 
	C467.083099,149.254044 464.892334,154.531906 464.752563,162.099258 
	C464.340973,184.385773 459.505524,205.891739 451.190125,226.626450 
	C446.614838,238.035034 442.246857,249.539108 438.262970,261.163818 
	C437.270660,264.059326 437.261993,267.897400 438.285828,270.773804 
	C442.756958,283.335510 435.749817,297.671082 426.177887,303.261475 
	C421.627411,305.919159 416.754120,308.018677 412.128540,310.556091 
	C410.619537,311.383850 409.010040,312.550995 408.172577,313.986542 
	C405.159332,319.151672 402.508148,324.526337 399.621307,329.767365 
	C396.697388,335.075775 394.203308,340.210236 396.673248,346.685425 
	C397.563232,349.018646 396.723969,352.366791 395.836975,354.966217 
	C388.822998,375.521332 384.203766,384.812805 360.203156,388.467743 
	C350.876709,389.888000 345.214935,396.122284 338.387146,401.151611 
	C330.268250,407.131866 321.756104,412.576019 313.568665,418.466949 
	C311.686981,419.820892 310.123901,421.869781 308.947723,423.906891 
	C304.656158,431.339661 301.331360,439.470001 296.170929,446.211151 
	C292.898865,450.485504 287.421753,454.012512 282.228760,455.680969 
	C271.233887,459.213470 259.868805,460.823700 249.112396,453.850494 
	C247.871201,453.045837 245.153915,453.623535 243.544464,454.418091 
	C224.994949,463.575409 205.446625,468.945587 184.869019,471.044525 
	C181.178757,471.420959 177.251251,473.435059 174.232376,475.739777 
	C161.533997,485.434113 147.527908,485.633209 133.054291,481.829956 
	C126.031578,479.984589 119.427673,476.484467 112.377663,474.819733 
	C104.034172,472.849548 95.305214,472.527283 86.942886,470.617126 
	C77.789093,468.526154 68.485489,466.659210 60.698837,460.492371 
	C57.293030,457.794952 52.871563,456.299042 48.781803,454.562500 
	C39.373096,450.567444 37.970692,442.993042 39.003418,434.025726 
	C39.225101,432.100800 38.629368,429.943939 37.928459,428.074524 
	C34.982536,420.217285 32.075607,412.331055 28.699249,404.655640 
	C26.992258,400.775208 24.429321,397.245392 22.056297,393.688568 
	C13.558973,380.952271 9.205750,367.373871 17.629745,353.296387 
	C21.206739,347.318848 27.105965,342.067474 33.127327,338.441528 
	C37.380440,335.880402 40.329544,332.932373 42.814556,329.089874 
	C52.399635,314.268860 64.461060,301.583923 79.737991,293.067261 
	C87.785629,288.580811 94.861153,283.692932 101.531586,277.451324 
	C106.750244,272.568115 114.381981,273.508636 120.950661,274.302765 
	C126.826805,275.013123 130.245377,273.660339 134.575317,269.291595 
	C141.098907,262.709564 149.467438,257.956085 157.385330,252.254639 
M443.178833,86.375290 
	C442.486084,85.078850 441.793335,83.782410 441.094269,81.765511 
	C438.408875,72.006165 433.664978,63.468853 425.770691,56.090736 
	C424.194427,54.707539 422.618164,53.324345 420.620178,51.489281 
	C419.774170,50.906384 418.928192,50.323490 417.601929,49.280334 
	C413.638702,47.192913 409.841766,44.658367 405.678162,43.109592 
	C396.541107,39.710785 387.174927,37.455513 376.603516,41.308765 
	C357.281281,45.350002 343.987305,57.303982 334.504303,73.922928 
	C330.209869,81.448914 330.543762,81.639435 322.071350,80.470078 
	C315.295563,79.534874 312.745026,81.776855 314.176758,88.487343 
	C315.524963,94.806488 318.047668,100.867340 319.627563,107.148994 
	C320.176392,109.331253 319.974762,112.030235 319.185242,114.145935 
	C317.932190,117.503685 315.563141,120.437958 314.245697,123.779839 
	C303.548737,150.914169 291.663849,177.281754 269.033508,197.049606 
	C266.422852,199.330063 264.355164,203.123123 260.147644,199.344162 
	C259.702972,198.944778 258.536499,199.296722 257.712860,199.379410 
	C242.727356,200.883881 234.098068,216.778564 240.937241,230.193542 
	C241.668304,231.627502 242.080475,233.224030 242.640579,234.745148 
	C242.045547,235.153320 241.450516,235.561478 240.855469,235.969635 
	C239.648956,233.814697 238.442429,231.659744 237.289398,229.600342 
	C230.950027,234.126358 226.073837,238.632523 220.368454,241.473587 
	C207.421478,247.920700 194.184418,253.828964 180.846756,259.436462 
	C165.015060,266.092529 149.880508,273.469543 139.558456,288.082581 
	C138.566467,289.486938 135.538605,290.203644 133.572769,290.015808 
	C129.285675,289.606140 125.091988,288.305206 120.827499,287.553558 
	C112.803322,286.139282 110.622818,287.263824 106.851532,294.477142 
	C104.444107,299.081818 102.064323,303.700958 99.198814,309.226288 
	C97.684288,306.652435 96.824600,305.191406 95.856705,303.546509 
	C94.820282,303.903015 93.845238,304.105225 92.997437,304.549988 
	C80.493851,311.109650 69.089729,319.195007 59.852680,329.937836 
	C48.242233,343.440918 41.681744,359.113190 40.688778,377.609375 
	C40.486267,378.401367 40.283760,379.193390 39.587166,380.371765 
	C37.465885,382.192810 37.327129,384.113159 39.189140,386.567535 
	C39.189140,386.567535 39.054962,386.988831 38.635281,387.403229 
	C36.219467,390.660645 39.374172,392.012115 41.038391,394.716888 
	C43.755836,402.537537 46.424648,410.375610 49.211403,418.171478 
	C50.587772,422.021820 53.118546,422.912842 57.094963,421.543549 
	C60.133259,420.497345 63.513142,420.443146 66.215538,420.304504 
	C63.001095,423.469696 59.786652,426.634888 56.053268,430.200684 
	C55.585312,430.869385 55.073772,431.512024 54.656223,432.210846 
	C51.071388,438.210541 51.626789,439.828949 58.078651,442.422699 
	C61.728062,443.889862 65.361252,445.397400 69.167244,447.595215 
	C72.693695,455.419678 78.336128,457.196838 89.978065,453.829468 
	C92.323547,453.947296 94.669037,454.065125 97.252441,454.593903 
	C98.203033,454.606628 99.153625,454.619324 100.945892,454.577026 
	C102.627670,454.697937 104.309448,454.818817 106.274040,455.540161 
	C107.128975,456.989197 107.983902,458.438263 108.838829,459.887329 
	C109.228867,459.796295 109.618912,459.705292 110.008949,459.614258 
	C110.008949,458.108337 110.008949,456.602417 110.880287,455.049744 
	C114.245224,455.327271 117.610161,455.604797 121.412933,456.472961 
	C122.826645,457.240601 124.230927,458.656189 125.655533,458.676941 
	C142.285126,458.919189 158.859039,464.994293 175.560516,459.252228 
	C176.620880,458.887634 177.911377,459.225006 179.004868,458.916779 
	C180.706696,458.437073 182.331284,457.683441 184.751160,456.786011 
	C195.161194,454.882263 205.571243,452.978485 216.779984,451.048889 
	C219.521118,450.358154 222.262253,449.667419 225.737854,448.840118 
	C230.197968,446.943115 234.658081,445.046112 239.628098,442.952759 
	C240.098206,442.676453 240.568314,442.400146 241.718781,441.908295 
	C249.179245,437.264252 256.611816,432.574249 264.122040,428.012207 
	C265.764496,427.014496 267.683990,426.472961 269.475922,425.721375 
	C269.905243,426.288177 270.334564,426.854950 270.763885,427.421753 
	C268.804871,429.600403 266.845825,431.779053 264.526276,434.180450 
	C264.290070,434.338562 264.077667,434.523956 263.291656,435.065613 
	C258.197968,439.005707 258.370239,440.295654 264.094604,443.113403 
	C270.160980,446.099457 276.056183,445.423065 280.843414,441.112427 
	C284.192017,438.097137 286.372864,433.784943 289.031891,429.997894 
	C289.031891,429.997894 289.054810,430.061920 289.538757,429.606567 
	C290.834442,427.521362 292.130127,425.436157 293.861023,422.650574 
	C290.576660,422.408234 288.601685,422.262512 286.080017,422.076477 
	C287.344879,420.387482 288.210876,419.231079 289.012787,418.078064 
	C289.012787,418.078064 289.069366,418.108826 289.729462,417.896454 
	C296.186615,412.957642 302.643768,408.018860 309.041138,403.077515 
	C309.041138,403.077515 309.071808,403.128906 309.693420,403.037689 
	C310.105927,402.964630 310.518402,402.891541 311.269806,403.137787 
	C312.181671,402.146698 313.093536,401.155609 314.510132,399.722839 
	C316.950531,397.791962 319.390900,395.861053 322.547882,393.797882 
	C324.369202,392.138245 326.190521,390.478577 328.397278,388.632812 
	C328.657227,388.529388 328.922638,388.442841 329.989349,388.406982 
	C331.615082,387.728607 333.478180,387.355896 334.820892,386.313141 
	C338.487946,383.465210 342.083679,380.489410 345.434509,377.279114 
	C350.207581,372.706177 355.442139,369.761353 361.921814,371.571777 
	C360.613342,373.170746 359.304840,374.769745 357.973175,376.397064 
	C358.659576,376.890411 358.922668,377.244354 359.170593,377.234009 
	C371.622528,376.714111 384.028900,363.644562 383.464050,351.473633 
	C383.426025,350.654785 381.872589,349.906281 380.701965,348.499451 
	C379.020203,345.643677 377.338440,342.787933 375.964478,339.425140 
	C376.310791,338.947449 376.657104,338.469757 377.610596,338.139709 
	C381.685547,338.610077 381.829285,336.552185 380.788483,332.944458 
	C381.920288,330.987671 383.052094,329.030884 384.492310,326.698059 
	C384.704132,326.262299 384.915955,325.826538 385.667328,324.940521 
	C389.128448,319.300140 392.589569,313.659729 396.481018,307.494141 
	C399.939392,300.861145 403.331726,294.192352 406.898682,287.618256 
	C407.894684,285.782532 409.406036,284.226379 410.680969,282.541992 
	C411.182953,282.816132 411.684937,283.090271 412.186951,283.364410 
	C411.742737,285.402802 411.166107,287.424133 410.900818,289.485565 
	C410.723175,290.866089 410.987457,292.303528 411.053986,293.715485 
	C412.484436,293.643951 414.014648,293.879211 415.329407,293.451782 
	C424.871246,290.349701 428.768829,278.407745 423.370453,269.749237 
	C422.433197,268.245972 422.662506,266.015320 422.737640,263.552155 
	C428.591431,247.316513 434.801208,231.197388 440.167236,214.802109 
	C443.456329,204.752640 445.452118,194.279846 448.085083,183.151123 
	C448.373993,181.205368 448.841064,179.267044 448.922485,177.312653 
	C449.413910,165.513367 449.817078,153.710403 450.481354,141.323196 
	C451.786285,140.406509 452.974915,138.987305 454.414856,138.653992 
	C464.398468,136.343201 471.342804,125.262497 467.310760,115.964462 
	C464.621429,109.762756 459.810822,104.480927 455.691071,98.548759 
	C455.260956,98.500206 454.830872,98.451653 454.400757,98.403091 
	C454.616486,98.936714 454.832214,99.470329 455.219421,100.802299 
	C455.272461,103.904358 455.325500,107.006416 455.147766,110.462723 
	C455.107605,111.314148 455.067444,112.165581 454.974213,113.792526 
	C454.766541,115.088318 454.812286,116.501465 454.281494,117.647621 
	C453.725220,118.848915 452.615723,119.794037 451.748016,120.851128 
	C450.827057,119.837570 449.505615,118.967690 449.078400,117.776978 
	C448.427399,115.962471 448.395325,113.925911 448.550049,111.461708 
	C450.608490,108.144058 450.444580,105.250046 446.835663,102.394608 
	C446.812958,101.990692 446.790253,101.586777 446.935059,100.688072 
	C446.651611,99.795311 446.368195,98.902542 445.765717,97.634392 
	C445.548401,97.386040 445.305878,97.165359 445.006134,96.145149 
	C444.888184,94.494835 444.770233,92.844521 445.033081,90.842056 
	C444.520325,89.569832 444.007568,88.297600 443.178833,86.375290 
M135.699051,465.440552 
	C133.870911,464.888916 132.056320,464.268890 130.192154,463.898804 
	C130.019073,463.864471 129.531128,465.416260 129.189392,466.231598 
	C130.525497,466.493225 131.861588,466.754883 133.600830,467.473633 
	C135.741302,467.742676 137.881775,468.011688 140.308029,468.724640 
	C141.539551,468.550079 142.771088,468.375519 144.927719,468.126831 
	C149.154007,468.031128 153.380280,467.935394 158.125366,468.164490 
	C159.584976,468.259369 161.044586,468.354279 163.794601,468.533051 
	C157.863800,462.985626 146.525650,462.150482 140.151718,465.812073 
	C138.770508,465.894928 137.389313,465.977783 135.699051,465.440552 
M33.038288,377.687256 
	C32.887917,376.435364 32.737541,375.183441 32.496460,373.041168 
	C34.206558,366.324188 35.916660,359.607208 38.115200,352.730011 
	C38.551121,352.230988 38.987041,351.731964 39.422955,351.232910 
	C38.861908,351.244293 38.300861,351.255676 37.050079,351.294708 
	C35.447037,352.063965 33.612568,352.551605 32.278385,353.648041 
	C23.404486,360.940735 23.168684,374.857330 32.102818,384.578339 
	C32.025806,383.376129 31.948799,382.173920 31.879879,380.364197 
	C32.103672,379.595001 32.327461,378.825775 33.038288,377.687256 
M100.662735,459.947662 
	C100.560501,460.011658 100.458275,460.075653 100.356033,460.139648 
	C100.454895,460.113800 100.553749,460.087952 100.662735,459.947662 
z"/>
<path fill="#51AD2E" opacity="1.000000" stroke="none" 
	d="
M40.925297,377.046906 
	C41.681744,359.113190 48.242233,343.440918 59.852680,329.937836 
	C69.089729,319.195007 80.493851,311.109650 92.997437,304.549988 
	C93.845238,304.105225 94.820282,303.903015 95.856705,303.546509 
	C96.824600,305.191406 97.684288,306.652435 99.198814,309.226288 
	C102.064323,303.700958 104.444107,299.081818 106.851532,294.477142 
	C110.622818,287.263824 112.803322,286.139282 120.827499,287.553558 
	C125.091988,288.305206 129.285675,289.606140 133.572769,290.015808 
	C135.538605,290.203644 138.566467,289.486938 139.558456,288.082581 
	C149.880508,273.469543 165.015060,266.092529 180.846756,259.436462 
	C194.184418,253.828964 207.421478,247.920700 220.368454,241.473587 
	C226.073837,238.632523 230.950027,234.126358 237.289398,229.600342 
	C238.442429,231.659744 239.648956,233.814697 240.855469,235.969635 
	C241.450516,235.561478 242.045547,235.153320 242.640579,234.745148 
	C242.080475,233.224030 241.668304,231.627502 240.937241,230.193542 
	C234.098068,216.778564 242.727356,200.883881 257.712860,199.379410 
	C258.536499,199.296722 259.702972,198.944778 260.147644,199.344162 
	C264.355164,203.123123 266.422852,199.330063 269.033508,197.049606 
	C291.663849,177.281754 303.548737,150.914169 314.245697,123.779839 
	C315.563141,120.437958 317.932190,117.503685 319.185242,114.145935 
	C319.974762,112.030235 320.176392,109.331253 319.627563,107.148994 
	C318.047668,100.867340 315.524963,94.806488 314.176758,88.487343 
	C312.745026,81.776855 315.295563,79.534874 322.071350,80.470078 
	C330.543762,81.639435 330.209869,81.448914 334.504303,73.922928 
	C343.987305,57.303982 357.281281,45.350002 376.762573,41.526772 
	C370.049316,47.934315 361.215912,51.998089 356.381653,60.520832 
	C358.170288,60.380520 359.649719,59.771606 361.151031,59.222572 
	C366.739288,57.178909 372.264435,57.534920 376.627350,61.570404 
	C380.868011,65.492859 383.823761,70.355209 381.602020,76.731461 
	C380.784302,79.078323 380.433624,81.585434 379.825256,84.008232 
	C378.424652,89.585922 378.744507,90.377380 384.619476,90.955154 
	C390.494141,91.532898 395.282257,93.406769 397.951233,99.433136 
	C397.964264,100.882744 397.976318,101.936996 397.844818,103.233337 
	C397.449707,103.979118 397.198181,104.482796 396.743469,105.257706 
	C393.700500,109.362816 390.860687,113.196709 388.055328,116.608589 
	C388.286407,114.703346 388.505890,113.222733 388.675903,111.736465 
	C389.776520,102.114334 384.177460,93.652031 375.416565,91.679672 
	C366.360718,89.640907 358.120331,94.598419 354.887848,104.084717 
	C352.267395,111.774948 356.039398,117.217056 361.348938,122.069511 
	C365.753784,126.095154 370.619904,126.797920 376.087982,124.295250 
	C378.949097,122.985748 381.993591,122.076981 385.097443,121.292007 
	C390.429810,127.197845 396.233429,132.776993 395.810547,141.060013 
	C395.435852,148.399338 394.049255,155.742691 392.467438,162.943253 
	C391.558899,167.079041 389.373383,170.934326 387.543091,175.082703 
	C386.853516,175.810242 386.383606,176.370956 385.725586,177.170593 
	C385.011383,178.274826 384.485260,179.140121 383.947052,180.199951 
	C383.934937,180.394455 383.934326,180.784225 383.697052,180.973221 
	C382.927429,181.763336 382.395081,182.364456 381.603333,183.164932 
	C375.726288,188.271973 370.194794,193.283997 364.445618,198.032410 
	C362.351837,199.761703 362.245728,201.024490 363.348175,203.473969 
	C364.737213,206.560226 365.616333,210.010300 366.003784,213.385117 
	C366.810883,220.415787 363.260712,226.205933 359.649109,232.183044 
	C352.574768,239.441620 344.878204,244.468887 334.485565,244.274597 
	C333.075897,244.248230 330.552887,246.588531 330.353973,248.075027 
	C328.827057,259.485901 321.157318,266.273499 311.306610,268.008057 
	C301.256439,269.777771 299.729736,275.049927 299.918945,283.070953 
	C299.926758,283.401764 299.884186,283.737335 299.832062,284.065460 
	C298.304199,293.682159 293.862030,300.972931 283.900269,303.716156 
	C275.899231,305.919403 267.819214,307.852203 259.886230,310.272186 
	C258.297546,310.756836 255.990067,312.994019 256.088440,314.262207 
	C257.034363,326.459839 250.203171,333.838989 240.528091,339.929993 
	C237.753540,339.954956 235.363541,340.322815 233.127594,339.891724 
	C228.657974,339.029938 226.096161,340.642334 224.924713,345.269775 
	C223.485306,347.331543 222.218613,349.110779 220.675995,351.088898 
	C216.222214,353.778564 212.044342,356.269348 207.663055,358.780396 
	C207.459625,358.800659 207.056870,358.870911 206.592621,358.871094 
	C200.853836,358.353699 195.471939,358.326385 190.330460,357.200867 
	C183.041092,355.605164 183.116776,355.259277 179.064087,361.830780 
	C171.068909,374.795013 156.490372,380.758636 141.945389,376.303894 
	C138.660828,375.297943 136.059174,371.986725 133.208908,369.656250 
	C129.112717,366.307068 125.076820,362.884155 120.743607,359.666931 
	C119.966255,360.236511 119.460503,360.631897 118.989731,361.022827 
	C119.024704,361.018341 119.015488,360.948395 118.657883,361.016113 
	C115.640938,362.376404 112.906502,363.535828 110.335709,364.985413 
	C100.922974,370.293121 99.231270,374.510712 102.055817,385.196228 
	C96.666061,396.333008 86.613037,397.961304 80.903427,388.506683 
	C77.948677,383.613953 75.848114,383.757629 71.840340,386.917877 
	C66.379028,391.224274 60.289921,391.574493 54.231831,387.857300 
	C48.849285,384.554565 47.946133,379.270447 48.091423,373.554474 
	C48.115055,372.624756 47.999851,371.691498 47.945927,370.707092 
	C45.467213,372.945435 43.196243,374.996155 40.925297,377.046906 
M188.087494,292.057220 
	C178.380722,292.242706 176.181702,293.907623 175.442413,302.631714 
	C175.123947,306.390076 175.704208,310.224609 175.124100,313.892059 
	C173.353012,313.425507 171.580933,312.962769 169.811005,312.491821 
	C156.108643,308.845703 145.745728,316.924530 146.008743,331.049164 
	C146.178299,340.155518 154.780579,348.546326 163.845398,348.447388 
	C174.231995,348.333954 182.017853,341.089203 181.890167,331.138824 
	C181.842041,327.389832 180.662506,323.655396 180.638123,319.487579 
	C181.096390,316.656036 181.931030,313.825378 181.937576,310.992767 
	C181.953049,304.309570 183.953796,298.655731 190.001160,294.087067 
	C196.887817,294.087067 203.774475,294.087067 210.661118,294.087067 
	C210.671631,293.487518 210.682144,292.887970 210.692657,292.288422 
	C203.581238,289.872498 196.235901,291.648773 188.087494,292.057220 
M331.486755,139.150116 
	C330.996735,140.203400 330.417267,141.224976 330.030853,142.314987 
	C326.954865,150.992111 330.983093,160.587418 339.327545,164.541306 
	C346.292053,167.841339 355.596069,165.644241 359.480560,159.782288 
	C364.584259,152.080475 363.397156,139.579346 357.062347,134.316757 
	C349.172363,127.762199 338.666412,129.507172 331.486755,139.150116 
M277.146851,247.947723 
	C282.706421,245.754028 285.515686,241.355225 287.416077,235.910416 
	C289.888458,228.826752 287.401306,221.016113 281.079346,217.426193 
	C273.896942,213.347672 263.660156,214.907059 259.261139,220.749771 
	C254.606232,226.932343 254.099396,234.467392 257.911957,240.808258 
	C261.765564,247.217407 268.174774,249.782944 277.146851,247.947723 
M74.527641,348.984283 
	C73.957603,349.589294 73.341705,350.157684 72.824715,350.805054 
	C68.230499,356.557831 68.079842,364.064392 72.424667,369.714996 
	C77.418144,376.209167 85.124672,378.719940 91.313683,375.868988 
	C97.109413,373.199188 102.442429,363.522797 101.357956,357.644318 
	C99.197784,345.934937 84.882057,340.941956 74.527641,348.984283 
M113.992065,347.849548 
	C115.978813,347.843567 117.995224,348.057648 119.947273,347.794373 
	C129.498169,346.506409 135.918976,333.067688 130.925507,324.963226 
	C126.955536,318.519958 119.561615,315.583252 112.443108,317.622467 
	C105.980698,319.473694 101.185143,325.415131 101.062271,331.722748 
	C100.904472,339.823517 104.988121,345.228638 113.992065,347.849548 
M304.524994,242.953522 
	C305.282166,243.604523 305.985107,244.335175 306.805237,244.893753 
	C312.620941,248.854782 319.664368,248.646484 324.922791,244.398773 
	C330.545715,239.856659 332.511719,232.463486 329.832306,225.936554 
	C327.064362,219.194061 321.139526,215.501190 314.079742,216.130859 
	C308.082794,216.665710 303.437073,219.641846 301.185394,225.079086 
	C298.659790,231.177704 299.772247,237.179291 304.524994,242.953522 
M225.155716,277.009003 
	C225.980820,280.958588 225.827911,285.530701 227.854935,288.715240 
	C231.083023,293.786682 239.878983,295.037323 245.055756,292.353729 
	C250.556595,289.502167 253.599442,282.984344 252.359894,276.708252 
	C251.227066,270.972534 245.328445,266.337585 238.846741,266.090057 
	C232.148392,265.834320 227.483932,269.298981 225.155716,277.009003 
M305.892609,197.416931 
	C308.226868,202.744766 310.538269,208.096649 317.546143,208.711884 
	C313.514221,202.874680 311.329926,196.920013 313.691650,189.912918 
	C316.158569,182.593536 322.818909,180.414673 328.675781,176.798309 
	C323.147278,177.719147 317.760864,179.019806 312.885620,181.377441 
	C306.402435,184.512680 304.484406,189.360245 305.892609,197.416931 
z"/>
<path fill="#438815" opacity="1.000000" stroke="none" 
	d="
M215.981277,451.074738 
	C205.571243,452.978485 195.161194,454.882263 183.903717,456.878815 
	C179.578766,456.960449 176.099991,457.005981 172.623993,456.928070 
	C159.076950,456.624420 145.530792,456.281677 132.172852,455.672546 
	C133.060318,454.695312 133.651932,453.577972 134.474915,453.368195 
	C142.043625,451.438721 146.092087,445.931427 150.705994,440.030182 
	C154.622070,435.021454 158.803894,431.230865 156.845200,424.339020 
	C156.737488,423.959961 157.171509,423.426971 157.479507,423.283264 
	C160.526154,431.930115 162.144012,432.597595 170.564392,433.010651 
	C177.886063,433.369843 182.211578,429.022858 187.059601,425.087585 
	C189.339005,429.076843 191.526840,428.783905 194.199295,425.804047 
	C196.061157,423.727936 198.585022,422.241974 200.426178,420.151520 
	C206.020462,413.799927 213.685577,409.416962 217.267990,401.030457 
	C218.449249,398.265167 222.496231,396.722717 223.152069,392.928833 
	C223.207047,392.610779 224.983124,392.635010 225.940750,392.417358 
	C227.214294,392.127838 228.706009,392.082855 229.692719,391.366425 
	C234.890854,387.592255 240.262253,383.975433 245.017212,379.687164 
	C260.166718,366.024536 274.956085,351.961273 290.177979,338.381622 
	C292.802734,336.040039 296.860779,335.305023 300.661072,333.856628 
	C302.698303,334.138306 304.330994,334.392487 305.964111,334.643982 
	C314.735657,335.995026 318.168243,334.012878 320.566345,325.485321 
	C321.486084,322.214661 321.437317,318.671631 321.900421,314.910431 
	C321.673065,312.821716 321.816376,310.820129 320.984802,309.382355 
	C319.290771,306.453278 319.948151,305.456146 322.935516,303.801300 
	C328.809357,300.547455 335.118683,297.251678 339.560486,292.421509 
	C347.602722,283.676117 354.346283,273.761444 365.372742,268.187561 
	C367.062653,267.333313 368.630585,265.700409 369.595886,264.043640 
	C373.633606,257.113739 377.936523,250.598572 386.145081,247.951126 
	C387.160645,247.623581 388.109375,246.628983 388.762665,245.711166 
	C393.779694,238.663071 399.108582,232.046646 407.615631,228.833725 
	C408.761505,228.400940 409.919739,226.721115 410.163300,225.445221 
	C410.670898,222.786072 411.679352,221.759979 414.521545,222.075043 
	C415.576294,222.191956 416.805603,220.733582 417.955292,219.993591 
	C417.103760,218.957520 416.331451,217.840637 415.379303,216.907166 
	C414.339813,215.888062 413.133820,215.038803 412.301239,213.934784 
	C421.439941,209.849274 426.883545,202.961884 430.150146,194.198059 
	C430.223389,195.942963 430.273987,197.520996 429.962036,199.023773 
	C429.245392,202.475937 428.352112,205.891464 427.530548,209.321869 
	C427.960815,209.598068 428.391083,209.874283 428.821350,210.150497 
	C430.123901,209.393158 431.834808,208.936234 432.653717,207.823090 
	C435.278137,204.255722 437.596283,200.460709 439.987823,196.724869 
	C442.693359,192.498489 445.350464,188.241074 448.028656,183.997162 
	C445.452118,194.279846 443.456329,204.752640 440.167236,214.802109 
	C434.801208,231.197388 428.591431,247.316513 422.194824,263.903534 
	C420.549072,265.694519 419.460480,267.145447 418.338989,268.570496 
	C417.275726,269.921539 416.346436,272.195282 415.067200,272.422119 
	C408.388519,273.606506 404.815033,278.921906 400.382324,282.965515 
	C392.926239,289.767151 386.024506,297.184235 378.463928,303.860352 
	C374.476501,307.381287 371.455658,311.009125 369.640686,316.134857 
	C368.792450,318.530273 365.624176,320.929993 363.027893,321.690338 
	C358.959351,322.881866 355.617249,324.169495 353.729980,328.285583 
	C353.105194,329.648224 351.630707,331.187683 350.259003,331.542786 
	C344.500183,333.033539 341.459137,337.624420 337.482971,341.380829 
	C331.167358,347.347443 324.072144,352.488800 317.172302,357.730896 
	C316.084320,355.518158 315.000671,354.608643 313.779175,357.250244 
	C312.801208,359.365173 311.903687,361.522675 311.079376,363.702454 
	C306.750458,375.150330 298.341949,380.714325 286.253479,381.169983 
	C278.559692,381.459961 270.872528,381.924286 263.182373,382.310455 
	C263.082245,382.665375 262.982117,383.020264 262.881989,383.375183 
	C268.920685,384.914703 274.959381,386.454193 280.937775,388.346588 
	C276.808838,396.480377 270.921661,402.583374 263.790161,407.634186 
	C261.693695,409.118958 260.016724,411.198944 258.160706,413.019623 
	C255.834106,415.301941 253.427521,417.512207 251.226013,419.910156 
	C248.506058,422.872894 246.002762,426.033478 243.325089,429.036530 
	C241.760361,430.791412 240.178818,433.648743 238.360657,433.854767 
	C232.448212,434.524597 231.087784,438.061249 230.755875,443.003967 
	C230.338837,443.006348 230.172028,443.007141 229.661163,443.079254 
	C227.879959,444.433716 226.442810,445.716888 225.003128,447.000031 
	C225.000610,447.000000 225.002441,447.006104 224.630676,447.092224 
	C221.499710,448.477142 218.740494,449.775940 215.981277,451.074738 
M360.394440,282.104156 
	C359.460907,282.411926 358.527344,282.719696 357.185699,283.162018 
	C367.422668,289.984161 380.820557,288.791229 386.089874,281.036621 
	C390.871033,274.000427 389.639862,258.991577 383.277466,254.603058 
	C382.831238,256.508148 382.267883,258.109863 382.108673,259.750793 
	C381.708160,263.878265 381.319183,268.020264 381.242065,272.162323 
	C381.144897,277.383026 378.414124,280.213043 373.541687,280.955231 
	C369.455627,281.577667 365.297791,281.728516 360.394440,282.104156 
z"/>
<path fill="#439215" opacity="1.000000" stroke="none" 
	d="
M157.353363,422.965637 
	C157.171509,423.426971 156.737488,423.959961 156.845200,424.339020 
	C158.803894,431.230865 154.622070,435.021454 150.705994,440.030182 
	C146.092087,445.931427 142.043625,451.438721 134.474915,453.368195 
	C133.651932,453.577972 133.060318,454.695312 131.716553,455.688904 
	C127.706184,455.951477 124.340645,455.916870 120.975098,455.882263 
	C117.610161,455.604797 114.245224,455.327271 110.045609,455.014893 
	C108.137695,454.966614 107.064461,454.953186 105.991226,454.939758 
	C104.309448,454.818817 102.627670,454.697937 100.224579,454.506165 
	C98.673683,454.351227 97.844101,454.267120 97.014519,454.182983 
	C94.669037,454.065125 92.323547,453.947296 89.143669,453.729187 
	C82.529442,452.499237 75.776741,454.258545 71.729889,447.908722 
	C71.312813,447.254303 69.934189,447.212708 69.001747,446.886749 
	C65.361252,445.397400 61.728062,443.889862 58.078651,442.422699 
	C51.626789,439.828949 51.071388,438.210541 54.656223,432.210846 
	C55.073772,431.512024 55.585312,430.869385 56.605934,430.251526 
	C68.576073,437.061554 78.760979,431.995087 89.112511,426.866333 
	C89.515976,426.162720 89.759071,425.581360 90.006783,424.583374 
	C90.001236,422.778168 89.991081,421.389557 90.201065,419.734070 
	C91.755882,416.988190 92.937080,414.410614 94.454239,412.048828 
	C98.865776,405.181335 105.899681,401.704224 112.753723,397.919434 
	C114.512230,396.948364 115.593796,394.751373 117.374313,393.162903 
	C121.624878,393.532990 125.402740,396.056549 130.759811,393.715729 
	C127.821114,392.156219 125.906563,391.260437 124.114227,390.164795 
	C120.018410,387.661011 115.583008,385.516510 112.011040,382.395721 
	C105.894943,377.052155 106.597054,370.960388 113.100945,366.140381 
	C115.201408,364.583710 117.051079,362.688660 119.015488,360.948395 
	C119.015488,360.948395 119.024704,361.018341 119.252197,360.838440 
	C119.991531,360.269958 120.503372,359.881348 121.015205,359.492706 
	C125.076820,362.884155 129.112717,366.307068 133.208908,369.656250 
	C136.059174,371.986725 138.660828,375.297943 141.945389,376.303894 
	C156.490372,380.758636 171.068909,374.795013 179.064087,361.830780 
	C183.116776,355.259277 183.041092,355.605164 190.330460,357.200867 
	C195.471939,358.326385 200.853836,358.353699 206.403778,359.116638 
	C204.674667,361.821686 204.309708,363.945557 208.201736,364.494629 
	C214.537613,365.388489 217.412125,369.552734 218.607773,375.007690 
	C217.615692,374.126923 216.851273,373.484344 216.170700,372.762634 
	C211.533463,367.845276 206.179504,365.046112 199.266891,367.261444 
	C192.133362,369.547546 189.340424,375.029388 188.397629,382.113068 
	C183.716171,384.814880 179.353867,387.420959 174.696823,390.203094 
	C177.304276,391.579529 180.346313,393.043579 183.243408,394.753265 
	C186.350525,396.586823 188.930725,398.859497 187.465759,402.896301 
	C183.421204,399.057983 180.029388,394.362488 173.871628,395.366913 
	C162.883255,397.159271 157.416412,399.927612 157.017944,412.673401 
	C157.120621,416.399506 157.237000,419.682556 157.353363,422.965637 
M86.940964,448.693787 
	C92.123184,449.709900 97.305412,450.725983 102.991600,451.840912 
	C99.071083,447.670593 95.936882,444.094421 92.496178,440.842560 
	C91.605965,440.001251 89.267441,439.452728 88.432571,440.014862 
	C85.401657,442.055603 82.726715,444.625061 79.101974,447.683075 
	C82.312851,448.074768 84.237572,448.309540 86.940964,448.693787 
z"/>
<path fill="#438414" opacity="1.000000" stroke="none" 
	d="
M231.006104,443.002441 
	C231.087784,438.061249 232.448212,434.524597 238.360657,433.854767 
	C240.178818,433.648743 241.760361,430.791412 243.325089,429.036530 
	C246.002762,426.033478 248.506058,422.872894 251.226013,419.910156 
	C253.427521,417.512207 255.834106,415.301941 258.160706,413.019623 
	C260.016724,411.198944 261.693695,409.118958 263.790161,407.634186 
	C270.921661,402.583374 276.808838,396.480377 281.398163,388.332397 
	C285.393463,387.802368 288.911316,387.931610 292.335144,387.425201 
	C306.362518,385.350677 317.878693,371.659515 317.306671,357.979248 
	C324.072144,352.488800 331.167358,347.347443 337.482971,341.380829 
	C341.459137,337.624420 344.500183,333.033539 350.259003,331.542786 
	C351.630707,331.187683 353.105194,329.648224 353.729980,328.285583 
	C355.617249,324.169495 358.959351,322.881866 363.027893,321.690338 
	C365.624176,320.929993 368.792450,318.530273 369.640686,316.134857 
	C371.455658,311.009125 374.476501,307.381287 378.463928,303.860352 
	C386.024506,297.184235 392.926239,289.767151 400.382324,282.965515 
	C404.815033,278.921906 408.388519,273.606506 415.067200,272.422119 
	C416.346436,272.195282 417.275726,269.921539 418.338989,268.570496 
	C419.460480,267.145447 420.549072,265.694519 422.002502,264.187805 
	C422.662506,266.015320 422.433197,268.245972 423.370453,269.749237 
	C428.768829,278.407745 424.871246,290.349701 415.329407,293.451782 
	C414.014648,293.879211 412.484436,293.643951 411.054016,293.715485 
	C410.987457,292.303528 410.723175,290.866089 410.900818,289.485565 
	C411.166107,287.424133 411.742737,285.402802 412.186951,283.364410 
	C411.684937,283.090271 411.182953,282.816132 410.680969,282.541992 
	C409.406036,284.226379 407.894684,285.782532 406.898682,287.618256 
	C403.331726,294.192352 399.939392,300.861145 395.963196,307.906891 
	C392.006165,314.010040 388.566986,319.700409 385.127808,325.390778 
	C384.915955,325.826538 384.704132,326.262299 383.970337,326.956177 
	C379.058350,328.148315 378.066650,331.344299 378.041931,335.423767 
	C377.971375,335.616699 377.802155,335.991058 377.490112,336.104126 
	C371.016357,342.448608 362.273285,346.463196 360.065552,356.086090 
	C360.039276,356.059357 360.110748,356.081757 359.787567,356.203369 
	C355.638275,358.932831 351.437378,361.131958 348.060272,364.229340 
	C339.777679,371.825806 331.893707,379.855865 323.804718,387.665253 
	C322.020111,389.388214 320.285522,391.421112 318.118103,392.436646 
	C313.348480,394.671295 310.701324,398.395020 309.071808,403.128906 
	C309.071808,403.128906 309.041138,403.077515 308.708954,403.144501 
	C300.464142,406.263245 293.988098,411.176880 289.069366,418.108826 
	C289.069366,418.108826 289.012787,418.078064 288.682404,418.133484 
	C286.558289,419.416138 284.764557,420.643402 282.970825,421.870667 
	C284.232849,423.200684 285.621796,424.435059 286.718506,425.889709 
	C287.669250,427.150787 288.288849,428.661530 289.054810,430.061920 
	C289.054810,430.061920 289.031891,429.997894 288.639221,430.020996 
	C284.264465,429.711792 281.818054,430.902344 280.985229,435.402527 
	C280.245422,439.400177 274.571686,442.920532 270.698669,442.466919 
	C266.213623,441.941650 264.108887,439.120331 263.889038,434.736603 
	C264.077667,434.523956 264.290070,434.338562 265.074829,434.009369 
	C266.576599,433.555328 267.795349,433.548431 268.431885,432.936218 
	C270.146545,431.287201 272.176514,429.580414 272.921722,427.484314 
	C273.255829,426.544586 270.912445,423.503204 269.619293,423.395569 
	C267.511017,423.220062 265.067383,424.336182 263.127899,425.507751 
	C260.164215,427.297974 257.497925,429.584290 254.725891,431.687073 
	C250.154770,435.154602 245.600052,438.643768 241.038422,442.123840 
	C240.568314,442.400146 240.098206,442.676453 239.034164,442.968811 
	C235.962189,442.990692 233.484146,442.996552 231.006104,443.002441 
M401.962219,287.009735 
	C401.962219,287.009735 401.967529,286.969269 401.962219,287.009735 
z"/>
<path fill="#439016" opacity="1.000000" stroke="none" 
	d="
M385.913666,176.931671 
	C386.383606,176.370956 386.853516,175.810242 387.873901,174.946289 
	C389.963226,172.387253 391.740143,170.255585 392.994202,167.851257 
	C396.161926,161.778214 397.788727,155.079163 404.201050,150.710114 
	C409.729340,146.943420 417.451965,145.472900 419.956696,137.798965 
	C420.180664,137.112686 421.934845,136.644562 423.012970,136.569031 
	C426.854370,136.299881 428.037781,133.947296 427.153503,130.767258 
	C426.297119,127.687469 424.552826,124.865433 423.413330,121.849037 
	C422.827026,120.297134 422.708527,118.568481 422.593903,117.150314 
	C423.869965,118.660004 424.952759,119.921555 425.988129,121.220932 
	C434.288879,131.638580 434.291687,133.031250 426.385864,143.558746 
	C424.577637,145.966629 422.944305,148.505844 420.662537,151.806076 
	C434.399994,148.038193 440.879517,136.329590 436.380585,124.835571 
	C435.142120,121.671448 432.817932,118.932274 431.359772,116.043381 
	C433.874695,117.253670 436.177856,118.205658 438.130402,119.636177 
	C440.731140,121.541626 442.597626,121.357506 443.145905,118.096329 
	C443.882782,113.713646 444.193665,109.255783 444.597198,104.821983 
	C444.834564,102.213669 444.897034,99.589424 445.038177,96.972351 
	C445.305878,97.165359 445.548401,97.386040 445.938599,98.146294 
	C446.330200,99.499748 446.548889,100.341301 446.767578,101.182861 
	C446.790253,101.586777 446.812958,101.990692 446.872314,103.118530 
	C447.306152,106.556175 447.703308,109.269905 448.100433,111.983635 
	C448.395325,113.925911 448.427399,115.962471 449.078400,117.776978 
	C449.505615,118.967690 450.827057,119.837570 451.747986,120.851120 
	C452.615723,119.794037 453.725220,118.848915 454.281494,117.647621 
	C454.812286,116.501465 454.766541,115.088318 455.103516,113.123611 
	C455.281372,111.672623 455.329956,110.890549 455.378540,110.108475 
	C455.325500,107.006416 455.272461,103.904358 455.289001,100.204544 
	C455.555573,99.333656 455.752563,99.060532 455.949585,98.787407 
	C459.810822,104.480927 464.621429,109.762756 467.310760,115.964462 
	C471.342804,125.262497 464.398468,136.343201 454.414856,138.653992 
	C452.974915,138.987305 451.786285,140.406509 450.074646,141.852112 
	C446.477112,148.404999 445.583771,154.831757 445.533173,161.606812 
	C445.514465,164.110306 444.064514,167.490891 442.125366,168.900864 
	C438.489288,171.544754 433.984894,171.776276 429.952484,168.992798 
	C427.321472,167.176651 425.022461,167.365891 422.616089,169.701584 
	C422.015472,170.467926 421.610443,171.123795 420.976715,172.054810 
	C419.659180,174.332047 418.570374,176.334106 417.124420,178.992828 
	C420.322052,179.423279 422.246521,179.682343 424.309357,180.259949 
	C424.630493,181.717621 424.813232,182.856720 424.735046,184.200531 
	C422.045441,186.306396 419.656952,188.261887 417.179169,190.096725 
	C412.906067,193.261017 408.846161,196.556808 407.607666,202.021744 
	C406.858704,201.358856 406.370514,200.911377 405.885345,200.460556 
	C399.932648,194.928986 392.080566,193.454575 385.281342,196.592361 
	C379.027161,199.478622 374.960571,206.172974 376.219391,214.317337 
	C376.901611,218.731155 380.074371,222.760025 381.807678,227.117859 
	C378.100708,229.893661 374.658997,232.451813 371.337708,235.157761 
	C369.321686,236.800262 367.858185,237.893723 365.664124,235.016479 
	C364.468262,233.448303 361.866425,232.952225 359.898712,231.972626 
	C363.260712,226.205933 366.810883,220.415787 366.003784,213.385117 
	C365.616333,210.010300 364.737213,206.560226 363.348175,203.473969 
	C362.245728,201.024490 362.351837,199.761703 364.445618,198.032410 
	C370.194794,193.283997 375.726288,188.271973 381.851196,182.988434 
	C382.883759,182.003143 383.409058,181.393692 383.934326,180.784225 
	C383.934326,180.784225 383.934937,180.394455 384.203308,180.103516 
	C384.952362,178.852280 385.433014,177.891968 385.913666,176.931671 
z"/>
<path fill="#439515" opacity="1.000000" stroke="none" 
	d="
M445.022156,96.558746 
	C444.897034,99.589424 444.834564,102.213669 444.597198,104.821983 
	C444.193665,109.255783 443.882782,113.713646 443.145905,118.096329 
	C442.597626,121.357506 440.731140,121.541626 438.130402,119.636177 
	C436.177856,118.205658 433.874695,117.253670 431.173767,115.928009 
	C430.376160,115.604561 430.150787,115.419411 429.725220,114.951714 
	C428.282562,114.147293 427.058411,113.603081 425.533447,113.158974 
	C424.281311,114.479294 423.329987,115.699501 422.378662,116.919701 
	C422.708527,118.568481 422.827026,120.297134 423.413330,121.849037 
	C424.552826,124.865433 426.297119,127.687469 427.153503,130.767258 
	C428.037781,133.947296 426.854370,136.299881 423.012970,136.569031 
	C421.934845,136.644562 420.180664,137.112686 419.956696,137.798965 
	C417.451965,145.472900 409.729340,146.943420 404.201050,150.710114 
	C397.788727,155.079163 396.161926,161.778214 392.994202,167.851257 
	C391.740143,170.255585 389.963226,172.387253 388.093567,174.779480 
	C389.373383,170.934326 391.558899,167.079041 392.467438,162.943253 
	C394.049255,155.742691 395.435852,148.399338 395.810547,141.060013 
	C396.233429,132.776993 390.429810,127.197845 385.337769,121.083679 
	C386.297546,119.390587 387.159210,118.210602 388.020874,117.030609 
	C390.860687,113.196709 393.700500,109.362816 396.904846,105.135445 
	C397.509003,104.158386 397.748688,103.574814 397.988403,102.991241 
	C397.976318,101.936996 397.964264,100.882744 398.063782,99.113892 
	C398.029938,96.971794 398.281769,95.337982 397.667023,94.154228 
	C395.540710,90.059929 397.058136,87.945068 401.078430,86.893532 
	C401.072815,86.910706 401.055054,86.934891 401.221313,87.243484 
	C405.414948,91.544182 409.858704,92.048080 415.315582,88.984512 
	C423.148895,86.222046 425.964111,80.506653 426.119751,72.673569 
	C426.178986,67.091194 426.161163,61.835861 426.143341,56.580524 
	C433.664978,63.468853 438.408875,72.006165 441.123230,82.559052 
	C442.087830,85.905960 443.023468,88.459335 444.131531,91.061302 
	C444.303986,91.109894 444.652283,91.194206 444.652283,91.194206 
	C444.770233,92.844521 444.888184,94.494835 445.022156,96.558746 
z"/>
<path fill="#439716" opacity="1.000000" stroke="none" 
	d="
M116.986359,393.117615 
	C115.593796,394.751373 114.512230,396.948364 112.753723,397.919434 
	C105.899681,401.704224 98.865776,405.181335 94.454239,412.048828 
	C92.937080,414.410614 91.755882,416.988190 89.925079,419.516418 
	C81.783974,414.801331 74.233093,415.626495 66.741074,419.947662 
	C63.513142,420.443146 60.133259,420.497345 57.094963,421.543549 
	C53.118546,422.912842 50.587772,422.021820 49.211403,418.171478 
	C46.424648,410.375610 43.755836,402.537537 40.956604,393.945007 
	C40.268204,391.111694 39.661583,389.050262 39.054962,386.988831 
	C39.054962,386.988831 39.189140,386.567535 39.425873,386.007996 
	C39.802158,383.627441 39.941704,381.806427 40.081253,379.985382 
	C40.283760,379.193390 40.486267,378.401367 40.807026,377.328125 
	C43.196243,374.996155 45.467213,372.945435 47.945927,370.707092 
	C47.999851,371.691498 48.115055,372.624756 48.091423,373.554474 
	C47.946133,379.270447 48.849285,384.554565 54.231831,387.857300 
	C60.289921,391.574493 66.379028,391.224274 71.840340,386.917877 
	C75.848114,383.757629 77.948677,383.613953 80.903427,388.506683 
	C86.613037,397.961304 96.666061,396.333008 102.226624,385.338470 
	C102.736702,385.341583 102.921806,385.572632 103.101212,386.218384 
	C104.520790,392.725586 106.341385,393.875275 111.634422,391.803284 
	C113.660133,392.277618 115.323242,392.697632 116.986359,393.117615 
z"/>
<path fill="#439C17" opacity="1.000000" stroke="none" 
	d="
M425.957031,56.335632 
	C426.161163,61.835861 426.178986,67.091194 425.958923,72.360054 
	C425.268219,71.300125 424.871918,70.198524 424.353424,69.157799 
	C421.055542,62.538074 415.073944,59.794899 407.713440,61.494213 
	C401.055969,63.031219 396.749054,68.041885 397.256317,75.304718 
	C397.530548,79.231888 399.744904,83.023560 401.084015,86.876358 
	C397.058136,87.945068 395.540710,90.059929 397.667023,94.154228 
	C398.281769,95.337982 398.029938,96.971794 398.062805,98.718529 
	C395.282257,93.406769 390.494141,91.532898 384.619476,90.955154 
	C378.744507,90.377380 378.424652,89.585922 379.825256,84.008232 
	C380.433624,81.585434 380.784302,79.078323 381.602020,76.731461 
	C383.823761,70.355209 380.868011,65.492859 376.627350,61.570404 
	C372.264435,57.534920 366.739288,57.178909 361.151031,59.222572 
	C359.649719,59.771606 358.170288,60.380520 356.381653,60.520832 
	C361.215912,51.998089 370.049316,47.934315 377.196594,41.427681 
	C387.174927,37.455513 396.541107,39.710785 405.678162,43.109592 
	C409.841766,44.658367 413.638702,47.192913 417.937866,49.769180 
	C419.196472,50.819073 420.119202,51.380112 421.041901,51.941151 
	C422.618164,53.324345 424.194427,54.707539 425.957031,56.335632 
z"/>
<path fill="#438D15" opacity="1.000000" stroke="none" 
	d="
M422.811676,169.591095 
	C425.022461,167.365891 427.321472,167.176651 429.952484,168.992798 
	C433.984894,171.776276 438.489288,171.544754 442.125366,168.900864 
	C444.064514,167.490891 445.514465,164.110306 445.533173,161.606812 
	C445.583771,154.831757 446.477112,148.404999 449.958832,142.144852 
	C449.817078,153.710403 449.413910,165.513367 448.922485,177.312653 
	C448.841064,179.267044 448.373993,181.205368 448.056885,183.574127 
	C445.350464,188.241074 442.693359,192.498489 439.987823,196.724869 
	C437.596283,200.460709 435.278137,204.255722 432.653717,207.823090 
	C431.834808,208.936234 430.123901,209.393158 428.821350,210.150497 
	C428.391083,209.874283 427.960815,209.598068 427.530548,209.321869 
	C428.352112,205.891464 429.245392,202.475937 429.962036,199.023773 
	C430.273987,197.520996 430.223389,195.942963 430.145874,193.761414 
	C431.167358,184.188660 428.278656,176.498596 422.811676,169.591095 
z"/>
<path fill="#1F5509" opacity="1.000000" stroke="none" 
	d="
M362.310181,371.008087 
	C355.442139,369.761353 350.207581,372.706177 345.434509,377.279114 
	C342.083679,380.489410 338.487946,383.465210 334.820892,386.313141 
	C333.478180,387.355896 331.615082,387.728607 329.777161,388.113342 
	C337.308411,380.132080 345.111786,372.503296 352.762512,364.724487 
	C355.407135,362.035553 357.672272,358.973419 360.110748,356.081757 
	C360.110748,356.081757 360.039276,356.059357 360.375671,355.955414 
	C365.693604,350.545044 370.675140,345.238617 375.656647,339.932190 
	C377.338440,342.787933 379.020203,345.643677 380.720886,349.054626 
	C380.222870,350.151764 379.705902,350.693726 378.960938,350.973022 
	C377.026123,349.605988 375.319244,348.501617 373.612396,347.397217 
	C372.729553,349.103516 371.070984,350.863312 371.183899,352.500946 
	C371.294983,354.111725 373.203461,355.598602 374.167358,357.445068 
	C370.111053,362.169586 366.210632,366.588837 362.310181,371.008087 
z"/>
<path fill="#51AC2D" opacity="1.000000" stroke="none" 
	d="
M66.478302,420.126099 
	C74.233093,415.626495 81.783974,414.801331 89.704948,419.783325 
	C89.991081,421.389557 90.001236,422.778168 89.854202,424.819885 
	C89.448723,425.978210 89.200432,426.483398 88.952148,426.988586 
	C78.760979,431.995087 68.576073,437.061554 56.865402,430.051208 
	C59.786652,426.634888 63.001095,423.469696 66.478302,420.126099 
z"/>
<path fill="#3E9319" opacity="1.000000" stroke="none" 
	d="
M379.188934,351.235687 
	C379.705902,350.693726 380.222870,350.151764 380.881897,349.367432 
	C381.872589,349.906281 383.426025,350.654785 383.464050,351.473633 
	C384.028900,363.644562 371.622528,376.714111 359.170593,377.234009 
	C358.922668,377.244354 358.659576,376.890411 357.973175,376.397064 
	C359.304840,374.769745 360.613342,373.170746 362.115997,371.289917 
	C366.210632,366.588837 370.111053,362.169586 374.410034,357.243744 
	C376.268677,354.903320 377.728790,353.069489 379.188934,351.235687 
z"/>
<path fill="#428017" opacity="1.000000" stroke="none" 
	d="
M359.787567,356.203369 
	C357.672272,358.973419 355.407135,362.035553 352.762512,364.724487 
	C345.111786,372.503296 337.308411,380.132080 329.379242,388.096436 
	C328.922638,388.442841 328.657227,388.529388 327.891174,388.867584 
	C325.533813,390.711639 323.682556,392.320923 321.831299,393.930176 
	C319.390900,395.861053 316.950531,397.791962 314.005066,400.086639 
	C312.643646,401.239777 311.787262,402.029114 310.930908,402.818451 
	C310.518402,402.891541 310.105927,402.964630 309.382629,403.083313 
	C310.701324,398.395020 313.348480,394.671295 318.118103,392.436646 
	C320.285522,391.421112 322.020111,389.388214 323.804718,387.665253 
	C331.893707,379.855865 339.777679,371.825806 348.060272,364.229340 
	C351.437378,361.131958 355.638275,358.932831 359.787567,356.203369 
z"/>
<path fill="#3E9319" opacity="1.000000" stroke="none" 
	d="
M31.630552,384.901245 
	C23.168684,374.857330 23.404486,360.940735 32.278385,353.648041 
	C33.612568,352.551605 35.447037,352.063965 37.369804,351.550232 
	C37.668602,352.167267 37.647678,352.528748 37.626759,352.890228 
	C35.916660,359.607208 34.206558,366.324188 32.471123,373.896790 
	C32.480942,375.853821 32.516098,376.955200 32.551254,378.056580 
	C32.327461,378.825775 32.103672,379.595001 31.837639,381.060913 
	C31.740452,382.805481 31.685501,383.853363 31.630552,384.901245 
z"/>
<path fill="#1F5509" opacity="1.000000" stroke="none" 
	d="
M121.194016,456.177612 
	C124.340645,455.916870 127.706184,455.951477 131.528015,455.969757 
	C145.530792,456.281677 159.076950,456.624420 172.623993,456.928070 
	C176.099991,457.005981 179.578766,456.960449 183.522430,457.008759 
	C182.331284,457.683441 180.706696,458.437073 179.004868,458.916779 
	C177.911377,459.225006 176.620880,458.887634 175.560516,459.252228 
	C158.859039,464.994293 142.285126,458.919189 125.655533,458.676941 
	C124.230927,458.656189 122.826645,457.240601 121.194016,456.177612 
z"/>
<path fill="#428017" opacity="1.000000" stroke="none" 
	d="
M263.590332,434.901123 
	C264.108887,439.120331 266.213623,441.941650 270.698669,442.466919 
	C274.571686,442.920532 280.245422,439.400177 280.985229,435.402527 
	C281.818054,430.902344 284.264465,429.711792 288.660889,430.048035 
	C286.372864,433.784943 284.192017,438.097137 280.843414,441.112427 
	C276.056183,445.423065 270.160980,446.099457 264.094604,443.113403 
	C258.370239,440.295654 258.197968,439.005707 263.590332,434.901123 
z"/>
<path fill="#428017" opacity="1.000000" stroke="none" 
	d="
M241.378601,442.016052 
	C245.600052,438.643768 250.154770,435.154602 254.725891,431.687073 
	C257.497925,429.584290 260.164215,427.297974 263.127899,425.507751 
	C265.067383,424.336182 267.511017,423.220062 269.619293,423.395569 
	C270.912445,423.503204 273.255829,426.544586 272.921722,427.484314 
	C272.176514,429.580414 270.146545,431.287201 268.431885,432.936218 
	C267.795349,433.548431 266.576599,433.555328 265.255066,433.898010 
	C266.845825,431.779053 268.804871,429.600403 270.763885,427.421753 
	C270.334564,426.854950 269.905243,426.288177 269.475922,425.721375 
	C267.683990,426.472961 265.764496,427.014496 264.122040,428.012207 
	C256.611816,432.574249 249.179245,437.264252 241.378601,442.016052 
z"/>
<path fill="#428017" opacity="1.000000" stroke="none" 
	d="
M375.810547,339.678650 
	C370.675140,345.238617 365.693604,350.545044 360.401947,355.982147 
	C362.273285,346.463196 371.016357,342.448608 377.396179,336.356018 
	C377.410675,336.993927 377.207062,337.492981 377.003448,337.992065 
	C376.657104,338.469757 376.310791,338.947449 375.810547,339.678650 
z"/>
<path fill="#1F5509" opacity="1.000000" stroke="none" 
	d="
M140.978561,465.738373 
	C146.525650,462.150482 157.863800,462.985626 163.794601,468.533051 
	C161.044586,468.354279 159.584976,468.259369 157.630066,467.776886 
	C151.749359,466.838989 146.363953,466.288666 140.978561,465.738373 
z"/>
<path fill="#428017" opacity="1.000000" stroke="none" 
	d="
M289.296783,429.834229 
	C288.288849,428.661530 287.669250,427.150787 286.718506,425.889709 
	C285.621796,424.435059 284.232849,423.200684 282.970825,421.870667 
	C284.764557,420.643402 286.558289,419.416138 288.714447,418.131775 
	C288.210876,419.231079 287.344879,420.387482 286.080017,422.076477 
	C288.601685,422.262512 290.576660,422.408234 293.861023,422.650574 
	C292.130127,425.436157 290.834442,427.521362 289.296783,429.834229 
z"/>
<path fill="#1F5509" opacity="1.000000" stroke="none" 
	d="
M69.084496,447.240967 
	C69.934189,447.212708 71.312813,447.254303 71.729889,447.908722 
	C75.776741,454.258545 82.529442,452.499237 88.705032,453.751190 
	C78.336128,457.196838 72.693695,455.419678 69.084496,447.240967 
z"/>
<path fill="#428017" opacity="1.000000" stroke="none" 
	d="
M289.399414,418.002625 
	C293.988098,411.176880 300.464142,406.263245 308.738831,403.145782 
	C302.643768,408.018860 296.186615,412.957642 289.399414,418.002625 
z"/>
<path fill="#39781E" opacity="1.000000" stroke="none" 
	d="
M140.565140,465.775208 
	C146.363953,466.288666 151.749359,466.838989 157.370667,467.614502 
	C153.380280,467.935394 149.154007,468.031128 144.066956,468.141968 
	C142.144867,468.198334 141.083557,468.239532 140.022247,468.280701 
	C137.881775,468.011688 135.741302,467.742676 133.684296,467.178040 
	C134.514542,466.608521 135.261322,466.334564 136.008102,466.060669 
	C137.389313,465.977783 138.770508,465.894928 140.565140,465.775208 
z"/>
<path fill="#428017" opacity="1.000000" stroke="none" 
	d="
M385.397583,325.165649 
	C388.566986,319.700409 392.006165,314.010040 395.748016,308.169495 
	C392.589569,313.659729 389.128448,319.300140 385.397583,325.165649 
z"/>
<path fill="#428017" opacity="1.000000" stroke="none" 
	d="
M230.755875,443.003967 
	C233.484146,442.996552 235.962189,442.990692 238.779221,443.066956 
	C234.658081,445.046112 230.197968,446.943115 225.370300,448.580017 
	C225.002640,447.881989 225.002533,447.444061 225.002441,447.006104 
	C225.002441,447.006104 225.000610,447.000000 225.310822,446.865967 
	C227.082428,445.490601 228.543823,444.249298 230.005203,443.007965 
	C230.172028,443.007141 230.338837,443.006348 230.755875,443.003967 
z"/>
<path fill="#1F5509" opacity="1.000000" stroke="none" 
	d="
M135.853577,465.750610 
	C135.261322,466.334564 134.514542,466.608521 133.482727,466.949524 
	C131.861588,466.754883 130.525497,466.493225 129.189392,466.231598 
	C129.531128,465.416260 130.019073,463.864471 130.192154,463.898804 
	C132.056320,464.268890 133.870911,464.888916 135.853577,465.750610 
z"/>
<path fill="#428017" opacity="1.000000" stroke="none" 
	d="
M378.112457,335.230896 
	C378.066650,331.344299 379.058350,328.148315 383.816162,327.144226 
	C383.052094,329.030884 381.920288,330.987671 380.427979,333.430237 
	C379.415833,334.354279 378.764160,334.792572 378.112457,335.230896 
z"/>
<path fill="#1F5709" opacity="1.000000" stroke="none" 
	d="
M448.325256,111.722672 
	C447.703308,109.269905 447.306152,106.556175 446.922424,103.418045 
	C450.444580,105.250046 450.608490,108.144058 448.325256,111.722672 
z"/>
<path fill="#438414" opacity="1.000000" stroke="none" 
	d="
M224.630676,447.092224 
	C225.002533,447.444061 225.002640,447.881989 225.003067,448.648315 
	C222.262253,449.667419 219.521118,450.358154 216.380630,451.061829 
	C218.740494,449.775940 221.499710,448.477142 224.630676,447.092224 
z"/>
<path fill="#1F5609" opacity="1.000000" stroke="none" 
	d="
M38.845123,387.196045 
	C39.661583,389.050262 40.268204,391.111694 40.871872,393.552338 
	C39.374172,392.012115 36.219467,390.660645 38.845123,387.196045 
z"/>
<path fill="#1F5509" opacity="1.000000" stroke="none" 
	d="
M378.041931,335.423798 
	C378.764160,334.792572 379.415833,334.354279 380.306458,333.746094 
	C381.829285,336.552185 381.685547,338.610077 377.307007,338.065887 
	C377.207062,337.492981 377.410675,336.993927 377.708221,336.242950 
	C377.802155,335.991058 377.971375,335.616699 378.041931,335.423798 
z"/>
<path fill="#1F5509" opacity="1.000000" stroke="none" 
	d="
M106.132629,455.239960 
	C107.064461,454.953186 108.137695,454.966614 109.609940,455.038269 
	C110.008949,456.602417 110.008949,458.108337 110.008949,459.614258 
	C109.618912,459.705292 109.228867,459.796295 108.838829,459.887329 
	C107.983902,458.438263 107.128975,456.989197 106.132629,455.239960 
z"/>
<path fill="#215708" opacity="1.000000" stroke="none" 
	d="
M322.189575,393.864014 
	C323.682556,392.320923 325.533813,390.711639 327.698425,388.960632 
	C326.190521,390.478577 324.369202,392.138245 322.189575,393.864014 
z"/>
<path fill="#1F5609" opacity="1.000000" stroke="none" 
	d="
M39.834206,380.178589 
	C39.941704,381.806427 39.802158,383.627441 39.480495,385.793823 
	C37.327129,384.113159 37.465885,382.192810 39.834206,380.178589 
z"/>
<path fill="#439016" opacity="1.000000" stroke="none" 
	d="
M443.959076,91.012711 
	C443.023468,88.459335 442.087830,85.905960 441.126373,82.919281 
	C441.793335,83.782410 442.486084,85.078850 443.349426,87.032562 
	C443.666351,88.797455 443.812714,89.905090 443.959076,91.012711 
z"/>
<path fill="#1F5509" opacity="1.000000" stroke="none" 
	d="
M140.165131,468.502686 
	C141.083557,468.239532 142.144867,468.198334 143.604401,468.179047 
	C142.771088,468.375519 141.539551,468.550079 140.165131,468.502686 
z"/>
<path fill="#1F5509" opacity="1.000000" stroke="none" 
	d="
M311.100342,402.978119 
	C311.787262,402.029114 312.643646,401.239777 313.752686,400.307465 
	C313.093536,401.155609 312.181671,402.146698 311.100342,402.978119 
z"/>
<path fill="#1F5709" opacity="1.000000" stroke="none" 
	d="
M444.131531,91.061310 
	C443.812714,89.905090 443.666351,88.797455 443.507385,87.357605 
	C444.007568,88.297600 444.520325,89.569832 444.842682,91.018127 
	C444.652283,91.194206 444.303986,91.109894 444.131531,91.061310 
z"/>
<path fill="#1F5509" opacity="1.000000" stroke="none" 
	d="
M97.133484,454.388428 
	C97.844101,454.267120 98.673683,454.351227 99.803741,454.533691 
	C99.153625,454.619324 98.203033,454.606628 97.133484,454.388428 
z"/>
<path fill="#1F5609" opacity="1.000000" stroke="none" 
	d="
M31.866684,384.739807 
	C31.685501,383.853363 31.740452,382.805481 31.833595,381.364655 
	C31.948799,382.173920 32.025806,383.376129 31.866684,384.739807 
z"/>
<path fill="#1F5609" opacity="1.000000" stroke="none" 
	d="
M32.794769,377.871918 
	C32.516098,376.955200 32.480942,375.853821 32.516479,374.341980 
	C32.737541,375.183441 32.887917,376.435364 32.794769,377.871918 
z"/>
<path fill="#1F5609" opacity="1.000000" stroke="none" 
	d="
M37.870979,352.810120 
	C37.647678,352.528748 37.668602,352.167267 37.714668,351.536407 
	C38.300861,351.255676 38.861908,351.244293 39.422958,351.232910 
	C38.987041,351.731964 38.551121,352.230988 37.870979,352.810120 
z"/>
<path fill="#1F5709" opacity="1.000000" stroke="none" 
	d="
M455.820312,98.668083 
	C455.752563,99.060532 455.555573,99.333656 455.203247,99.805359 
	C454.832214,99.470329 454.616486,98.936714 454.400757,98.403091 
	C454.830872,98.451653 455.260956,98.500206 455.820312,98.668083 
z"/>
<path fill="#439515" opacity="1.000000" stroke="none" 
	d="
M420.831055,51.715218 
	C420.119202,51.380112 419.196472,50.819073 418.177979,49.999313 
	C418.928192,50.323490 419.774170,50.906384 420.831055,51.715218 
z"/>
<path fill="#1F5709" opacity="1.000000" stroke="none" 
	d="
M446.851318,100.935471 
	C446.548889,100.341301 446.330200,99.499748 446.098145,98.333984 
	C446.368195,98.902542 446.651611,99.795311 446.851318,100.935471 
z"/>
<path fill="#1F5709" opacity="1.000000" stroke="none" 
	d="
M455.263123,110.285599 
	C455.329956,110.890549 455.281372,111.672623 455.130035,112.735855 
	C455.067444,112.165581 455.107605,111.314148 455.263123,110.285599 
z"/>
<path fill="#1F5509" opacity="1.000000" stroke="none" 
	d="
M100.657669,460.004883 
	C100.553749,460.087952 100.454895,460.113800 100.356041,460.139648 
	C100.458275,460.075653 100.560501,460.011658 100.657669,460.004883 
z"/>
<path fill="#438D15" opacity="1.000000" stroke="none" 
	d="
M359.649109,232.183044 
	C361.866425,232.952225 364.468262,233.448303 365.664124,235.016479 
	C367.858185,237.893723 369.321686,236.800262 371.337708,235.157761 
	C374.658997,232.451813 378.100708,229.893661 382.125549,227.274323 
	C387.300018,229.697906 391.903381,230.271347 397.081085,229.137222 
	C404.990234,227.404831 407.574707,221.354431 410.279602,214.828598 
	C411.014404,214.515488 411.507416,214.315521 412.000397,214.115540 
	C413.133820,215.038803 414.339813,215.888062 415.379303,216.907166 
	C416.331451,217.840637 417.103760,218.957520 417.955292,219.993591 
	C416.805603,220.733582 415.576294,222.191956 414.521545,222.075043 
	C411.679352,221.759979 410.670898,222.786072 410.163300,225.445221 
	C409.919739,226.721115 408.761505,228.400940 407.615631,228.833725 
	C399.108582,232.046646 393.779694,238.663071 388.762665,245.711166 
	C388.109375,246.628983 387.160645,247.623581 386.145081,247.951126 
	C377.936523,250.598572 373.633606,257.113739 369.595886,264.043640 
	C368.630585,265.700409 367.062653,267.333313 365.372742,268.187561 
	C354.346283,273.761444 347.602722,283.676117 339.560486,292.421509 
	C335.118683,297.251678 328.809357,300.547455 322.935516,303.801300 
	C319.948151,305.456146 319.290771,306.453278 320.984802,309.382355 
	C321.816376,310.820129 321.673065,312.821716 321.683044,314.645874 
	C320.178497,312.943634 319.189880,310.933899 317.686829,309.442657 
	C315.861877,307.632050 313.800568,305.372772 311.495544,304.858582 
	C303.829498,303.148590 295.462341,308.400116 292.476349,316.130829 
	C289.507538,323.817078 290.902588,327.354340 299.081909,332.906738 
	C299.492676,333.185577 299.865997,333.519562 300.256744,333.827881 
	C296.860779,335.305023 292.802734,336.040039 290.177979,338.381622 
	C274.956085,351.961273 260.166718,366.024536 245.017212,379.687164 
	C240.262253,383.975433 234.890854,387.592255 229.692719,391.366425 
	C228.706009,392.082855 227.214294,392.127838 225.940750,392.417358 
	C224.983124,392.635010 223.207047,392.610779 223.152069,392.928833 
	C222.496231,396.722717 218.449249,398.265167 217.267990,401.030457 
	C213.685577,409.416962 206.020462,413.799927 200.426178,420.151520 
	C198.585022,422.241974 196.061157,423.727936 194.199295,425.804047 
	C191.526840,428.783905 189.339005,429.076843 187.075592,424.904968 
	C186.923431,424.430023 186.975586,424.065643 187.163696,423.768860 
	C188.533463,419.965698 190.550980,416.483124 190.651520,412.946014 
	C190.744095,409.689545 188.775635,406.374451 187.715073,403.085205 
	C188.930725,398.859497 186.350525,396.586823 183.243408,394.753265 
	C180.346313,393.043579 177.304276,391.579529 174.696823,390.203094 
	C179.353867,387.420959 183.716171,384.814880 188.409637,382.450378 
	C188.736176,383.141907 188.731537,383.591888 188.493317,384.195892 
	C185.041138,387.574890 187.661774,388.738922 190.432785,390.179443 
	C198.262314,400.005951 210.073669,400.233093 215.176849,390.344482 
	C217.492081,385.858185 217.706711,380.287842 218.874222,375.209259 
	C217.412125,369.552734 214.537613,365.388489 208.201736,364.494629 
	C204.309708,363.945557 204.674667,361.821686 206.868027,359.116425 
	C207.056870,358.870911 207.459625,358.800659 207.901550,358.987610 
	C213.601837,360.623077 219.595184,356.685028 220.951904,350.890015 
	C222.218613,349.110779 223.485306,347.331543 225.247360,345.143311 
	C228.912186,343.943909 232.115829,343.266541 235.238754,342.322235 
	C237.215515,341.724518 239.071930,340.728821 240.982315,339.911591 
	C250.203171,333.838989 257.034363,326.459839 256.088440,314.262207 
	C255.990067,312.994019 258.297546,310.756836 259.886230,310.272186 
	C267.819214,307.852203 275.899231,305.919403 283.900269,303.716156 
	C293.862030,300.972931 298.304199,293.682159 299.832062,284.065460 
	C299.884186,283.737335 299.926758,283.401764 299.918945,283.070953 
	C299.729736,275.049927 301.256439,269.777771 311.306610,268.008057 
	C321.157318,266.273499 328.827057,259.485901 330.353973,248.075027 
	C330.552887,246.588531 333.075897,244.248230 334.485565,244.274597 
	C344.878204,244.468887 352.574768,239.441620 359.649109,232.183044 
z"/>
<path fill="#5BBC2D" opacity="1.000000" stroke="none" 
	d="
M179.998749,319.914307 
	C180.662506,323.655396 181.842041,327.389832 181.890167,331.138824 
	C182.017853,341.089203 174.231995,348.333954 163.845398,348.447388 
	C154.780579,348.546326 146.178299,340.155518 146.008743,331.049164 
	C145.745728,316.924530 156.108643,308.845703 169.811005,312.491821 
	C171.580933,312.962769 173.353012,313.425507 175.653442,314.257172 
	C177.454773,316.386292 178.726761,318.150299 179.998749,319.914307 
z"/>
<path fill="#5BBC2D" opacity="1.000000" stroke="none" 
	d="
M331.673370,138.826416 
	C338.666412,129.507172 349.172363,127.762199 357.062347,134.316757 
	C363.397156,139.579346 364.584259,152.080475 359.480560,159.782288 
	C355.596069,165.644241 346.292053,167.841339 339.327545,164.541306 
	C330.983093,160.587418 326.954865,150.992111 330.030853,142.314987 
	C330.417267,141.224976 330.996735,140.203400 331.673370,138.826416 
z"/>
<path fill="#5BBC2D" opacity="1.000000" stroke="none" 
	d="
M388.055359,116.608597 
	C387.159210,118.210602 386.297546,119.390587 385.195557,120.778900 
	C381.993591,122.076981 378.949097,122.985748 376.087982,124.295250 
	C370.619904,126.797920 365.753784,126.095154 361.348938,122.069511 
	C356.039398,117.217056 352.267395,111.774948 354.887848,104.084717 
	C358.120331,94.598419 366.360718,89.640907 375.416565,91.679672 
	C384.177460,93.652031 389.776520,102.114334 388.675903,111.736465 
	C388.505890,113.222733 388.286407,114.703346 388.055359,116.608597 
z"/>
<path fill="#5BBC2D" opacity="1.000000" stroke="none" 
	d="
M276.771667,248.077576 
	C268.174774,249.782944 261.765564,247.217407 257.911957,240.808258 
	C254.099396,234.467392 254.606232,226.932343 259.261139,220.749771 
	C263.660156,214.907059 273.896942,213.347672 281.079346,217.426193 
	C287.401306,221.016113 289.888458,228.826752 287.416077,235.910416 
	C285.515686,241.355225 282.706421,245.754028 276.771667,248.077576 
z"/>
<path fill="#5BBC2D" opacity="1.000000" stroke="none" 
	d="
M74.794937,348.728638 
	C84.882057,340.941956 99.197784,345.934937 101.357956,357.644318 
	C102.442429,363.522797 97.109413,373.199188 91.313683,375.868988 
	C85.124672,378.719940 77.418144,376.209167 72.424667,369.714996 
	C68.079842,364.064392 68.230499,356.557831 72.824715,350.805054 
	C73.341705,350.157684 73.957603,349.589294 74.794937,348.728638 
z"/>
<path fill="#5BBC2D" opacity="1.000000" stroke="none" 
	d="
M113.576324,347.792847 
	C104.988121,345.228638 100.904472,339.823517 101.062271,331.722748 
	C101.185143,325.415131 105.980698,319.473694 112.443108,317.622467 
	C119.561615,315.583252 126.955536,318.519958 130.925507,324.963226 
	C135.918976,333.067688 129.498169,346.506409 119.947273,347.794373 
	C117.995224,348.057648 115.978813,347.843567 113.576324,347.792847 
z"/>
<path fill="#5BBC2D" opacity="1.000000" stroke="none" 
	d="
M304.274170,242.687347 
	C299.772247,237.179291 298.659790,231.177704 301.185394,225.079086 
	C303.437073,219.641846 308.082794,216.665710 314.079742,216.130859 
	C321.139526,215.501190 327.064362,219.194061 329.832306,225.936554 
	C332.511719,232.463486 330.545715,239.856659 324.922791,244.398773 
	C319.664368,248.646484 312.620941,248.854782 306.805237,244.893753 
	C305.985107,244.335175 305.282166,243.604523 304.274170,242.687347 
z"/>
<path fill="#5BBC2D" opacity="1.000000" stroke="none" 
	d="
M225.211914,276.592529 
	C227.483932,269.298981 232.148392,265.834320 238.846741,266.090057 
	C245.328445,266.337585 251.227066,270.972534 252.359894,276.708252 
	C253.599442,282.984344 250.556595,289.502167 245.055756,292.353729 
	C239.878983,295.037323 231.083023,293.786682 227.854935,288.715240 
	C225.827911,285.530701 225.980820,280.958588 225.211914,276.592529 
z"/>
<path fill="#1F5B07" opacity="1.000000" stroke="none" 
	d="
M103.073898,385.830139 
	C102.921806,385.572632 102.736702,385.341583 102.347755,384.994751 
	C99.231270,374.510712 100.922974,370.293121 110.335709,364.985413 
	C112.906502,363.535828 115.640938,362.376404 118.657883,361.016113 
	C117.051079,362.688660 115.201408,364.583710 113.100945,366.140381 
	C106.597054,370.960388 105.894943,377.052155 112.011040,382.395721 
	C115.583008,385.516510 120.018410,387.661011 124.114227,390.164795 
	C125.906563,391.260437 127.821114,392.156219 130.759811,393.715729 
	C125.402740,396.056549 121.624878,393.532990 117.374313,393.162903 
	C115.323242,392.697632 113.660133,392.277618 111.403610,391.562042 
	C108.231430,389.454346 105.652664,387.642242 103.073898,385.830139 
z"/>
<path fill="#205D09" opacity="1.000000" stroke="none" 
	d="
M305.785950,197.029373 
	C304.484406,189.360245 306.402435,184.512680 312.885620,181.377441 
	C317.760864,179.019806 323.147278,177.719147 328.675781,176.798309 
	C322.818909,180.414673 316.158569,182.593536 313.691650,189.912918 
	C311.329926,196.920013 313.514221,202.874680 317.546143,208.711884 
	C310.538269,208.096649 308.226868,202.744766 305.785950,197.029373 
z"/>
<path fill="#205D09" opacity="1.000000" stroke="none" 
	d="
M180.318436,319.700928 
	C178.726761,318.150299 177.454773,316.386292 176.029465,314.323425 
	C175.704208,310.224609 175.123947,306.390076 175.442413,302.631714 
	C176.181702,293.907623 178.380722,292.242706 188.572327,292.447021 
	C189.111404,293.340179 189.165634,293.843536 189.219864,294.346924 
	C183.953796,298.655731 181.953049,304.309570 181.937576,310.992767 
	C181.931030,313.825378 181.096390,316.656036 180.318436,319.700928 
z"/>
<path fill="#25740D" opacity="1.000000" stroke="none" 
	d="
M189.610504,294.216980 
	C189.165634,293.843536 189.111404,293.340179 189.011307,292.460083 
	C196.235901,291.648773 203.581238,289.872498 210.692657,292.288422 
	C210.682144,292.887970 210.671631,293.487518 210.661118,294.087067 
	C203.774475,294.087067 196.887817,294.087067 189.610504,294.216980 
z"/>
<path fill="#439215" opacity="1.000000" stroke="none" 
	d="
M240.528091,339.929993 
	C239.071930,340.728821 237.215515,341.724518 235.238754,342.322235 
	C232.115829,343.266541 228.912186,343.943909 225.420044,344.860718 
	C226.096161,340.642334 228.657974,339.029938 233.127594,339.891724 
	C235.363541,340.322815 237.753540,339.954956 240.528091,339.929993 
z"/>
<path fill="#439215" opacity="1.000000" stroke="none" 
	d="
M220.675995,351.088867 
	C219.595184,356.685028 213.601837,360.623077 208.104980,358.967346 
	C212.044342,356.269348 216.222214,353.778564 220.675995,351.088867 
z"/>
<path fill="#439515" opacity="1.000000" stroke="none" 
	d="
M385.725586,177.170593 
	C385.433014,177.891968 384.952362,178.852280 384.215424,179.909012 
	C384.485260,179.140121 385.011383,178.274826 385.725586,177.170593 
z"/>
<path fill="#439C17" opacity="1.000000" stroke="none" 
	d="
M397.844788,103.233337 
	C397.748688,103.574814 397.509003,104.158386 397.108002,104.864220 
	C397.198181,104.482796 397.449707,103.979118 397.844788,103.233337 
z"/>
<path fill="#439515" opacity="1.000000" stroke="none" 
	d="
M383.697052,180.973221 
	C383.409058,181.393692 382.883759,182.003143 382.110596,182.789093 
	C382.395081,182.364456 382.927429,181.763336 383.697052,180.973221 
z"/>
<path fill="#1F5B07" opacity="1.000000" stroke="none" 
	d="
M120.743607,359.666931 
	C120.503372,359.881348 119.991531,360.269958 119.217216,360.842957 
	C119.460503,360.631897 119.966255,360.236511 120.743607,359.666931 
z"/>
<path fill="#51AC2D" opacity="1.000000" stroke="none" 
	d="
M300.661072,333.856628 
	C299.865997,333.519562 299.492676,333.185577 299.081909,332.906738 
	C290.902588,327.354340 289.507538,323.817078 292.476349,316.130829 
	C295.462341,308.400116 303.829498,303.148590 311.495544,304.858582 
	C313.800568,305.372772 315.861877,307.632050 317.686829,309.442657 
	C319.189880,310.933899 320.178497,312.943634 321.612488,314.988159 
	C321.437317,318.671631 321.486084,322.214661 320.566345,325.485321 
	C318.168243,334.012878 314.735657,335.995026 305.964111,334.643982 
	C304.330994,334.392487 302.698303,334.138306 300.661072,333.856628 
z"/>
<path fill="#215708" opacity="1.000000" stroke="none" 
	d="
M317.172302,357.730896 
	C317.878693,371.659515 306.362518,385.350677 292.335144,387.425201 
	C288.911316,387.931610 285.393463,387.802368 281.458466,387.979553 
	C274.959381,386.454193 268.920685,384.914703 262.881989,383.375183 
	C262.982117,383.020264 263.082245,382.665375 263.182373,382.310455 
	C270.872528,381.924286 278.559692,381.459961 286.253479,381.169983 
	C298.341949,380.714325 306.750458,375.150330 311.079376,363.702454 
	C311.903687,361.522675 312.801208,359.365173 313.779175,357.250244 
	C315.000671,354.608643 316.084320,355.518158 317.172302,357.730896 
z"/>
<path fill="#205808" opacity="1.000000" stroke="none" 
	d="
M360.783081,282.096161 
	C365.297791,281.728516 369.455627,281.577667 373.541687,280.955231 
	C378.414124,280.213043 381.144897,277.383026 381.242065,272.162323 
	C381.319183,268.020264 381.708160,263.878265 382.108673,259.750793 
	C382.267883,258.109863 382.831238,256.508148 383.277466,254.603058 
	C389.639862,258.991577 390.871033,274.000427 386.089874,281.036621 
	C380.820557,288.791229 367.422668,289.984161 357.185699,283.162018 
	C358.527344,282.719696 359.460907,282.411926 360.783081,282.096161 
z"/>
<path fill="#205A06" opacity="1.000000" stroke="none" 
	d="
M412.301239,213.934799 
	C411.507416,214.315521 411.014404,214.515488 410.286896,214.489990 
	C410.688538,212.839096 411.324677,211.413651 412.192474,209.811340 
	C412.782684,209.178177 413.141266,208.721848 413.781036,208.106140 
	C420.929321,201.434204 425.631531,193.933380 424.995972,183.995834 
	C424.813232,182.856720 424.630493,181.717621 424.237518,179.895233 
	C423.086700,176.734528 422.146057,174.257095 421.205414,171.779648 
	C421.610443,171.123795 422.015472,170.467926 422.616089,169.701584 
	C428.278656,176.498596 431.167358,184.188660 429.958557,193.560349 
	C426.883545,202.961884 421.439941,209.849274 412.301239,213.934799 
z"/>
<path fill="#205A06" opacity="1.000000" stroke="none" 
	d="
M186.975586,424.065613 
	C186.975586,424.065643 186.923431,424.430023 186.907440,424.612610 
	C182.211578,429.022858 177.886063,433.369843 170.564392,433.010651 
	C162.144012,432.597595 160.526154,431.930115 157.479507,423.283264 
	C157.237000,419.682556 157.120621,416.399506 157.354767,412.749512 
	C158.592987,413.645569 159.763519,414.799469 160.302734,416.196930 
	C161.130203,418.341461 161.371292,420.706512 162.130112,422.884308 
	C164.205109,428.839417 166.234619,429.824707 172.179855,428.140778 
	C177.101654,426.746735 182.042923,425.421387 186.975586,424.065613 
z"/>
<path fill="#438414" opacity="1.000000" stroke="none" 
	d="
M229.661163,443.079254 
	C228.543823,444.249298 227.082428,445.490601 225.313339,446.865967 
	C226.442810,445.716888 227.879959,444.433716 229.661163,443.079254 
z"/>
<path fill="#51AC2E" opacity="1.000000" stroke="none" 
	d="
M187.163696,423.768860 
	C182.042923,425.421387 177.101654,426.746735 172.179855,428.140778 
	C166.234619,429.824707 164.205109,428.839417 162.130112,422.884308 
	C161.371292,420.706512 161.130203,418.341461 160.302734,416.196930 
	C159.763519,414.799469 158.592987,413.645569 157.368469,412.306488 
	C157.416412,399.927612 162.883255,397.159271 173.871628,395.366913 
	C180.029388,394.362488 183.421204,399.057983 187.465759,402.896301 
	C188.775635,406.374451 190.744095,409.689545 190.651520,412.946014 
	C190.550980,416.483124 188.533463,419.965698 187.163696,423.768860 
z"/>
<path fill="#51AC2D" opacity="1.000000" stroke="none" 
	d="
M218.607773,375.007690 
	C217.706711,380.287842 217.492081,385.858185 215.176849,390.344482 
	C210.073669,400.233093 198.262314,400.005951 190.347610,389.809845 
	C189.613144,387.469635 189.170029,385.755737 188.726898,384.041870 
	C188.731537,383.591888 188.736176,383.141907 188.728790,382.354614 
	C189.340424,375.029388 192.133362,369.547546 199.266891,367.261444 
	C206.179504,365.046112 211.533463,367.845276 216.170700,372.762634 
	C216.851273,373.484344 217.615692,374.126923 218.607773,375.007690 
z"/>
<path fill="#51AC2D" opacity="1.000000" stroke="none" 
	d="
M86.551628,448.619080 
	C84.237572,448.309540 82.312851,448.074768 79.101974,447.683075 
	C82.726715,444.625061 85.401657,442.055603 88.432571,440.014862 
	C89.267441,439.452728 91.605965,440.001251 92.496178,440.842560 
	C95.936882,444.094421 99.071083,447.670593 102.991600,451.840912 
	C97.305412,450.725983 92.123184,449.709900 86.551628,448.619080 
z"/>
<path fill="#439716" opacity="1.000000" stroke="none" 
	d="
M89.112518,426.866333 
	C89.200432,426.483398 89.448723,425.978210 89.849594,425.236511 
	C89.759071,425.581360 89.515976,426.162720 89.112518,426.866333 
z"/>
<path fill="#438815" opacity="1.000000" stroke="none" 
	d="
M401.964874,286.989502 
	C401.967529,286.969269 401.962219,287.009735 401.964874,286.989502 
z"/>
<path fill="#51AC2E" opacity="1.000000" stroke="none" 
	d="
M411.960815,209.988190 
	C411.324677,211.413651 410.688538,212.839096 410.045044,214.603149 
	C407.574707,221.354431 404.990234,227.404831 397.081085,229.137222 
	C391.903381,230.271347 387.300018,229.697906 382.441528,227.118988 
	C380.074371,222.760025 376.901611,218.731155 376.219391,214.317337 
	C374.960571,206.172974 379.027161,199.478622 385.281342,196.592361 
	C392.080566,193.454575 399.932648,194.928986 405.885345,200.460556 
	C406.370514,200.911377 406.858704,201.358856 407.639709,202.212463 
	C407.933929,202.617035 408.008209,203.000031 408.109863,203.339142 
	C409.461273,205.781570 410.711029,207.884872 411.960815,209.988190 
z"/>
<path fill="#1F5907" opacity="1.000000" stroke="none" 
	d="
M422.593872,117.150314 
	C423.329987,115.699501 424.281311,114.479294 425.802979,113.357506 
	C427.563477,114.041252 428.753632,114.626587 429.943787,115.211914 
	C430.150787,115.419411 430.376160,115.604561 430.805908,115.882744 
	C432.817932,118.932274 435.142120,121.671448 436.380585,124.835571 
	C440.879517,136.329590 434.399994,148.038193 420.662537,151.806076 
	C422.944305,148.505844 424.577637,145.966629 426.385864,143.558746 
	C434.291687,133.031250 434.288879,131.638580 425.988129,121.220932 
	C424.952759,119.921555 423.869965,118.660004 422.593872,117.150314 
z"/>
<path fill="#438D15" opacity="1.000000" stroke="none" 
	d="
M408.008209,203.000031 
	C408.008209,203.000031 407.933929,202.617035 407.901855,202.426300 
	C408.846161,196.556808 412.906067,193.261017 417.179169,190.096725 
	C419.656952,188.261887 422.045441,186.306396 424.735046,184.200531 
	C425.631531,193.933380 420.929321,201.434204 413.490662,207.875839 
	C411.282104,206.203293 409.645172,204.601654 408.008209,203.000031 
z"/>
<path fill="#438D15" opacity="1.000000" stroke="none" 
	d="
M420.976715,172.054810 
	C422.146057,174.257095 423.086700,176.734528 424.099152,179.576691 
	C422.246521,179.682343 420.322052,179.423279 417.124420,178.992828 
	C418.570374,176.334106 419.659180,174.332047 420.976715,172.054810 
z"/>
<path fill="#51AD2D" opacity="1.000000" stroke="none" 
	d="
M401.078430,86.893532 
	C399.744904,83.023560 397.530548,79.231888 397.256317,75.304718 
	C396.749054,68.041885 401.055969,63.031219 407.713440,61.494213 
	C415.073944,59.794899 421.055542,62.538074 424.353424,69.157799 
	C424.871918,70.198524 425.268219,71.300125 425.881836,72.687088 
	C425.964111,80.506653 423.148895,86.222046 414.873657,88.974792 
	C409.746552,88.360634 405.400818,87.647766 401.055054,86.934891 
	C401.055054,86.934891 401.072815,86.910706 401.078430,86.893532 
z"/>
<path fill="#439C17" opacity="1.000000" stroke="none" 
	d="
M401.221313,87.243484 
	C405.400818,87.647766 409.746552,88.360634 414.534241,89.083237 
	C409.858704,92.048080 405.414948,91.544182 401.221313,87.243484 
z"/>
<path fill="#439016" opacity="1.000000" stroke="none" 
	d="
M429.725220,114.951714 
	C428.753632,114.626587 427.563477,114.041252 426.103821,113.257393 
	C427.058411,113.603081 428.282562,114.147293 429.725220,114.951714 
z"/>
<path fill="#439215" opacity="1.000000" stroke="none" 
	d="
M103.101212,386.218384 
	C105.652664,387.642242 108.231430,389.454346 111.041008,391.507690 
	C106.341385,393.875275 104.520790,392.725586 103.101212,386.218384 
z"/>
<path fill="#1D5108" opacity="1.000000" stroke="none" 
	d="
M378.960938,350.973022 
	C377.728790,353.069489 376.268677,354.903320 374.565918,356.938477 
	C373.203461,355.598602 371.294983,354.111725 371.183899,352.500946 
	C371.070984,350.863312 372.729553,349.103516 373.612396,347.397217 
	C375.319244,348.501617 377.026123,349.605988 378.960938,350.973022 
z"/>
<path fill="#439215" opacity="1.000000" stroke="none" 
	d="
M188.493332,384.195892 
	C189.170029,385.755737 189.613144,387.469635 190.141449,389.553101 
	C187.661774,388.738922 185.041138,387.574890 188.493332,384.195892 
z"/>
<path fill="#439016" opacity="1.000000" stroke="none" 
	d="
M408.109863,203.339142 
	C409.645172,204.601654 411.282104,206.203293 413.209412,208.035217 
	C413.141266,208.721848 412.782684,209.178177 412.192474,209.811340 
	C410.711029,207.884872 409.461273,205.781570 408.109863,203.339142 
z"/>
</svg>