<svg version="1.1" id="Layer_1" xmlns="http://www.w3.org/2000/svg" xmlns:xlink="http://www.w3.org/1999/xlink" x="0px" y="0px"
	 width="100%" viewBox="0 0 1024 1024" enable-background="new 0 0 1024 1024" xml:space="preserve">
<path fill="#000000" opacity="1.000000" stroke="none" 
	d="
M508.673553,575.530090 
	C502.298553,609.916016 492.345856,642.823486 480.001923,675.060242 
	C467.322266,708.173767 454.860718,741.370667 442.218475,774.498535 
	C440.441681,779.154419 438.405304,783.742859 436.099060,788.158813 
	C430.271515,799.317261 421.281586,805.886536 408.388245,806.444580 
	C394.775543,807.033691 386.130127,799.383850 380.152771,788.439392 
	C371.214996,772.074341 366.461334,754.159729 362.751404,736.022644 
	C359.669495,720.955933 359.999023,721.137085 345.247803,724.757019 
	C327.121185,729.205261 308.871277,732.950378 290.005524,732.413757 
	C283.113617,732.217651 276.371399,731.474182 269.851715,729.316528 
	C253.897125,724.036377 246.032761,706.795532 253.508896,693.533936 
	C256.546967,688.144836 261.723572,684.765564 266.513275,681.286194 
	C296.382690,659.587830 324.308411,635.699219 349.535583,608.710205 
	C351.189850,606.940430 353.346741,605.468018 353.845734,602.764343 
	C351.869110,601.728455 350.632019,603.233337 349.232574,603.922058 
	C334.435547,611.204529 319.715912,618.734070 303.151215,621.260254 
	C270.109436,626.299255 242.576523,616.687378 221.803848,589.965637 
	C206.868073,570.752380 199.369675,548.201782 193.325989,525.018860 
	C185.150238,493.657593 182.383713,461.716949 183.936203,429.487976 
	C185.426086,398.558350 191.570236,368.426819 203.926834,339.887787 
	C213.437729,317.921295 227.101562,299.071991 247.976364,286.352783 
	C271.018402,272.313080 294.941895,272.510559 319.341888,282.324493 
	C352.443634,295.638306 381.812500,315.008972 409.211914,337.628143 
	C423.487762,349.413391 437.402924,361.572479 450.191589,374.968567 
	C452.815247,377.716919 454.689301,377.755524 457.579803,375.079956 
	C469.128815,364.389618 483.151093,359.723358 498.675812,359.759308 
	C511.491425,359.788971 524.345825,358.896454 537.123352,360.388062 
	C548.833618,361.755035 559.158752,366.410126 568.223877,374.040405 
	C573.838440,378.766296 574.001953,378.597626 579.014465,373.395142 
	C607.977600,343.334320 640.279419,317.473938 676.633240,296.911346 
	C692.723511,287.810303 709.285767,279.368835 727.895813,276.535248 
	C758.149841,271.928772 782.590881,282.867035 801.820923,305.789917 
	C819.196228,326.501862 828.899597,351.040924 835.312195,377.047638 
	C842.704163,407.026550 845.144531,437.577362 842.975647,468.169708 
	C840.517639,502.839569 833.246033,536.729309 818.152283,568.395325 
	C808.879272,587.849792 796.343933,604.769104 776.355774,614.542847 
	C753.140930,625.894287 729.489319,625.550354 705.700928,616.169312 
	C696.397339,612.500488 687.220337,608.565674 678.350769,603.924927 
	C676.701965,603.062195 675.057617,601.435059 672.623291,603.023865 
	C673.879089,606.636292 676.898682,608.843323 679.352478,611.410156 
	C704.289429,637.495544 731.164246,661.322266 761.010254,681.731567 
	C766.424011,685.433716 772.393188,688.811218 774.856934,695.644775 
	C778.373230,705.397888 774.835938,717.654785 766.483154,723.814636 
	C758.706482,729.549500 749.837708,731.951050 740.282715,732.270081 
	C717.734070,733.022888 695.947754,728.424622 674.297974,722.903381 
	C667.529846,721.177368 667.581055,721.081299 666.115906,727.683594 
	C661.714539,747.517029 657.242493,767.332153 648.380249,785.803284 
	C642.732056,797.575378 633.976074,805.235840 620.544434,806.525574 
	C611.175049,807.425232 603.740479,803.591736 597.549011,796.847839 
	C590.750793,789.443115 586.858337,780.433716 583.430542,771.189880 
	C566.703186,726.080627 547.677002,681.814636 533.395447,635.810730 
	C526.389526,613.242981 520.878479,590.261475 515.587219,567.234131 
	C515.155884,565.356995 515.201782,563.226440 512.953735,561.291748 
	C509.820465,565.534790 510.408997,570.714844 508.673553,575.530090 
M557.702637,420.902710 
	C553.511841,406.832886 544.002502,398.402130 529.613098,396.748383 
	C518.907410,395.517944 507.919373,395.485413 497.213440,396.862335 
	C480.423950,399.021729 470.212006,409.972595 469.186432,425.045685 
	C467.728088,446.479126 468.457550,467.909363 469.255005,489.324921 
	C469.901978,506.698669 482.801270,518.665222 500.127838,518.696838 
	C508.120300,518.711365 516.112793,518.703918 524.105286,518.695251 
	C545.235229,518.672302 558.465027,505.724762 558.646912,484.560699 
	C558.809998,465.579926 558.701721,446.596558 558.642639,427.614532 
	C558.636536,425.645660 558.151184,423.678284 557.702637,420.902710 
M582.650574,574.879333 
	C590.727234,589.832825 599.076294,604.610840 610.109924,617.667847 
	C611.546570,619.367920 612.351257,621.284546 612.380432,623.589905 
	C612.451660,629.233582 608.804565,634.541443 603.553040,636.209534 
	C599.289062,637.563965 594.348389,635.497559 591.012024,630.156860 
	C576.434021,606.821228 563.008179,582.900330 554.819214,556.416077 
	C554.176147,554.336243 554.061340,550.918457 550.904053,551.833740 
	C548.023193,552.668884 549.420166,555.752319 549.625549,557.973694 
	C549.655518,558.297180 549.846375,558.602295 549.921509,558.925537 
	C556.846985,588.732544 564.002991,618.435181 575.050293,647.110413 
	C588.630432,682.359619 602.002808,717.688110 616.074707,752.745789 
	C616.832703,754.634155 617.307190,756.847839 619.640381,758.002686 
	C622.142700,754.462524 622.647644,750.442932 623.743347,746.663147 
	C629.396240,727.160950 632.737915,707.120483 637.507141,687.414185 
	C639.661560,678.512329 646.666992,674.743774 655.414795,677.299683 
	C658.446106,678.185364 661.419189,679.293030 664.371277,680.423462 
	C678.848633,685.966736 693.636292,690.429260 708.884827,693.293335 
	C711.204468,693.729126 713.554626,694.002808 715.890625,694.351379 
	C659.695068,649.508118 614.715454,595.384460 576.375671,535.535645 
	C568.114258,540.574890 567.872742,541.468018 570.936951,549.244202 
	C574.297363,557.772034 578.103027,566.085815 582.650574,574.879333 
M458.559814,589.975403 
	C452.508057,602.987915 444.491638,614.906250 437.635559,627.471863 
	C436.531799,629.494751 435.095947,631.412170 433.497833,633.074768 
	C429.458221,637.277405 424.065094,637.619019 419.534119,634.190125 
	C414.787384,630.597839 413.096924,624.275269 415.800476,619.569275 
	C417.039459,617.412598 418.603455,615.437317 420.077942,613.422119 
	C435.505981,592.336365 448.097260,569.742065 456.734894,545.008423 
	C457.505463,542.802002 457.431244,541.310913 455.691772,539.704651 
	C452.086945,536.376099 449.863647,536.592896 446.566193,541.569458 
	C436.452118,556.833435 426.579987,572.235779 415.345612,586.751160 
	C401.789246,604.266663 387.107819,620.760010 372.155823,637.064880 
	C356.726776,653.889893 340.667603,669.982178 322.383759,683.745056 
	C318.369080,686.766968 314.565399,690.069214 310.703094,693.211060 
	C312.039948,695.024170 313.275909,694.707581 314.362152,694.467773 
	C320.683197,693.072083 326.998199,691.645752 333.296265,690.149841 
	C347.254303,686.834717 360.490845,681.293823 374.090363,676.871460 
	C380.570312,674.764282 387.071014,678.025085 389.110840,684.523132 
	C390.101715,687.679565 390.715210,690.964905 391.350098,694.221008 
	C395.168365,713.802673 399.072174,733.364807 404.838593,752.491760 
	C405.379272,754.285034 405.418274,756.535278 407.889496,757.572083 
	C410.845123,755.351074 411.444153,751.751709 412.671204,748.627258 
	C423.317932,721.517639 433.478180,694.210571 444.515167,667.262085 
	C458.633484,632.790161 468.504883,597.117310 476.297241,560.795776 
	C476.862305,558.161987 477.842865,555.322205 475.779694,552.486145 
	C475.054413,552.879456 474.217896,553.038940 474.010925,553.488342 
	C468.588226,565.262939 464.788818,577.722107 458.559814,589.975403 
M657.705383,430.299286 
	C639.630615,435.455963 621.528015,440.517609 603.492493,445.808044 
	C594.006348,448.590698 594.248413,448.773041 594.158508,458.654144 
	C594.121765,462.686279 595.657227,463.824371 599.405884,463.903442 
	C606.388794,464.050659 613.382202,464.392853 620.337646,465.023865 
	C640.037415,466.811066 659.722412,468.763245 679.409180,470.691833 
	C699.427429,472.652893 719.441162,474.628143 739.369080,477.432312 
	C759.631348,480.283508 779.727844,483.955383 799.531128,489.093994 
	C803.505127,490.125153 805.111145,489.012238 805.576843,485.182617 
	C806.478455,477.768829 807.559265,470.375366 807.738403,462.891846 
	C807.907227,455.843048 807.563843,455.430481 800.658569,455.416992 
	C783.000000,455.382416 765.341125,455.427856 747.682678,455.363708 
	C739.440979,455.333801 734.546082,450.748383 734.363464,443.125793 
	C734.203064,436.430878 740.191528,430.782654 747.822205,430.668121 
	C765.804382,430.398193 783.787720,430.159790 801.771362,430.073151 
	C805.559692,430.054871 808.118896,429.193481 807.454651,424.854828 
	C806.426636,418.139435 805.111938,411.468231 804.049683,404.757599 
	C803.619507,402.039856 802.347900,401.127350 799.621643,401.553467 
	C786.154419,403.658691 772.638489,405.467346 759.199463,407.734802 
	C725.258911,413.461273 691.691101,420.905701 657.705383,430.299286 
M304.951416,475.301727 
	C317.987823,473.779541 331.008179,472.098145 344.065277,470.781158 
	C356.466980,469.530243 368.906372,468.650787 381.330627,467.625671 
	C396.574921,466.367889 411.821167,465.134430 427.065094,463.872406 
	C428.702454,463.736847 430.424042,463.777161 431.450043,462.048248 
	C434.988831,456.084930 431.947571,448.210236 425.313538,446.343506 
	C402.740692,439.991913 380.198975,433.525269 357.574615,427.362213 
	C323.524231,418.086578 289.019440,410.887573 254.167206,405.348633 
	C245.955048,404.043518 237.761444,402.603516 229.523804,401.487579 
	C226.934921,401.136902 223.416824,400.156464 222.799942,404.428070 
	C221.779602,411.493256 220.040726,418.463135 220.137054,425.686707 
	C220.179108,428.839539 221.454132,430.296112 224.576706,430.289368 
	C230.898926,430.275757 237.221512,430.276703 243.543472,430.328796 
	C255.683533,430.428864 267.826172,430.446899 279.962006,430.738098 
	C287.172455,430.911102 292.480957,436.341980 292.507477,443.029602 
	C292.535034,449.978271 287.628662,454.928436 280.144501,455.360779 
	C276.994141,455.542786 273.830261,455.537598 270.672516,455.536743 
	C255.357025,455.532654 240.041336,455.457031 224.726273,455.528198 
	C222.496353,455.538574 219.477448,455.468292 219.346909,458.678864 
	C218.914124,469.321411 220.089447,479.809265 222.831360,490.516663 
	C249.917053,483.711609 276.705963,478.010376 304.951416,475.301727 
M395.332947,521.643799 
	C407.340973,518.960815 419.356354,516.309814 431.350372,513.565552 
	C433.527069,513.067505 436.004333,512.882324 435.702118,509.354980 
	C434.740570,498.132782 432.105316,495.721375 420.818420,496.269287 
	C419.820801,496.317688 418.822662,496.383057 417.829193,496.483887 
	C398.296570,498.466156 379.038666,502.259766 359.666229,505.300323 
	C319.007996,511.681763 279.126984,521.342712 239.875763,533.656311 
	C238.183624,534.187134 236.286011,534.527100 234.831924,536.521667 
	C237.583206,544.488708 241.688797,552.041931 245.765381,559.648804 
	C247.906525,563.644165 250.175369,564.099915 254.174103,562.455688 
	C269.582245,556.119690 285.451111,551.071411 301.517578,546.713989 
	C332.490967,538.313660 363.521973,530.125916 395.332947,521.643799 
M612.033386,517.334656 
	C629.757019,521.809753 647.475098,526.306885 665.205444,530.755371 
	C701.990479,539.984802 739.060059,548.267090 774.064453,563.415405 
	C776.589966,564.508362 778.246033,564.469604 779.845581,561.842957 
	C784.189209,554.710449 787.544556,547.098389 791.133972,539.596069 
	C792.444092,536.857788 790.893066,535.515747 788.594666,534.716431 
	C783.251465,532.858032 777.928528,530.916565 772.508850,529.306946 
	C732.105713,517.307129 690.907959,508.923431 649.313843,502.347229 
	C632.887390,499.750153 616.442200,497.324585 599.855225,495.988525 
	C597.897522,495.830841 595.413574,495.100342 594.597656,497.484070 
	C593.009399,502.124603 591.923706,506.937134 590.581116,511.857117 
	C597.508484,514.734802 604.627686,514.955933 612.033386,517.334656 
M630.627686,382.177948 
	C617.736023,387.690643 605.547058,394.432526 594.329163,402.882446 
	C592.370544,404.357727 590.891785,405.776276 591.843140,408.691071 
	C593.457397,413.637085 594.520264,414.394745 599.899475,412.698700 
	C637.644104,400.797821 675.724060,390.079803 713.975830,379.936401 
	C738.718140,373.375397 763.341614,366.366852 788.025085,359.583130 
	C790.512207,358.899628 792.756592,358.152985 790.941406,354.906769 
	C787.774719,349.243652 784.571899,343.600464 781.338196,337.975372 
	C780.201111,335.997375 778.606445,335.509918 776.276978,336.110168 
	C768.395020,338.141052 760.402710,339.751862 752.544617,341.865601 
	C711.395386,352.934174 671.158447,366.781738 630.627686,382.177948 
M311.854126,352.759430 
	C292.997314,347.299255 274.076447,342.046173 255.323959,336.248566 
	C249.929321,334.580719 246.662766,335.210846 244.276367,340.509674 
	C241.663864,346.310547 237.776291,351.558807 236.105820,358.386627 
	C242.193909,360.001678 247.652023,361.387329 253.075134,362.898651 
	C282.402496,371.071716 311.650513,379.540588 341.062958,387.394226 
	C370.003906,395.121918 398.786774,403.351868 427.323242,412.446838 
	C432.426147,414.073212 435.057587,412.490814 435.146484,407.302490 
	C435.197235,404.340820 432.773193,402.998627 430.816742,401.612732 
	C422.516968,395.733398 413.827545,390.468964 404.590027,386.186707 
	C374.909363,372.427460 343.722321,362.831848 311.854126,352.759430 
M320.193329,578.677307 
	C341.520569,568.642151 361.957062,557.048950 382.216492,543.993469 
	C379.690063,542.961426 378.141541,543.782471 376.563873,544.176208 
	C368.657745,546.149292 360.749603,548.115051 352.856232,550.138428 
	C325.944763,557.036804 299.079437,564.104370 272.679352,572.806580 
	C269.130859,573.976257 265.423462,575.003845 262.432800,578.180908 
	C271.147644,585.748901 281.145447,587.194397 291.642487,586.351074 
	C301.330841,585.572510 310.511780,582.578796 320.193329,578.677307 
M720.113037,562.494812 
	C696.203247,555.748474 672.358215,548.734253 647.812805,544.449219 
	C648.353638,545.776001 649.032959,546.534607 649.866089,547.039307 
	C670.516724,559.550842 691.226013,571.987549 713.758972,580.910767 
	C724.697693,585.242493 736.115173,587.402771 747.929565,585.645142 
	C753.979858,584.745056 759.877136,583.189209 764.755615,577.718994 
	C750.224426,571.061401 735.599976,566.780640 720.113037,562.494812 
M700.182556,325.755524 
	C684.300659,334.347137 668.664062,343.303864 655.227722,355.730927 
	C692.148743,343.824005 728.825073,331.659882 767.720764,322.096466 
	C757.247681,313.645966 746.800415,311.419769 735.265137,312.777313 
	C722.763062,314.248657 711.754028,319.681335 700.182556,325.755524 
M344.266510,335.271667 
	C327.501587,325.222046 310.365295,316.039764 290.749603,312.798645 
	C279.847626,310.997314 270.266113,313.988159 261.600067,321.187836 
	C299.311951,332.882111 336.949219,344.095123 374.259796,356.485443 
	C365.194092,348.302277 354.963257,342.088165 344.266510,335.271667 
M735.369873,492.412048 
	C734.870483,492.404388 734.367188,492.352814 733.872253,492.396240 
	C730.867188,492.660034 727.298523,492.663788 726.801208,496.466797 
	C726.240234,500.756805 729.988037,501.323456 733.072815,502.038757 
	C737.926147,503.164093 742.793823,504.231964 747.672241,505.243408 
	C762.821472,508.384521 777.819214,512.127869 792.509033,516.985352 
	C796.549011,518.321228 798.281311,517.144165 799.315857,513.231689 
	C800.336670,509.371429 799.273621,507.442200 795.389893,506.295624 
	C775.924927,500.549194 756.185669,496.023132 735.369873,492.412048 
M228.199692,507.683350 
	C226.368423,511.173431 227.916000,514.397400 229.884171,516.874023 
	C231.601654,519.035095 234.235214,516.823181 236.370972,516.286316 
	C247.812744,513.410339 259.201569,510.323395 270.645264,507.455200 
	C277.573486,505.718719 284.559021,504.205872 291.536469,502.672943 
	C295.046539,501.901764 297.751953,499.915558 297.276062,496.307587 
	C296.747925,492.303345 293.084534,492.115112 289.793549,492.380463 
	C288.153351,492.512756 286.540833,493.004242 284.919312,493.349670 
	C266.067230,497.365448 247.218277,501.394318 228.199692,507.683350 
M797.787354,384.503723 
	C801.855591,381.706848 798.493042,378.859344 797.642700,376.223145 
	C796.808594,373.637634 794.530945,374.486694 792.551392,374.966125 
	C784.974670,376.800934 777.391235,378.609039 769.795105,380.361481 
	C766.489685,381.124054 763.992004,382.952240 764.516357,386.445068 
	C765.126587,390.509460 768.552490,390.210724 771.625427,389.626678 
	C780.099854,388.016083 788.560364,386.331909 797.787354,384.503723 
M235.836151,374.951538 
	C229.627747,373.716522 228.482147,374.861481 227.801361,383.506134 
	C236.910950,385.466156 246.090134,387.506104 255.302246,389.384583 
	C258.149719,389.965240 261.427887,390.078552 262.297058,386.520813 
	C263.179443,382.908997 260.578705,381.041748 257.402405,380.231964 
	C250.498322,378.471802 243.560699,376.843292 235.836151,374.951538 
z"/>
</svg>